0
SECTION
2
HEADER
9
$INSUNITS
70
4
9
$ACADVER
1
AC1014
9
$HANDSEED
5
FFFF
0
ENDSEC
0
SECTION
2
TABLES
0
TABLE
2
VPORT
5
8
100
AcDbSymbolTable
0
ENDTAB
0
TABLE
2
LTYPE
5
5
100
AcDbSymbolTable
0
LTYPE
5
14
100
AcDbSymbolTableRecord
100
AcDbLinetypeTableRecord
2
BYBLOCK
70
0
0
LTYPE
5
15
100
AcDbSymbolTableRecord
100
AcDbLinetypeTableRecord
2
BYLAYER
70
0
0
ENDTAB
0
TABLE
2
LAYER
5
2
100
AcDbSymbolTable
70
2
0
LAYER
5
50
100
AcDbSymbolTableRecord
100
AcDbLayerTableRecord
2
0
70
0
6
CONTINUOUS
0
ENDTAB
0
TABLE
2
STYLE
5
3
100
AcDbSymbolTable
70
1
0
STYLE
5
11
100
AcDbSymbolTableRecord
100
AcDbTextStyleTableRecord
2
STANDARD
70
0
0
ENDTAB
0
TABLE
2
VIEW
5
6
100
AcDbSymbolTable
70
0
0
ENDTAB
0
TABLE
2
UCS
5
7
100
AcDbSymbolTable
70
0
0
ENDTAB
0
TABLE
2
APPID
5
9
100
AcDbSymbolTable
70
2
0
APPID
5
12
100
AcDbSymbolTableRecord
100
AcDbRegAppTableRecord
2
ACAD
70
0
0
ENDTAB
0
TABLE
2
DIMSTYLE
5
A
100
AcDbSymbolTable
70
1
0
ENDTAB
0
TABLE
2
BLOCK_RECORD
5
1
100
AcDbSymbolTable
70
1
0
BLOCK_RECORD
5
1F
100
AcDbSymbolTableRecord
100
AcDbBlockTableRecord
2
*MODEL_SPACE
0
BLOCK_RECORD
5
1B
100
AcDbSymbolTableRecord
100
AcDbBlockTableRecord
2
*PAPER_SPACE
0
ENDTAB
0
ENDSEC
0
SECTION
2
BLOCKS
0
BLOCK
5
20
100
AcDbEntity
100
AcDbBlockBegin
2
*MODEL_SPACE
0
ENDBLK
5
21
100
AcDbEntity
100
AcDbBlockEnd
0
BLOCK
5
1C
100
AcDbEntity
100
AcDbBlockBegin
2
*PAPER_SPACE
0
ENDBLK
5
1D
100
AcDbEntity
100
AcDbBlockEnd
0
ENDSEC
0
SECTION
2
ENTITIES
0
SPLINE
5
100
100
AcDbEntity
8
0
100
AcDbSpline
70
0
71
3
72
17
73
13
74
0
42
0.000000001
43
0.0000000001
44
0.0000000001
40
0.0050753590378996016
40
0.0050753590378996016
40
0.0050753590378996016
40
0.0050753590378996016
40
0.0099999999999999898
40
0.0099999999999999898
40
0.0099999999999999898
40
0.018848415707822232
40
0.018848415707822232
40
0.037696831415644463
40
0.037696831415644463
40
0.056996556692874935
40
0.056996556692874935
40
0.076296281970105406
40
0.076296281970105406
40
0.076296281970105406
40
0.076296281970105406
10
95.000000000000014
20
45.000000000000028
30
0
10
94.996486435025503
20
45.000000000000028
30
0
10
94.992972880895081
20
44.999987654861194
30
0
10
94.989459402670917
20
44.999962964812141
30
0
10
94.983146512828384
20
44.999918602630295
30
0
10
94.973886018612532
20
44.999820592559757
30
0
10
94.93636893105672
20
44.998867358814316
30
0
10
94.897873032281765
20
44.997181757833246
30
0
10
94.808172552106242
20
44.988382165200164
30
0
10
94.750768176640307
20
44.980502303658021
30
0
10
94.626972692234176
20
44.954253831650497
30
0
10
94.560653184971414
20
44.935657701570037
30
0
10
94.500000000000014
20
44.914213562373106
30
0
0
SPLINE
5
101
100
AcDbEntity
8
0
100
AcDbSpline
70
0
71
3
72
17
73
13
74
0
42
0.000000001
43
0.0000000001
44
0.0000000001
40
0.23891017010615373
40
0.23891017010615373
40
0.23891017010615373
40
0.23891017010615373
40
0.25820989538338424
40
0.25820989538338424
40
0.27750962066061469
40
0.27750962066061469
40
0.29635803636843694
40
0.29635803636843694
40
0.30520645207625913
40
0.30520645207625913
40
0.30520645207625913
40
0.31013109303834574
40
0.31013109303834574
40
0.31013109303834574
40
0.31013109303834574
10
115.50000000000003
20
44.914213562373114
30
0
10
115.43934681502861
20
44.935657701570037
30
0
10
115.37302730776587
20
44.954253831650497
30
0
10
115.24923182335974
20
44.980502303658021
30
0
10
115.19182744789379
20
44.988382165200164
30
0
10
115.10212696771828
20
44.997181757833246
30
0
10
115.06363106894332
20
44.998867358814316
30
0
10
115.02611398138752
20
44.999820592559757
30
0
10
115.01685348717167
20
44.999918602630295
30
0
10
115.01054059732911
20
44.999962964812141
30
0
10
115.00702711910495
20
44.999987654861194
30
0
10
115.00351356497454
20
45.000000000000028
30
0
10
115.00000000000001
20
45.000000000000028
30
0
0
SPLINE
5
102
100
AcDbEntity
8
0
100
AcDbSpline
70
0
71
3
72
17
73
13
74
0
42
0.000000001
43
0.0000000001
44
0.0000000001
40
0.2389101701061544
40
0.2389101701061544
40
0.2389101701061544
40
0.2389101701061544
40
0.25820989538338479
40
0.25820989538338479
40
0.27750962066061524
40
0.27750962066061524
40
0.29635803636843749
40
0.29635803636843749
40
0.30520645207625974
40
0.30520645207625974
40
0.30520645207625974
40
0.31013109303813868
40
0.31013109303813868
40
0.31013109303813868
40
0.31013109303813868
10
94.500000000000014
20
-11.414213562373083
30
0
10
94.560653184971414
20
-11.435657701570005
30
0
10
94.626972692234148
20
-11.454253831650474
30
0
10
94.750768176640292
20
-11.480502303657993
30
0
10
94.808172552106242
20
-11.488382165200125
30
0
10
94.897873032281765
20
-11.497181757833204
30
0
10
94.93636893105672
20
-11.498867358814271
30
0
10
94.973886018612532
20
-11.499820592559708
30
0
10
94.983146512828384
20
-11.499918602630251
30
0
10
94.989459402670917
20
-11.4999629648121
30
0
10
94.992972880894925
20
-11.499987654861156
30
0
10
94.996486435025659
20
-11.499999999999988
30
0
10
95.000000000000014
20
-11.499999999999988
30
0
0
SPLINE
5
103
100
AcDbEntity
8
0
100
AcDbSpline
70
0
71
3
72
17
73
13
74
0
42
0.000000001
43
0.0000000001
44
0.0000000001
40
0.0050753590381209272
40
0.0050753590381209272
40
0.0050753590381209272
40
0.0050753590381209272
40
0.01
40
0.01
40
0.01
40
0.018848415707822246
40
0.018848415707822246
40
0.037696831415644491
40
0.037696831415644491
40
0.056996556692874921
40
0.056996556692874921
40
0.076296281970105351
40
0.076296281970105351
40
0.076296281970105351
40
0.076296281970105351
10
115.00000000000001
20
-11.499999999999988
30
0
10
115.00351356497438
20
-11.499999999999988
30
0
10
115.00702711910512
20
-11.499987654861156
30
0
10
115.01054059732911
20
-11.4999629648121
30
0
10
115.01685348717166
20
-11.499918602630251
30
0
10
115.02611398138751
20
-11.499820592559708
30
0
10
115.06363106894332
20
-11.498867358814271
30
0
10
115.10212696771828
20
-11.497181757833204
30
0
10
115.19182744789379
20
-11.488382165200125
30
0
10
115.24923182335974
20
-11.480502303657998
30
0
10
115.37302730776587
20
-11.454253831650478
30
0
10
115.43934681502861
20
-11.435657701570005
30
0
10
115.50000000000004
20
-11.414213562373083
30
0
0
ARC
5
104
100
AcDbEntity
8
0
100
AcDbCircle
10
95
20
43.500000000000021
30
0
40
1.4999999999999938
210
0
220
0
230
1
100
AcDbArc
50
109.47122063449022
51
270.00000000000051
0
LINE
5
105
100
AcDbEntity
8
0
100
AcDbLine
10
115.00000000000001
20
42.000000000000021
30
0
11
95.000000000000014
21
42.000000000000028
31
0
0
ARC
5
106
100
AcDbEntity
8
0
100
AcDbCircle
10
115.00000000000003
20
43.500000000000021
30
0
40
1.5000000000000036
210
0
220
0
230
1
100
AcDbArc
50
-90.000000000000568
51
70.52877936550928
0
ARC
5
107
100
AcDbEntity
8
0
100
AcDbCircle
10
115.00000000000001
20
-9.9999999999999893
30
0
40
1.5000000000000067
210
-0
220
0
230
1
100
AcDbArc
50
-70.528779365508242
51
90
0
LINE
5
108
100
AcDbEntity
8
0
100
AcDbLine
10
95.000000000000014
20
-8.4999999999999822
30
0
11
115.00000000000001
21
-8.4999999999999911
31
0
0
ARC
5
109
100
AcDbEntity
8
0
100
AcDbCircle
10
95.000000000000014
20
-9.9999999999999893
30
0
40
1.500000000000008
210
0
220
-0
230
1
100
AcDbArc
50
90
51
250.52877936550925
0
LINE
5
110
100
AcDbEntity
8
0
100
AcDbLine
10
37.000000551342964
20
-50.00000074505806
30
0
11
37.000000551342964
21
-59.5
31
0
0
LINE
5
111
100
AcDbEntity
8
0
100
AcDbLine
10
37.000000551342964
20
-50.00000074505806
30
0
11
78.000001162290573
21
-50.00000074505806
31
0
0
LINE
5
112
100
AcDbEntity
8
0
100
AcDbLine
10
78.000001162290573
20
-50.00000074505806
30
0
11
78.000001162290573
21
-23.000000342726707
31
0
0
LINE
5
113
100
AcDbEntity
8
0
100
AcDbLine
10
78.000001162290573
20
-23.000000342726707
30
0
11
37.284003636256102
21
-23.000000342726707
31
0
0
LINE
5
114
100
AcDbEntity
8
0
100
AcDbLine
10
37.284003636256102
20
-23.000000342726707
30
0
11
37.284003636256102
21
0
31
0
0
LINE
5
115
100
AcDbEntity
8
0
100
AcDbLine
10
37.284003636256102
20
0
30
0
11
78.0000011622908
21
0
31
0
0
LINE
5
116
100
AcDbEntity
8
0
100
AcDbLine
10
78.0000011622908
20
0
30
0
11
78.000001162290928
21
27.000000000000014
31
0
0
LINE
5
117
100
AcDbEntity
8
0
100
AcDbLine
10
78.000001162290928
20
27.000000000000014
30
0
11
38.666667242844767
21
27.000000000000203
31
0
0
LINE
5
118
100
AcDbEntity
8
0
100
AcDbLine
10
38.666667242844767
20
27.000000000000203
30
0
11
38.666667242844753
21
42.500000819563873
31
0
0
ARC
5
119
100
AcDbEntity
8
0
100
AcDbCircle
10
51.166667242844817
20
42.500000819563859
30
0
40
12.500000000000062
210
0
220
0
230
1
100
AcDbArc
50
90.000000000000298
51
180
0
LINE
5
120
100
AcDbEntity
8
0
100
AcDbLine
10
51.166667242844753
20
55.000000819563923
30
0
11
125
21
55.000000819563944
31
0
0
SPLINE
5
121
100
AcDbEntity
8
0
100
AcDbSpline
70
4
71
5
72
46
73
40
74
0
42
0.000000001
43
0.0000000001
44
0.0000000001
40
0
40
0
40
0
40
0
40
0
40
0
40
0.028571428571428571
40
0.057142857142857141
40
0.085714285714285715
40
0.11428571428571428
40
0.14285714285714285
40
0.17142857142857143
40
0.20000000000000001
40
0.22857142857142859
40
0.25714285714285717
40
0.28571428571428575
40
0.31428571428571433
40
0.34285714285714292
40
0.3714285714285715
40
0.40000000000000008
40
0.42857142857142866
40
0.45714285714285724
40
0.48571428571428582
40
0.51428571428571435
40
0.54285714285714293
40
0.57142857142857151
40
0.60000000000000009
40
0.62857142857142867
40
0.65714285714285725
40
0.68571428571428583
40
0.71428571428571441
40
0.74285714285714299
40
0.77142857142857157
40
0.80000000000000016
40
0.82857142857142874
40
0.85714285714285732
40
0.8857142857142859
40
0.91428571428571448
40
0.94285714285714306
40
0.97142857142857164
40
1
40
1
40
1
40
1
40
1
40
1
41
1
41
1
41
1
41
1
41
1
41
1
41
1
41
1
41
1
41
1
41
1
41
1
41
1
41
1
41
1
41
1
41
1
41
1
41
1
41
1
41
1
41
1
41
1
41
1
41
1
41
1
41
1
41
1
41
1
41
1
41
1
41
1
41
1
41
1
41
1
41
1
41
1
41
1
41
1
41
1
10
132.28374305435349
20
-71.459692327612046
30
0
10
132.13107847015871
20
-70.758451357593259
30
0
10
131.82542914282769
20
-69.354671851861312
30
0
10
131.36599468928179
20
-67.245109931757369
30
0
10
130.75149181052925
20
-64.424564728461092
30
0
10
129.98044164835861
20
-60.885197878951125
30
0
10
129.20734797189897
20
-57.330165933290367
30
0
10
128.43399409628699
20
-53.755591391659848
30
0
10
127.66336910930421
20
-50.155046188796454
30
0
10
126.90001493446637
20
-46.51898981048322
30
0
10
126.15126426195992
20
-42.836001946628883
30
0
10
125.42841532711884
20
-39.093927424485528
30
0
10
124.7480115016924
20
-35.281047804459597
30
0
10
124.13295742276007
20
-31.387261752460333
30
0
10
123.61411898396196
20
-27.405243880432828
30
0
10
123.22527325528588
20
-23.332021663423316
30
0
10
122.99767046965613
20
-19.170522365044761
30
0
10
122.95445095459979
20
-14.931337292221006
30
0
10
123.10566825600648
20
-10.634068631961631
30
0
10
123.44151579262471
20
-6.3098247971697958
30
0
10
123.93107846438468
20
-2.0002188830403016
30
0
10
124.53262032536568
20
2.2509972821955579
30
0
10
125.20106378903986
20
6.4044456989187442
30
0
10
125.89714688027151
20
10.432976712116904
30
0
10
126.59448723657583
20
14.327674619157245
30
0
10
127.2910659781445
20
18.108123061864305
30
0
10
128.00319967543444
20
21.815745559279382
30
0
10
128.74865109011213
20
25.49661023863478
30
0
10
129.53216896865041
20
29.186648663529986
30
0
10
130.33182433892117
20
32.897583732680495
30
0
10
131.08038651244578
20
36.598240136747684
30
0
10
131.66455938352235
20
40.212572544687674
30
0
10
131.95021514014073
20
43.642107356367717
30
0
10
131.80211945777603
20
46.783101330776198
30
0
10
131.10396969574742
20
49.544201952057428
30
0
10
129.78323173495062
20
51.86799143560939
30
0
10
128.20231404452713
20
53.356304247790973
30
0
10
126.71736117759052
20
54.260488594088358
30
0
10
125.59458870481595
20
54.769180519777692
30
0
10
125
20
55.000000819563944
30
0
0
SPLINE
5
122
100
AcDbEntity
8
0
100
AcDbSpline
70
4
71
5
72
56
73
50
74
0
42
0.000000001
43
0.0000000001
44
0.0000000001
40
0
40
0
40
0
40
0
40
0
40
0
40
0.022222222222222223
40
0.044444444444444446
40
0.066666666666666666
40
0.088888888888888892
40
0.11111111111111112
40
0.13333333333333333
40
0.15555555555555556
40
0.17777777777777778
40
0.20000000000000001
40
0.22222222222222224
40
0.24444444444444446
40
0.26666666666666666
40
0.28888888888888886
40
0.31111111111111106
40
0.33333333333333326
40
0.35555555555555546
40
0.37777777777777766
40
0.39999999999999986
40
0.42222222222222205
40
0.44444444444444425
40
0.46666666666666645
40
0.48888888888888865
40
0.51111111111111085
40
0.5333333333333331
40
0.55555555555555536
40
0.57777777777777761
40
0.59999999999999987
40
0.62222222222222212
40
0.64444444444444438
40
0.66666666666666663
40
0.68888888888888888
40
0.71111111111111114
40
0.73333333333333339
40
0.75555555555555565
40
0.7777777777777779
40
0.80000000000000016
40
0.82222222222222241
40
0.84444444444444466
40
0.86666666666666692
40
0.88888888888888917
40
0.91111111111111143
40
0.93333333333333368
40
0.95555555555555594
40
0.97777777777777819
40
1
40
1
40
1
40
1
40
1
40
1
41
1
41
1
41
1
41
1
41
1
41
1
41
1
41
1
41
1
41
1
41
1
41
1
41
1
41
1
41
1
41
1
41
1
41
1
41
1
41
1
41
1
41
1
41
1
41
1
41
1
41
1
41
1
41
1
41
1
41
1
41
1
41
1
41
1
41
1
41
1
41
1
41
1
41
1
41
1
41
1
41
1
41
1
41
1
41
1
41
1
41
1
41
1
41
1
41
1
41
1
10
37.000000551342964
20
-59.5
30
0
10
37.006200825919578
20
-59.935676598779828
30
0
10
37.029146749700644
20
-60.791153610065429
30
0
10
37.095214673247419
20
-62.026759184290015
30
0
10
37.246542171499797
20
-63.578775264842555
30
0
10
37.546945712003726
20
-65.371313087392934
30
0
10
37.973548246934364
20
-67.048990560925247
30
0
10
38.55974380418013
20
-68.683298328995861
30
0
10
39.348882054700283
20
-70.375422011829386
30
0
10
40.373934770093967
20
-72.216896624853661
30
0
10
41.619959678349005
20
-74.24224890541764
30
0
10
43.037763935722317
20
-76.417988178738938
30
0
10
44.644038866176246
20
-78.733084382058578
30
0
10
46.464150757804902
20
-81.165128922540816
30
0
10
48.522566228745923
20
-83.684316129079846
30
0
10
50.816383557854039
20
-86.243038902417638
30
0
10
53.289062921242603
20
-88.768390054169416
30
0
10
55.831060584585863
20
-91.165870846197365
30
0
10
58.315173473001927
20
-93.339869061095499
30
0
10
60.62151638347693
20
-95.208787136908839
30
0
10
62.668412921661201
20
-96.723834392589538
30
0
10
64.43698734450733
20
-97.883039678192176
30
0
10
66.008606783606439
20
-98.755972011300287
30
0
10
67.534516871492457
20
-99.451421222879176
30
0
10
69.18667644522435
20
-100.07065032560382
30
0
10
71.109815617533812
20
-100.65842896735367
30
0
10
73.388530148880221
20
-101.17621892549828
30
0
10
76.065163783184929
20
-101.54336136738763
30
0
10
79.148362172596933
20
-101.66690246910221
30
0
10
82.624328122090361
20
-101.47276797484156
30
0
10
86.468947433818428
20
-100.9439742151645
30
0
10
90.650604854189311
20
-100.12475552058218
30
0
10
95.123227385927422
20
-99.092650839465307
30
0
10
99.822974315942929
20
-97.940813622884093
30
0
10
104.66136075899823
20
-96.753897625615224
30
0
10
109.5244176084873
20
-95.59200890412248
30
0
10
114.25848902415163
20
-94.458790883781333
30
0
10
118.6865882997469
20
-93.304984394485743
30
0
10
122.55008988859473
20
-91.945617526293006
30
0
10
125.71116060142043
20
-90.276939811970919
30
0
10
128.1570701425934
20
-88.296254824397835
30
0
10
129.94909920175252
20
-86.055182512124077
30
0
10
131.19486143233516
20
-83.641148695465546
30
0
10
132.01317178878438
20
-81.148777267542954
30
0
10
132.49622688360461
20
-78.650967011262452
30
0
10
132.69702554827001
20
-76.189067131737971
30
0
10
132.65418634100993
20
-74.265341954466294
30
0
10
132.51179350212061
20
-72.851322411406201
30
0
10
132.36791839965042
20
-71.921437227287001
30
0
10
132.28374305435352
20
-71.459692327612046
30
0
0
CIRCLE
5
123
100
AcDbEntity
8
0
100
AcDbCircle
10
107.49471096395894
20
-36.500000543892384
30
0
40
1.5000000000000036
210
0
220
-0
230
1
0
CIRCLE
5
124
100
AcDbEntity
8
0
100
AcDbCircle
10
88.036474392410966
20
-36.500000543892384
30
0
40
1.5000000000000036
210
0
220
-0
230
1
0
CIRCLE
5
125
100
AcDbEntity
8
0
100
AcDbCircle
10
107.49471096395894
20
13.499999999999996
30
0
40
1.5000000000000036
210
0
220
-0
230
1
0
ARC
5
126
100
AcDbEntity
8
0
100
AcDbCircle
10
109.5
20
-60
30
0
40
1.4999999999999982
210
0
220
-0
230
1
100
AcDbArc
50
19.471184411946787
51
180
0
LINE
5
127
100
AcDbEntity
8
0
100
AcDbLine
10
107.99999999999999
20
-80
30
0
11
108
21
-60
31
0
0
ARC
5
128
100
AcDbEntity
8
0
100
AcDbCircle
10
109.5
20
-80.000000000000014
30
0
40
1.5000000000000036
210
0
220
0
230
1
100
AcDbArc
50
180
51
340.52877936550999
0
CIRCLE
5
129
100
AcDbEntity
8
0
100
AcDbCircle
10
88.036474392410966
20
13.499999999999996
30
0
40
1.5000000000000036
210
0
220
-0
230
1
0
ARC
5
130
100
AcDbEntity
8
0
100
AcDbCircle
10
63.500000000000014
20
-80
30
0
40
1.4999999999999996
210
0
220
0
230
1
100
AcDbArc
50
-160.52877936550925
51
0
0
LINE
5
131
100
AcDbEntity
8
0
100
AcDbLine
10
65
20
-60
30
0
11
65.000000000000014
21
-80
31
0
0
ARC
5
132
100
AcDbEntity
8
0
100
AcDbCircle
10
63.500000000000007
20
-60.000000000000007
30
0
40
1.4999999999999947
210
0
220
-0
230
1
100
AcDbArc
50
0
51
160.52877936550894
0
SPLINE
5
133
100
AcDbEntity
8
0
100
AcDbSpline
70
0
71
3
72
17
73
13
74
0
42
0.000000001
43
0.0000000001
44
0.0000000001
40
0.23891017010615348
40
0.23891017010615348
40
0.23891017010615348
40
0.23891017010615348
40
0.25820989538338379
40
0.25820989538338379
40
0.27750962066061413
40
0.27750962066061413
40
0.29635803636843633
40
0.29635803636843633
40
0.30520645207625852
40
0.30520645207625852
40
0.30520645207625852
40
0.31013109303833813
40
0.31013109303833813
40
0.31013109303833813
40
0.31013109303833813
10
62.085786437626915
20
-59.5
30
0
10
62.064342298429992
20
-59.560653184971414
30
0
10
62.045746168349524
20
-59.626972692234155
30
0
10
62.019497696342
20
-59.750768176640292
30
0
10
62.011617834799878
20
-59.808172552106242
30
0
10
62.002818242166796
20
-59.897873032281765
30
0
10
62.001132641185734
20
-59.936368931056734
30
0
10
62.000179407440292
20
-59.973886018612518
30
0
10
62.00008139736974
20
-59.983146512828384
30
0
10
62.000037035187894
20
-59.989459402670917
30
0
10
62.000012345138842
20
-59.992972880895067
30
0
10
62.000000000000014
20
-59.996486435025496
30
0
10
62.000000000000014
20
-60
30
0
0
SPLINE
5
134
100
AcDbEntity
8
0
100
AcDbSpline
70
0
71
3
72
17
73
13
74
0
42
0.000000001
43
0.0000000001
44
0.0000000001
40
0.0050753590378993518
40
0.0050753590378993518
40
0.0050753590378993518
40
0.0050753590378993518
40
0.0099999999999999967
40
0.0099999999999999967
40
0.0099999999999999967
40
0.018848415707822364
40
0.018848415707822364
40
0.037696831415644727
40
0.037696831415644727
40
0.05699655669287515
40
0.05699655669287515
40
0.076296281970105573
40
0.076296281970105573
40
0.076296281970105573
40
0.076296281970105573
10
62.000000000000014
20
-80
30
0
10
62.000000000000014
20
-80.003513564974526
30
0
10
62.000012345138842
20
-80.007027119104933
30
0
10
62.000037035187894
20
-80.010540597329097
30
0
10
62.00008139736974
20
-80.01685348717163
30
0
10
62.000179407440292
20
-80.026113981387482
30
0
10
62.001132641185734
20
-80.063631068943266
30
0
10
62.002818242166796
20
-80.102126967718235
30
0
10
62.011617834799878
20
-80.191827447893772
30
0
10
62.019497696342
20
-80.249231823359736
30
0
10
62.045746168349531
20
-80.373027307765867
30
0
10
62.064342298429992
20
-80.4393468150286
30
0
10
62.085786437626922
20
-80.5
30
0
0
SPLINE
5
135
100
AcDbEntity
8
0
100
AcDbSpline
70
0
71
3
72
17
73
13
74
0
42
0.000000001
43
0.0000000001
44
0.0000000001
40
0.2389101701061544
40
0.2389101701061544
40
0.2389101701061544
40
0.2389101701061544
40
0.25820989538338479
40
0.25820989538338479
40
0.27750962066061524
40
0.27750962066061524
40
0.29635803636843761
40
0.29635803636843761
40
0.30520645207625996
40
0.30520645207625996
40
0.30520645207625996
40
0.31013109303747471
40
0.31013109303747471
40
0.31013109303747471
40
0.31013109303747471
10
110.91421356237308
20
-80.499999999999986
30
0
10
110.93565770156999
20
-80.439346815028586
30
0
10
110.95425383165049
20
-80.373027307765824
30
0
10
110.98050230365801
20
-80.249231823359693
30
0
10
110.98838216520011
20
-80.191827447893758
30
0
10
110.99718175783322
20
-80.102126967718235
30
0
10
110.99886735881427
20
-80.063631068943266
30
0
10
110.99982059255971
20
-80.026113981387482
30
0
10
110.99991860263025
20
-80.01685348717163
30
0
10
110.9999629648121
20
-80.010540597329097
30
0
10
110.99998765486114
20
-80.007027119105572
30
0
10
111
20
-80.003513564973886
30
0
10
111
20
-80
30
0
0
SPLINE
5
136
100
AcDbEntity
8
0
100
AcDbSpline
70
0
71
3
72
17
73
13
74
0
42
0.000000001
43
0.0000000001
44
0.0000000001
40
0.0050753590293334877
40
0.0050753590293334877
40
0.0050753590293334877
40
0.0050753590293334877
40
0.009999999999999112
40
0.009999999999999112
40
0.009999999999999112
40
0.018848416059130648
40
0.018848416059130648
40
0.037696832118261296
40
0.037696832118261296
40
0.056996554660659393
40
0.056996554660659393
40
0.076296277203057483
40
0.076296277203057483
40
0.076296277203057483
40
0.076296277203057483
10
110.99999999999973
20
-60.000000894069672
30
0
10
111.00000000209398
20
-59.996487329107367
30
0
10
110.99998765904948
20
-59.99297377498219
30
0
10
110.99996297109479
20
-59.989460296755524
30
0
10
110.99991861267434
20
-59.983147406668849
30
0
10
110.99982060811861
20
-59.973886911979747
30
0
10
110.99886739667664
20
-59.936369822681328
30
0
10
110.99718181855664
20
-59.89787392230717
30
0
10
110.98838227985286
20
-59.808173443329942
30
0
10
110.98050245406182
20
-59.75076907268695
30
0
10
110.95425406207926
20
-59.626973592308048
30
0
10
110.93565797628725
20
-59.56065408400336
30
0
10
110.91421387847411
20
-59.500000894069686
30
0
0
LINE
5
137
100
AcDbEntity
8
0
100
AcDbLine
10
115.00000000000001
20
45.000000000000028
30
0
11
95.000000000000014
21
45.000000000000028
31
0
0
LINE
5
138
100
AcDbEntity
8
0
100
AcDbLine
10
95.000000000000014
20
-11.499999999999988
30
0
11
115.00000000000001
21
-11.499999999999988
31
0
0
LINE
5
139
100
AcDbEntity
8
0
100
AcDbLine
10
111
20
-79.999999999999986
30
0
11
110.99999999999973
21
-60.000000894069672
31
0
0
LINE
5
140
100
AcDbEntity
8
0
100
AcDbLine
10
62.000000000000014
20
-60
30
0
11
62.000000000000014
21
-80
31
0
0
SPLINE
5
141
100
AcDbEntity
8
0
100
AcDbSpline
70
0
71
3
72
17
73
13
74
0
42
0.000000001
43
0.0000000001
44
0.0000000001
40
0.005075359037913456
40
0.005075359037913456
40
0.005075359037913456
40
0.005075359037913456
40
0.0099999999999999898
40
0.0099999999999999898
40
0.0099999999999999898
40
0.018848415707822232
40
0.018848415707822232
40
0.037696831415644463
40
0.037696831415644463
40
0.056996556692874935
40
0.056996556692874935
40
0.076296281970105406
40
0.076296281970105406
40
0.076296281970105406
40
0.076296281970105406
10
-115.00000000000001
20
45.000000000000028
30
0
10
-115.00351356497454
20
45.000000000000028
30
0
10
-115.00702711910495
20
44.999987654861194
30
0
10
-115.01054059732911
20
44.999962964812141
30
0
10
-115.01685348717167
20
44.999918602630295
30
0
10
-115.02611398138752
20
44.999820592559757
30
0
10
-115.06363106894332
20
44.998867358814316
30
0
10
-115.10212696771828
20
44.997181757833246
30
0
10
-115.19182744789379
20
44.988382165200164
30
0
10
-115.24923182335974
20
44.980502303658021
30
0
10
-115.37302730776587
20
44.954253831650497
30
0
10
-115.43934681502861
20
44.935657701570037
30
0
10
-115.50000000000003
20
44.914213562373106
30
0
0
SPLINE
5
142
100
AcDbEntity
8
0
100
AcDbSpline
70
0
71
3
72
17
73
13
74
0
42
0.000000001
43
0.0000000001
44
0.0000000001
40
0.23891017010615373
40
0.23891017010615373
40
0.23891017010615373
40
0.23891017010615373
40
0.25820989538338424
40
0.25820989538338424
40
0.27750962066061469
40
0.27750962066061469
40
0.29635803636843694
40
0.29635803636843694
40
0.30520645207625913
40
0.30520645207625913
40
0.30520645207625913
40
0.31013109303835962
40
0.31013109303835962
40
0.31013109303835962
40
0.31013109303835962
10
-94.500000000000028
20
44.914213562373114
30
0
10
-94.560653184971414
20
44.935657701570037
30
0
10
-94.626972692234119
20
44.954253831650504
30
0
10
-94.750768176640264
20
44.980502303658028
30
0
10
-94.808172552106242
20
44.988382165200164
30
0
10
-94.897873032281765
20
44.997181757833246
30
0
10
-94.93636893105672
20
44.998867358814316
30
0
10
-94.973886018612518
20
44.999820592559757
30
0
10
-94.983146512828384
20
44.999918602630295
30
0
10
-94.989459402670917
20
44.999962964812141
30
0
10
-94.992972880895081
20
44.999987654861194
30
0
10
-94.996486435025503
20
45.000000000000028
30
0
10
-95.000000000000014
20
45.000000000000028
30
0
0
SPLINE
5
143
100
AcDbEntity
8
0
100
AcDbSpline
70
0
71
3
72
17
73
13
74
0
42
0.000000001
43
0.0000000001
44
0.0000000001
40
0.0050753590381209307
40
0.0050753590381209307
40
0.0050753590381209307
40
0.0050753590381209307
40
0.01
40
0.01
40
0.01
40
0.018848415707822246
40
0.018848415707822246
40
0.037696831415644491
40
0.037696831415644491
40
0.056996556692874921
40
0.056996556692874921
40
0.076296281970105351
40
0.076296281970105351
40
0.076296281970105351
40
0.076296281970105351
10
-95.000000000000014
20
-11.499999999999988
30
0
10
-94.996486435025659
20
-11.499999999999988
30
0
10
-94.992972880894925
20
-11.499987654861156
30
0
10
-94.989459402670917
20
-11.4999629648121
30
0
10
-94.983146512828384
20
-11.499918602630251
30
0
10
-94.973886018612518
20
-11.499820592559708
30
0
10
-94.93636893105672
20
-11.498867358814271
30
0
10
-94.897873032281765
20
-11.497181757833204
30
0
10
-94.808172552106242
20
-11.488382165200125
30
0
10
-94.750768176640307
20
-11.480502303657998
30
0
10
-94.626972692234176
20
-11.454253831650478
30
0
10
-94.560653184971414
20
-11.435657701570005
30
0
10
-94.500000000000014
20
-11.414213562373083
30
0
0
SPLINE
5
144
100
AcDbEntity
8
0
100
AcDbSpline
70
0
71
3
72
17
73
13
74
0
42
0.000000001
43
0.0000000001
44
0.0000000001
40
0.2389101701061544
40
0.2389101701061544
40
0.2389101701061544
40
0.2389101701061544
40
0.25820989538338479
40
0.25820989538338479
40
0.27750962066061524
40
0.27750962066061524
40
0.29635803636843749
40
0.29635803636843749
40
0.30520645207625974
40
0.30520645207625974
40
0.30520645207625974
40
0.31013109303812481
40
0.31013109303812481
40
0.31013109303812481
40
0.31013109303812481
10
-115.50000000000003
20
-11.414213562373083
30
0
10
-115.43934681502861
20
-11.435657701570005
30
0
10
-115.37302730776587
20
-11.454253831650478
30
0
10
-115.24923182335974
20
-11.480502303657998
30
0
10
-115.19182744789379
20
-11.488382165200125
30
0
10
-115.10212696771828
20
-11.497181757833204
30
0
10
-115.06363106894332
20
-11.498867358814271
30
0
10
-115.02611398138752
20
-11.499820592559708
30
0
10
-115.01685348717167
20
-11.499918602630251
30
0
10
-115.01054059732911
20
-11.4999629648121
30
0
10
-115.00702711910512
20
-11.499987654861156
30
0
10
-115.00351356497438
20
-11.499999999999988
30
0
10
-115.00000000000001
20
-11.499999999999988
30
0
0
SPLINE
5
145
100
AcDbEntity
8
0
100
AcDbSpline
70
0
71
3
72
17
73
13
74
0
42
0.000000001
43
0.0000000001
44
0.0000000001
40
0.0050753590387851433
40
0.0050753590387851433
40
0.0050753590387851433
40
0.0050753590387851433
40
0.0099999999999999967
40
0.0099999999999999967
40
0.0099999999999999967
40
0.01884841570782236
40
0.01884841570782236
40
0.03769683141564472
40
0.03769683141564472
40
0.056996556692875136
40
0.056996556692875136
40
0.076296281970105545
40
0.076296281970105545
40
0.076296281970105545
40
0.076296281970105545
10
-111
20
-80
30
0
10
-111
20
-80.003513564973886
30
0
10
-110.99998765486114
20
-80.007027119105572
30
0
10
-110.9999629648121
20
-80.010540597329097
30
0
10
-110.99991860263025
20
-80.01685348717163
30
0
10
-110.9998205925597
20
-80.026113981387482
30
0
10
-110.99886735881427
20
-80.063631068943266
30
0
10
-110.99718175783322
20
-80.102126967718235
30
0
10
-110.98838216520014
20
-80.191827447893772
30
0
10
-110.98050230365801
20
-80.249231823359708
30
0
10
-110.95425383165049
20
-80.373027307765867
30
0
10
-110.93565770157001
20
-80.4393468150286
30
0
10
-110.91421356237308
20
-80.5
30
0
0
SPLINE
5
146
100
AcDbEntity
8
0
100
AcDbSpline
70
0
71
3
72
17
73
13
74
0
42
0.000000001
43
0.0000000001
44
0.0000000001
40
0.23891012834080499
40
0.23891012834080499
40
0.23891012834080499
40
0.23891012834080499
40
0.25820985088320308
40
0.25820985088320308
40
0.27750957342560117
40
0.27750957342560117
40
0.2963579894847318
40
0.2963579894847318
40
0.30520640554386336
40
0.30520640554386336
40
0.30520640554386336
40
0.31013104651452889
40
0.31013104651452889
40
0.31013104651452889
40
0.31013104651452889
10
-110.91421387847411
20
-59.500000894069686
30
0
10
-110.93565797628725
20
-59.56065408400336
30
0
10
-110.95425406207926
20
-59.626973592308048
30
0
10
-110.98050245406182
20
-59.75076907268695
30
0
10
-110.98838227985286
20
-59.808173443329942
30
0
10
-110.99718181855663
20
-59.89787392230717
30
0
10
-110.99886739667664
20
-59.936369822681328
30
0
10
-110.99982060811863
20
-59.973886911979747
30
0
10
-110.99991861267434
20
-59.983147406668849
30
0
10
-110.99996297109479
20
-59.989460296755524
30
0
10
-110.99998765904948
20
-59.99297377498219
30
0
10
-111.00000000209398
20
-59.996487329107367
30
0
10
-110.99999999999973
20
-60.000000894069672
30
0
0
SPLINE
5
147
100
AcDbEntity
8
0
100
AcDbSpline
70
0
71
3
72
17
73
13
74
0
42
0.000000001
43
0.0000000001
44
0.0000000001
40
0.0050753590379202978
40
0.0050753590379202978
40
0.0050753590379202978
40
0.0050753590379202978
40
0.0099999999999999985
40
0.0099999999999999985
40
0.0099999999999999985
40
0.018848415707822207
40
0.018848415707822207
40
0.037696831415644415
40
0.037696831415644415
40
0.056996556692874747
40
0.056996556692874747
40
0.076296281970105073
40
0.076296281970105073
40
0.076296281970105073
40
0.076296281970105073
10
-62.000000000000014
20
-60
30
0
10
-62.000000000000014
20
-59.996486435025496
30
0
10
-62.000012345138842
20
-59.992972880895067
30
0
10
-62.000037035187894
20
-59.989459402670917
30
0
10
-62.00008139736974
20
-59.983146512828384
30
0
10
-62.000179407440292
20
-59.973886018612525
30
0
10
-62.001132641185734
20
-59.936368931056734
30
0
10
-62.002818242166796
20
-59.897873032281765
30
0
10
-62.011617834799878
20
-59.808172552106242
30
0
10
-62.019497696342
20
-59.750768176640292
30
0
10
-62.045746168349524
20
-59.626972692234155
30
0
10
-62.064342298429992
20
-59.560653184971414
30
0
10
-62.085786437626915
20
-59.5
30
0
0
SPLINE
5
148
100
AcDbEntity
8
0
100
AcDbSpline
70
0
71
3
72
17
73
13
74
0
42
0.000000001
43
0.0000000001
44
0.0000000001
40
0.23891017010615456
40
0.23891017010615456
40
0.23891017010615456
40
0.23891017010615456
40
0.25820989538338501
40
0.25820989538338501
40
0.27750962066061541
40
0.27750962066061541
40
0.29635803636843777
40
0.29635803636843777
40
0.30520645207626013
40
0.30520645207626013
40
0.30520645207626013
40
0.31013109303836067
40
0.31013109303836067
40
0.31013109303836067
40
0.31013109303836067
10
-62.085786437626922
20
-80.5
30
0
10
-62.064342298429992
20
-80.4393468150286
30
0
10
-62.045746168349524
20
-80.373027307765824
30
0
10
-62.019497696341986
20
-80.249231823359693
30
0
10
-62.011617834799878
20
-80.191827447893772
30
0
10
-62.002818242166796
20
-80.102126967718235
30
0
10
-62.001132641185734
20
-80.063631068943266
30
0
10
-62.000179407440299
20
-80.026113981387482
30
0
10
-62.00008139736974
20
-80.01685348717163
30
0
10
-62.000037035187894
20
-80.010540597329097
30
0
10
-62.000012345138842
20
-80.007027119104933
30
0
10
-62.000000000000014
20
-80.003513564974526
30
0
10
-62.000000000000014
20
-80
30
0
0
LINE
5
149
100
AcDbEntity
8
0
100
AcDbLine
10
-95.000000000000014
20
45.000000000000028
30
0
11
-115.00000000000001
21
45.000000000000028
31
0
0
LINE
5
150
100
AcDbEntity
8
0
100
AcDbLine
10
-115.00000000000001
20
-11.499999999999988
30
0
11
-95.000000000000014
21
-11.499999999999988
31
0
0
LINE
5
151
100
AcDbEntity
8
0
100
AcDbLine
10
-62.000000000000014
20
-79.999999999999986
30
0
11
-62.000000000000014
21
-60
31
0
0
LINE
5
152
100
AcDbEntity
8
0
100
AcDbLine
10
-110.99999999999973
20
-60.000000894069672
30
0
11
-111
21
-80
31
0
0
ARC
5
153
100
AcDbEntity
8
0
100
AcDbCircle
10
-115.00000000000003
20
43.500000000000021
30
0
40
1.4999999999999938
210
0
220
0
230
1
100
AcDbArc
50
109.47122063449075
51
270.00000000000051
0
LINE
5
154
100
AcDbEntity
8
0
100
AcDbLine
10
-95.000000000000014
20
42.000000000000021
30
0
11
-115.00000000000001
21
42.000000000000028
31
0
0
ARC
5
155
100
AcDbEntity
8
0
100
AcDbCircle
10
-95
20
43.500000000000021
30
0
40
1.5000000000000036
210
0
220
0
230
1
100
AcDbArc
50
-90.000000000000568
51
70.528779365510289
0
ARC
5
156
100
AcDbEntity
8
0
100
AcDbCircle
10
-95.000000000000014
20
-9.9999999999999893
30
0
40
1.5000000000000009
210
-0
220
0
230
1
100
AcDbArc
50
-70.528779365509266
51
90
0
LINE
5
157
100
AcDbEntity
8
0
100
AcDbLine
10
-115.00000000000001
20
-8.4999999999999822
30
0
11
-95.000000000000014
21
-8.4999999999999911
31
0
0
ARC
5
158
100
AcDbEntity
8
0
100
AcDbCircle
10
-115.00000000000001
20
-9.9999999999999893
30
0
40
1.500000000000008
210
0
220
-0
230
1
100
AcDbArc
50
90
51
250.52877936550877
0
ARC
5
159
100
AcDbEntity
8
0
100
AcDbCircle
10
-109.5
20
-80.000000000000014
30
0
40
1.4999999999999771
210
0
220
0
230
1
100
AcDbArc
50
-160.52877936550942
51
0
0
LINE
5
160
100
AcDbEntity
8
0
100
AcDbLine
10
-107.99999999999999
20
-60
30
0
11
-107.99999999999999
21
-80
31
0
0
ARC
5
161
100
AcDbEntity
8
0
100
AcDbCircle
10
-109.5
20
-60
30
0
40
1.5000000000000036
210
0
220
0
230
1
100
AcDbArc
50
0
51
160.52881558805356
0
ARC
5
162
100
AcDbEntity
8
0
100
AcDbCircle
10
-63.500000000000007
20
-60.000000000000007
30
0
40
1.5000000000000082
210
0
220
-0
230
1
100
AcDbArc
50
19.471220634490884
51
180
0
LINE
5
163
100
AcDbEntity
8
0
100
AcDbLine
10
-65
20
-80
30
0
11
-65.000000000000014
21
-60
31
0
0
ARC
5
164
100
AcDbEntity
8
0
100
AcDbCircle
10
-63.500000000000014
20
-80
30
0
40
1.4999999999999858
210
0
220
0
230
1
100
AcDbArc
50
180
51
340.52877936550925
0
CIRCLE
5
165
100
AcDbEntity
8
0
100
AcDbCircle
10
-85.534710963958943
20
13.499999999999996
30
0
40
1.5000000000000036
210
0
220
-0
230
1
0
CIRCLE
5
166
100
AcDbEntity
8
0
100
AcDbCircle
10
-66.036474392410966
20
-36.500000543892384
30
0
40
1.5000000000000036
210
0
220
-0
230
1
0
CIRCLE
5
167
100
AcDbEntity
8
0
100
AcDbCircle
10
-66.036474392410966
20
13.499999999999996
30
0
40
1.4999999999999947
210
0
220
-0
230
1
0
CIRCLE
5
168
100
AcDbEntity
8
0
100
AcDbCircle
10
-85.534710963958943
20
-36.500000543892384
30
0
40
1.5000000000000036
210
0
220
-0
230
1
0
LINE
5
169
100
AcDbEntity
8
0
100
AcDbLine
10
-37.000000551342964
20
-50.00000074505806
30
0
11
-53.000001162290573
21
-50.00000074505806
31
0
0
LINE
5
170
100
AcDbEntity
8
0
100
AcDbLine
10
-37.000000551342964
20
-50.00000074505806
30
0
11
-37.000000551342964
21
-59.5
31
0
0
SPLINE
5
171
100
AcDbEntity
8
0
100
AcDbSpline
70
4
71
5
72
56
73
50
74
0
42
0.000000001
43
0.0000000001
44
0.0000000001
40
0
40
0
40
0
40
0
40
0
40
0
40
0.022222222222222223
40
0.044444444444444446
40
0.066666666666666666
40
0.088888888888888892
40
0.11111111111111112
40
0.13333333333333333
40
0.15555555555555556
40
0.17777777777777778
40
0.20000000000000001
40
0.22222222222222224
40
0.24444444444444446
40
0.26666666666666666
40
0.28888888888888886
40
0.31111111111111106
40
0.33333333333333326
40
0.35555555555555546
40
0.37777777777777766
40
0.39999999999999986
40
0.42222222222222205
40
0.44444444444444425
40
0.46666666666666645
40
0.48888888888888865
40
0.51111111111111085
40
0.5333333333333331
40
0.55555555555555536
40
0.57777777777777761
40
0.59999999999999987
40
0.62222222222222212
40
0.64444444444444438
40
0.66666666666666663
40
0.68888888888888888
40
0.71111111111111114
40
0.73333333333333339
40
0.75555555555555565
40
0.7777777777777779
40
0.80000000000000016
40
0.82222222222222241
40
0.84444444444444466
40
0.86666666666666692
40
0.88888888888888917
40
0.91111111111111143
40
0.93333333333333368
40
0.95555555555555594
40
0.97777777777777819
40
1
40
1
40
1
40
1
40
1
40
1
41
1
41
1
41
1
41
1
41
1
41
1
41
1
41
1
41
1
41
1
41
1
41
1
41
1
41
1
41
1
41
1
41
1
41
1
41
1
41
1
41
1
41
1
41
1
41
1
41
1
41
1
41
1
41
1
41
1
41
1
41
1
41
1
41
1
41
1
41
1
41
1
41
1
41
1
41
1
41
1
41
1
41
1
41
1
41
1
41
1
41
1
41
1
41
1
41
1
41
1
10
-37.000000551342964
20
-59.5
30
0
10
-37.006200825919578
20
-59.935676598779828
30
0
10
-37.029146749700644
20
-60.791153610065429
30
0
10
-37.095214673247419
20
-62.026759184290015
30
0
10
-37.246542171499797
20
-63.578775264842555
30
0
10
-37.546945712003726
20
-65.371313087392934
30
0
10
-37.973548246934364
20
-67.048990560925247
30
0
10
-38.55974380418013
20
-68.683298328995861
30
0
10
-39.348882054700283
20
-70.375422011829386
30
0
10
-40.373934770093967
20
-72.216896624853661
30
0
10
-41.619959678349005
20
-74.24224890541764
30
0
10
-43.037763935722317
20
-76.417988178738938
30
0
10
-44.644038866176246
20
-78.733084382058578
30
0
10
-46.464150757804902
20
-81.165128922540816
30
0
10
-48.522566228745923
20
-83.684316129079846
30
0
10
-50.816383557854039
20
-86.243038902417638
30
0
10
-53.289062921242603
20
-88.768390054169416
30
0
10
-55.831060584585863
20
-91.165870846197365
30
0
10
-58.315173473001927
20
-93.339869061095499
30
0
10
-60.62151638347693
20
-95.208787136908839
30
0
10
-62.668412921661201
20
-96.723834392589538
30
0
10
-64.43698734450733
20
-97.883039678192176
30
0
10
-66.008606783606439
20
-98.755972011300287
30
0
10
-67.534516871492457
20
-99.451421222879176
30
0
10
-69.18667644522435
20
-100.07065032560382
30
0
10
-71.109815617533812
20
-100.65842896735367
30
0
10
-73.388530148880221
20
-101.17621892549828
30
0
10
-76.065163783184929
20
-101.54336136738763
30
0
10
-79.148362172596933
20
-101.66690246910221
30
0
10
-82.624328122090361
20
-101.47276797484156
30
0
10
-86.468947433818428
20
-100.9439742151645
30
0
10
-90.650604854189311
20
-100.12475552058218
30
0
10
-95.123227385927422
20
-99.092650839465307
30
0
10
-99.822974315942929
20
-97.940813622884093
30
0
10
-104.66136075899823
20
-96.753897625615224
30
0
10
-109.5244176084873
20
-95.59200890412248
30
0
10
-114.25848902415163
20
-94.458790883781333
30
0
10
-118.6865882997469
20
-93.304984394485743
30
0
10
-122.55008988859473
20
-91.945617526293006
30
0
10
-125.71116060142043
20
-90.276939811970919
30
0
10
-128.1570701425934
20
-88.296254824397835
30
0
10
-129.94909920175252
20
-86.055182512124077
30
0
10
-131.19486143233516
20
-83.641148695465546
30
0
10
-132.01317178878438
20
-81.148777267542954
30
0
10
-132.49622688360461
20
-78.650967011262452
30
0
10
-132.69702554827001
20
-76.189067131737971
30
0
10
-132.65418634100993
20
-74.265341954466294
30
0
10
-132.51179350212061
20
-72.851322411406201
30
0
10
-132.36791839965042
20
-71.921437227287001
30
0
10
-132.28374305435352
20
-71.459692327612046
30
0
0
SPLINE
5
172
100
AcDbEntity
8
0
100
AcDbSpline
70
4
71
5
72
46
73
40
74
0
42
0.000000001
43
0.0000000001
44
0.0000000001
40
0
40
0
40
0
40
0
40
0
40
0
40
0.028571428571428571
40
0.057142857142857141
40
0.085714285714285715
40
0.11428571428571428
40
0.14285714285714285
40
0.17142857142857143
40
0.20000000000000001
40
0.22857142857142859
40
0.25714285714285717
40
0.28571428571428575
40
0.31428571428571433
40
0.34285714285714292
40
0.3714285714285715
40
0.40000000000000008
40
0.42857142857142866
40
0.45714285714285724
40
0.48571428571428582
40
0.51428571428571435
40
0.54285714285714293
40
0.57142857142857151
40
0.60000000000000009
40
0.62857142857142867
40
0.65714285714285725
40
0.68571428571428583
40
0.71428571428571441
40
0.74285714285714299
40
0.77142857142857157
40
0.80000000000000016
40
0.82857142857142874
40
0.85714285714285732
40
0.8857142857142859
40
0.91428571428571448
40
0.94285714285714306
40
0.97142857142857164
40
1
40
1
40
1
40
1
40
1
40
1
41
1
41
1
41
1
41
1
41
1
41
1
41
1
41
1
41
1
41
1
41
1
41
1
41
1
41
1
41
1
41
1
41
1
41
1
41
1
41
1
41
1
41
1
41
1
41
1
41
1
41
1
41
1
41
1
41
1
41
1
41
1
41
1
41
1
41
1
41
1
41
1
41
1
41
1
41
1
41
1
10
-132.28374305435349
20
-71.459692327612046
30
0
10
-132.13107847015871
20
-70.758451357593259
30
0
10
-131.82542914282769
20
-69.354671851861312
30
0
10
-131.36599468928179
20
-67.245109931757369
30
0
10
-130.75149181052925
20
-64.424564728461092
30
0
10
-129.98044164835861
20
-60.885197878951125
30
0
10
-129.20734797189897
20
-57.330165933290367
30
0
10
-128.43399409628699
20
-53.755591391659848
30
0
10
-127.66336910930421
20
-50.155046188796454
30
0
10
-126.90001493446637
20
-46.51898981048322
30
0
10
-126.15126426195992
20
-42.836001946628883
30
0
10
-125.42841532711884
20
-39.093927424485528
30
0
10
-124.7480115016924
20
-35.281047804459597
30
0
10
-124.13295742276007
20
-31.387261752460333
30
0
10
-123.61411898396196
20
-27.405243880432828
30
0
10
-123.22527325528588
20
-23.332021663423316
30
0
10
-122.99767046965613
20
-19.170522365044761
30
0
10
-122.95445095459979
20
-14.931337292221006
30
0
10
-123.10566825600648
20
-10.634068631961631
30
0
10
-123.44151579262471
20
-6.3098247971697958
30
0
10
-123.93107846438468
20
-2.0002188830403016
30
0
10
-124.53262032536568
20
2.2509972821955579
30
0
10
-125.20106378903986
20
6.4044456989187442
30
0
10
-125.89714688027151
20
10.432976712116904
30
0
10
-126.59448723657583
20
14.327674619157245
30
0
10
-127.2910659781445
20
18.108123061864305
30
0
10
-128.00319967543444
20
21.815745559279382
30
0
10
-128.74865109011213
20
25.49661023863478
30
0
10
-129.53216896865041
20
29.186648663529986
30
0
10
-130.33182433892117
20
32.897583732680495
30
0
10
-131.08038651244578
20
36.598240136747684
30
0
10
-131.66455938352235
20
40.212572544687674
30
0
10
-131.95021514014073
20
43.642107356367717
30
0
10
-131.80211945777603
20
46.783101330776198
30
0
10
-131.10396969574742
20
49.544201952057428
30
0
10
-129.78323173495062
20
51.86799143560939
30
0
10
-128.20231404452713
20
53.356304247790973
30
0
10
-126.71736117759052
20
54.260488594088358
30
0
10
-125.59458870481595
20
54.769180519777692
30
0
10
-125
20
55.000000819563944
30
0
0
LINE
5
173
100
AcDbEntity
8
0
100
AcDbLine
10
-51.166667242844753
20
55.000000819563923
30
0
11
-125
21
55.000000819563937
31
0
0
ARC
5
174
100
AcDbEntity
8
0
100
AcDbCircle
10
-51.166667242844817
20
42.500000819563859
30
0
40
12.500000000000062
210
0
220
-0
230
1
100
AcDbArc
50
0
51
89.999999999999716
0
LINE
5
175
100
AcDbEntity
8
0
100
AcDbLine
10
-38.666667242844767
20
27.000000000000203
30
0
11
-38.666667242844753
21
42.500000819563873
31
0
0
LINE
5
176
100
AcDbEntity
8
0
100
AcDbLine
10
-53.000001162290928
20
27.000000000000131
30
0
11
-38.666667242844767
21
27.000000000000203
31
0
0
LINE
5
177
100
AcDbEntity
8
0
100
AcDbLine
10
-53.0000011622908
20
0
30
0
11
-53.000001162290928
21
27.000000000000131
31
0
0
LINE
5
178
100
AcDbEntity
8
0
100
AcDbLine
10
-37.284003636256102
20
0
30
0
11
-53.0000011622908
21
0
31
0
0
LINE
5
179
100
AcDbEntity
8
0
100
AcDbLine
10
-37.284003636256102
20
-23.000000342726707
30
0
11
-37.284003636256102
21
0
31
0
0
LINE
5
180
100
AcDbEntity
8
0
100
AcDbLine
10
-53.000001162290573
20
-23.000000342726707
30
0
11
-37.284003636256102
21
-23.000000342726707
31
0
0
LINE
5
181
100
AcDbEntity
8
0
100
AcDbLine
10
-53.000001162290573
20
-50.00000074505806
30
0
11
-53.000001162290573
21
-23.000000342726707
31
0
0
ENDSEC
0
SECTION
2
OBJECTS
0
DICTIONARY
5
C
100
AcDbDictionary
3
ACAD_GROUP
350
D
3
ACAD_MLINESTYLE
350
17
0
DICTIONARY
5
D
100
AcDbDictionary
0
DICTIONARY
5
1A
330
C
100
AcDbDictionary
0
DICTIONARY
5
17
100
AcDbDictionary
0
ENDSEC
0
EOF
