0
SECTION
2
HEADER
9
$INSUNITS
70
4
9
$ACADVER
1
AC1014
9
$HANDSEED
5
FFFF
0
ENDSEC
0
SECTION
2
TABLES
0
TABLE
2
VPORT
5
8
100
AcDbSymbolTable
0
ENDTAB
0
TABLE
2
LTYPE
5
5
100
AcDbSymbolTable
0
LTYPE
5
14
100
AcDbSymbolTableRecord
100
AcDbLinetypeTableRecord
2
BYBLOCK
70
0
0
LTYPE
5
15
100
AcDbSymbolTableRecord
100
AcDbLinetypeTableRecord
2
BYLAYER
70
0
0
ENDTAB
0
TABLE
2
LAYER
5
2
100
AcDbSymbolTable
70
2
0
LAYER
5
50
100
AcDbSymbolTableRecord
100
AcDbLayerTableRecord
2
0
70
0
6
CONTINUOUS
0
ENDTAB
0
TABLE
2
STYLE
5
3
100
AcDbSymbolTable
70
1
0
STYLE
5
11
100
AcDbSymbolTableRecord
100
AcDbTextStyleTableRecord
2
STANDARD
70
0
0
ENDTAB
0
TABLE
2
VIEW
5
6
100
AcDbSymbolTable
70
0
0
ENDTAB
0
TABLE
2
UCS
5
7
100
AcDbSymbolTable
70
0
0
ENDTAB
0
TABLE
2
APPID
5
9
100
AcDbSymbolTable
70
2
0
APPID
5
12
100
AcDbSymbolTableRecord
100
AcDbRegAppTableRecord
2
ACAD
70
0
0
ENDTAB
0
TABLE
2
DIMSTYLE
5
A
100
AcDbSymbolTable
70
1
0
ENDTAB
0
TABLE
2
BLOCK_RECORD
5
1
100
AcDbSymbolTable
70
1
0
BLOCK_RECORD
5
1F
100
AcDbSymbolTableRecord
100
AcDbBlockTableRecord
2
*MODEL_SPACE
0
BLOCK_RECORD
5
1B
100
AcDbSymbolTableRecord
100
AcDbBlockTableRecord
2
*PAPER_SPACE
0
ENDTAB
0
ENDSEC
0
SECTION
2
BLOCKS
0
BLOCK
5
20
100
AcDbEntity
100
AcDbBlockBegin
2
*MODEL_SPACE
0
ENDBLK
5
21
100
AcDbEntity
100
AcDbBlockEnd
0
BLOCK
5
1C
100
AcDbEntity
100
AcDbBlockBegin
2
*PAPER_SPACE
0
ENDBLK
5
1D
100
AcDbEntity
100
AcDbBlockEnd
0
ENDSEC
0
SECTION
2
ENTITIES
0
LWPOLYLINE
5
100
100
AcDbEntity
8
OUTER_PROFILES
100
AcDbPolyline
90
22
70
1
43
0.0
10
-63.212843822485254
20
140.68212877298771
42
-4.7912878474778413
10
-63.212843822485254
20
136.68212877298762
10
-76.948230016470674
20
136.68212877298765
10
-76.948230016470674
20
76.948230016469267
10
-9.2370555648813024e-13
20
76.948230016469267
10
3.5527136788005136e-14
20
76.100000000000051
10
0
20
0
10
106.30569671058427
20
7.9936057773011271e-14
10
106.30569671058427
20
76.100000000000051
10
89.550000000000011
20
76.100000000000051
10
89.550000000000011
20
76.948230016469267
10
167.49823001644057
20
76.948230016469211
10
167.49823001644063
20
169.0232300164692
10
89.550000000000011
20
169.02323001646926
10
89.550000000000011
20
169.8714600329385
10
106.30569671058521
20
169.8714600329385
10
106.30569671058518
20
245.97146003293852
10
0
20
245.97146003293852
10
0
20
169.8714600329385
10
-1.8474111129762605e-12
20
169.02323001646926
10
-76.948230016470674
20
169.02323001646926
10
-76.948230016470688
20
140.68212877298771
0
CIRCLE
5
101
100
AcDbEntity
8
INTERIOR_PROFILES
100
AcDbCircle
10
45.486333243851973
20
122.8195018808116
30
0
40
2.2500000000000142
210
0
220
0
230
-1
0
CIRCLE
5
102
100
AcDbEntity
8
INTERIOR_PROFILES
100
AcDbCircle
10
45.486333243851973
20
92.8195018808116
30
0
40
2.2500000000000142
210
0
220
0
230
-1
0
CIRCLE
5
103
100
AcDbEntity
8
INTERIOR_PROFILES
100
AcDbCircle
10
71.774203011206879
20
104.81950188081157
30
0
40
2.2500000000000142
210
0
220
0
230
-1
0
CIRCLE
5
104
100
AcDbEntity
8
INTERIOR_PROFILES
100
AcDbCircle
10
45.486333243851973
20
104.81950188081156
30
0
40
2.2500000000000142
210
0
220
0
230
-1
0
CIRCLE
5
105
100
AcDbEntity
8
INTERIOR_PROFILES
100
AcDbCircle
10
65.344076593292797
20
114.17180276755275
30
0
40
2.2500000000000142
210
0
220
0
230
-1
0
CIRCLE
5
106
100
AcDbEntity
8
INTERIOR_PROFILES
100
AcDbCircle
10
65.344076593292797
20
155.68728317580246
30
0
40
2.2500000000000142
210
0
220
0
230
-1
0
CIRCLE
5
107
100
AcDbEntity
8
INTERIOR_PROFILES
100
AcDbCircle
10
51.916459661766126
20
149.68728317580243
30
0
40
2.2500000000000142
210
0
220
0
230
-1
0
CIRCLE
5
108
100
AcDbEntity
8
INTERIOR_PROFILES
100
AcDbCircle
10
51.916459661766126
20
126.1718027675529
30
0
40
2.2500000000000142
210
0
220
0
230
-1
0
CIRCLE
5
109
100
AcDbEntity
8
INTERIOR_PROFILES
100
AcDbCircle
10
58.630268127529462
20
111.42954297167762
30
0
40
2.2500000000000142
210
0
220
0
230
-1
0
CIRCLE
5
110
100
AcDbEntity
8
INTERIOR_PROFILES
100
AcDbCircle
10
51.916459661766126
20
120.17180276755275
30
0
40
2.2500000000000142
210
0
220
0
230
-1
0
CIRCLE
5
111
100
AcDbEntity
8
INTERIOR_PROFILES
100
AcDbCircle
10
51.916459661766126
20
108.17180276755279
30
0
40
2.2500000000000142
210
0
220
0
230
-1
0
CIRCLE
5
112
100
AcDbEntity
8
INTERIOR_PROFILES
100
AcDbCircle
10
45.486333243851973
20
116.81950188081159
30
0
40
2.2500000000000142
210
0
220
0
230
-1
0
CIRCLE
5
113
100
AcDbEntity
8
INTERIOR_PROFILES
100
AcDbCircle
10
65.344076593292797
20
126.17180276755292
30
0
40
2.2500000000000142
210
0
220
0
230
-1
0
CIRCLE
5
114
100
AcDbEntity
8
INTERIOR_PROFILES
100
AcDbCircle
10
45.486333243851973
20
153.03958406254367
30
0
40
2.2500000000000142
210
0
220
0
230
-1
0
CIRCLE
5
115
100
AcDbEntity
8
INTERIOR_PROFILES
100
AcDbCircle
10
58.630268127529462
20
158.42954297167768
30
0
40
2.2500000000000142
210
0
220
0
230
-1
0
CIRCLE
5
116
100
AcDbEntity
8
INTERIOR_PROFILES
100
AcDbCircle
10
71.77420301120695
20
153.0395840625437
30
0
40
2.2500000000000142
210
0
220
0
230
-1
0
CIRCLE
5
117
100
AcDbEntity
8
INTERIOR_PROFILES
100
AcDbCircle
10
71.774203011206879
20
116.8195018808116
30
0
40
2.2500000000000142
210
0
220
0
230
-1
0
CIRCLE
5
118
100
AcDbEntity
8
INTERIOR_PROFILES
100
AcDbCircle
10
58.630268127529462
20
99.429542971677577
30
0
40
2.2500000000000142
210
0
220
0
230
-1
0
CIRCLE
5
119
100
AcDbEntity
8
INTERIOR_PROFILES
100
AcDbCircle
10
71.774203011206879
20
122.81950188081161
30
0
40
2.2500000000000142
210
0
220
0
230
-1
0
SPLINE
5
120
100
AcDbEntity
8
INTERIOR_PROFILES
100
AcDbSpline
70
0
71
3
72
9
73
5
74
0
42
0.000000001
43
0.0000000001
44
0.0000000001
40
0.084348070134285275
40
0.084348070134285275
40
0.084348070134285275
40
0.084348070134285275
40
0.11883258010377293
40
0.22238955641921404
40
0.22238955641921404
40
0.22238955641921404
40
0.22238955641921404
10
107.25616235528121
20
85.385729480027379
30
0
10
107.23519459141917
20
85.273563417568596
30
0
10
107.12588393964113
20
84.832795187143148
30
0
10
106.8734596424075
20
84.438454680219778
30
0
10
106.68409412865094
20
84.142625421677934
30
0
0
LINE
5
121
100
AcDbEntity
8
INTERIOR_PROFILES
100
AcDbLine
10
107.25616235528121
20
85.385729480027379
30
0
11
105.66064167106965
21
85.385729480027379
31
0
0
SPLINE
5
122
100
AcDbEntity
8
INTERIOR_PROFILES
100
AcDbSpline
70
0
71
3
72
9
73
5
74
0
42
0.000000001
43
0.0000000001
44
0.0000000001
40
0
40
0
40
0
40
0
40
0.044064225728439065
40
0.071085328452733396
40
0.071085328452733396
40
0.071085328452733396
40
0.071085328452733396
10
105.41030196611337
20
84.72242066303383
30
0
10
105.47400497097256
20
84.855349856072479
30
0
10
105.57677198773008
20
85.069794004174483
30
0
10
105.63942579472422
20
85.298063166577904
30
0
10
105.66064167106965
20
85.385729480027379
30
0
0
SPLINE
5
123
100
AcDbEntity
8
INTERIOR_PROFILES
100
AcDbSpline
70
0
71
3
72
9
73
5
74
0
42
0.000000001
43
0.0000000001
44
0.0000000001
40
0
40
0
40
0
40
0
40
0.064684855718230017
40
0.13779566038904884
40
0.13779566038904884
40
0.13779566038904884
40
0.13779566038904884
10
104.32099027697495
20
83.975715130959856
30
0
10
104.54335419834237
20
84.013780025545202
30
0
10
105.01704750802514
20
84.094868206523344
30
0
10
105.27398016173883
20
84.504879370235599
30
0
10
105.41030196611337
20
84.72242066303383
30
0
0
SPLINE
5
124
100
AcDbEntity
8
INTERIOR_PROFILES
100
AcDbSpline
70
0
71
3
72
9
73
5
74
0
42
0.000000001
43
0.0000000001
44
0.0000000001
40
0
40
0
40
0
40
0
40
0.028635674090595586
40
0.056993826762479043
40
0.056993826762479043
40
0.056993826762479043
40
0.056993826762479043
10
103.77633435789994
20
84.12505635658394
30
0
10
103.86248027941805
20
84.081498720882593
30
0
10
104.03393724291624
20
83.994805586455513
30
0
10
104.22561704932738
20
83.982057925293518
30
0
10
104.32099027697495
20
83.975715130959856
30
0
0
SPLINE
5
125
100
AcDbEntity
8
INTERIOR_PROFILES
100
AcDbSpline
70
0
71
3
72
9
73
5
74
0
42
0.000000001
43
0.0000000001
44
0.0000000001
40
0.0039462239705478118
40
0.0039462239705478118
40
0.0039462239705478118
40
0.0039462239705478118
40
0.086424041249832217
40
0.15353707904486935
40
0.15353707904486935
40
0.15353707904486935
40
0.15353707904486935
10
103.03043894703713
20
85.385729480027393
30
0
10
103.09739911825439
20
85.110796327667032
30
0
10
103.22520576178883
20
84.616069143799706
30
0
10
103.60565023307423
20
84.277122659177451
30
0
10
103.77633435789994
20
84.12505635658394
30
0
0
LINE
5
126
100
AcDbEntity
8
INTERIOR_PROFILES
100
AcDbLine
10
103.03043894703713
20
85.385729480027393
30
0
11
101.49164047879799
21
85.385729480027379
31
0
0
SPLINE
5
127
100
AcDbEntity
8
INTERIOR_PROFILES
100
AcDbSpline
70
0
71
3
72
9
73
5
74
0
42
0.000000001
43
0.0000000001
44
0.0000000001
40
0
40
0
40
0
40
0
40
0.098876499842437113
40
0.10073071606457261
40
0.10073071606457261
40
0.10073071606457261
40
0.10073071606457261
10
101.90517706934861
20
84.46766266265999
30
0
10
101.74639675453859
20
84.761393911053901
30
0
10
101.58463885621839
20
85.060633457643902
30
0
10
101.49329839329121
20
85.379846858672451
30
0
10
101.49164047879799
20
85.385729480027379
30
0
0
SPLINE
5
128
100
AcDbEntity
8
INTERIOR_PROFILES
100
AcDbSpline
70
0
71
3
72
9
73
5
74
0
42
0.000000001
43
0.0000000001
44
0.0000000001
40
0
40
0
40
0
40
0
40
0.10602245726328868
40
0.20712493540735177
40
0.20712493540735177
40
0.20712493540735177
40
0.20712493540735177
10
103.57428414885453
20
83.299287647401201
30
0
10
103.23484175594143
20
83.421289194194145
30
0
10
102.57170881673733
20
83.659630797957689
30
0
10
102.12380788692009
20
84.202618022407236
30
0
10
101.90517706934861
20
84.46766266265999
30
0
0
SPLINE
5
129
100
AcDbEntity
8
INTERIOR_PROFILES
100
AcDbSpline
70
0
71
3
72
9
73
5
74
0
42
0.000000001
43
0.0000000001
44
0.0000000001
40
0
40
0
40
0
40
0
40
0.10693295155238425
40
0.24756495035114462
40
0.24756495035114462
40
0.24756495035114462
40
0.24756495035114462
10
101.70312745634965
20
81.823445648347246
30
0
10
102.06244799894252
20
81.912404336980345
30
0
10
102.8943260215329
20
82.118356319180748
30
0
10
103.3279559106906
20
82.871471989665096
30
0
10
103.57428414885453
20
83.299287647401201
30
0
0
LINE
5
130
100
AcDbEntity
8
INTERIOR_PROFILES
100
AcDbLine
10
101.70312745634965
20
81.823445648347246
30
0
11
101.70312745634965
21
81.577471584473955
31
0
0
SPLINE
5
131
100
AcDbEntity
8
INTERIOR_PROFILES
100
AcDbSpline
70
0
71
3
72
9
73
5
74
0
42
0.000000001
43
0.0000000001
44
0.0000000001
40
0
40
0
40
0
40
0
40
0.17657024236090813
40
0.39274498636078059
40
0.39274498636078059
40
0.39274498636078059
40
0.39274498636078059
10
105.07648034159592
20
83.237794131432878
30
0
10
104.69524635183591
20
82.754811528777338
30
0
10
103.84726802827151
20
81.680513882944567
30
0
10
102.46432637325847
20
81.614052994768969
30
0
10
101.70312745634965
20
81.577471584473955
30
0
0
SPLINE
5
132
100
AcDbEntity
8
INTERIOR_PROFILES
100
AcDbSpline
70
0
71
3
72
9
73
5
74
0
42
0.000000001
43
0.0000000001
44
0.0000000001
40
0
40
0
40
0
40
0
40
0.092261559576821736
40
0.1876891428160366
40
0.1876891428160366
40
0.1876891428160366
40
0.1876891428160366
10
106.68409412865094
20
84.142625421677934
30
0
10
106.46284159555361
20
83.920003425287248
30
0
10
106.01274408502607
20
83.467119994027087
30
0
10
105.39205825730198
20
83.315090916919672
30
0
10
105.07648034159592
20
83.237794131432878
30
0
0
CIRCLE
5
133
100
AcDbEntity
8
INTERIOR_PROFILES
100
AcDbCircle
10
45.486333243851973
20
147.03958406254367
30
0
40
2.2500000000000142
210
0
220
0
230
-1
0
CIRCLE
5
134
100
AcDbEntity
8
INTERIOR_PROFILES
100
AcDbCircle
10
65.344076593292726
20
90.171802767552748
30
0
40
2.2500000000000142
210
0
220
0
230
-1
0
CIRCLE
5
135
100
AcDbEntity
8
INTERIOR_PROFILES
100
AcDbCircle
10
58.630268127529462
20
87.42954297167762
30
0
40
2.2500000000000142
210
0
220
0
230
-1
0
CIRCLE
5
136
100
AcDbEntity
8
INTERIOR_PROFILES
100
AcDbCircle
10
71.77420301120695
20
147.03958406254367
30
0
40
2.2500000000000142
210
0
220
0
230
-1
0
CIRCLE
5
137
100
AcDbEntity
8
INTERIOR_PROFILES
100
AcDbCircle
10
71.774203011206879
20
110.81950188081159
30
0
40
2.2500000000000142
210
0
220
0
230
-1
0
CIRCLE
5
138
100
AcDbEntity
8
INTERIOR_PROFILES
100
AcDbCircle
10
65.344076593292797
20
120.17180276755276
30
0
40
2.2500000000000142
210
0
220
0
230
-1
0
CIRCLE
5
139
100
AcDbEntity
8
INTERIOR_PROFILES
100
AcDbCircle
10
51.916459661766126
20
102.17180276755285
30
0
40
2.2500000000000142
210
0
220
0
230
-1
0
CIRCLE
5
140
100
AcDbEntity
8
INTERIOR_PROFILES
100
AcDbCircle
10
58.630268127529462
20
152.42954297167765
30
0
40
2.2500000000000142
210
0
220
0
230
-1
0
CIRCLE
5
141
100
AcDbEntity
8
INTERIOR_PROFILES
100
AcDbCircle
10
65.344076593292797
20
108.1718027675528
30
0
40
2.2500000000000142
210
0
220
0
230
-1
0
CIRCLE
5
142
100
AcDbEntity
8
INTERIOR_PROFILES
100
AcDbCircle
10
71.774203011206879
20
128.81950188081163
30
0
40
2.2500000000000142
210
0
220
0
230
-1
0
CIRCLE
5
143
100
AcDbEntity
8
INTERIOR_PROFILES
100
AcDbCircle
10
65.344076593292797
20
149.68728317580246
30
0
40
2.2500000000000142
210
0
220
0
230
-1
0
CIRCLE
5
144
100
AcDbEntity
8
INTERIOR_PROFILES
100
AcDbCircle
10
71.774203011206879
20
92.8195018808116
30
0
40
2.2500000000000142
210
0
220
0
230
-1
0
CIRCLE
5
145
100
AcDbEntity
8
INTERIOR_PROFILES
100
AcDbCircle
10
51.916459661766126
20
90.171802767552748
30
0
40
2.2500000000000142
210
0
220
0
230
-1
0
CIRCLE
5
146
100
AcDbEntity
8
INTERIOR_PROFILES
100
AcDbCircle
10
45.486333243851973
20
128.8195018808116
30
0
40
2.2500000000000142
210
0
220
0
230
-1
0
CIRCLE
5
147
100
AcDbEntity
8
INTERIOR_PROFILES
100
AcDbCircle
10
51.916459661766126
20
155.68728317580246
30
0
40
2.2500000000000142
210
0
220
0
230
-1
0
CIRCLE
5
148
100
AcDbEntity
8
INTERIOR_PROFILES
100
AcDbCircle
10
45.486333243851973
20
110.81950188081157
30
0
40
2.2500000000000142
210
0
220
0
230
-1
0
CIRCLE
5
149
100
AcDbEntity
8
INTERIOR_PROFILES
100
AcDbCircle
10
72.185730016470671
20
79.932730536773121
30
0
40
1.3969999831169844
210
0
220
0
230
-1
0
CIRCLE
5
150
100
AcDbEntity
8
INTERIOR_PROFILES
100
AcDbCircle
10
72.185730016470671
20
166.03872949616542
30
0
40
1.3969999831169844
210
0
220
0
230
-1
0
CIRCLE
5
151
100
AcDbEntity
8
INTERIOR_PROFILES
100
AcDbCircle
10
58.630268127529462
20
117.42954297167763
30
0
40
2.2500000000000142
210
0
220
0
230
-1
0
CIRCLE
5
152
100
AcDbEntity
8
INTERIOR_PROFILES
100
AcDbCircle
10
51.916459661766126
20
114.17180276755273
30
0
40
2.2500000000000142
210
0
220
0
230
-1
0
SPLINE
5
153
100
AcDbEntity
8
INTERIOR_PROFILES
100
AcDbSpline
70
0
71
3
72
9
73
5
74
0
42
0.000000001
43
0.0000000001
44
0.0000000001
40
0
40
0
40
0
40
0
40
0.016500707304163559
40
0.032994393364722222
40
0.032994393364722222
40
0.032994393364722222
40
0.032994393364722222
10
103.11747593943528
20
87.691674024258958
30
0
10
103.09011233134216
20
87.643577656401206
30
0
10
103.03539675869062
20
87.547405386251711
30
0
10
103.01035059529114
20
87.439814020955566
30
0
10
102.99861044204206
20
87.385729480027393
30
0
0
SPLINE
5
154
100
AcDbEntity
8
INTERIOR_PROFILES
100
AcDbSpline
70
0
71
3
72
9
73
5
74
0
42
0.000000001
43
0.0000000001
44
0.0000000001
40
0
40
0
40
0
40
0
40
0.0083628661126057668
40
0.030475831548136073
40
0.030475831548136073
40
0.030475831548136073
40
0.030475831548136073
10
103.28438682619981
20
87.946432620679246
30
0
10
103.27073439175494
20
87.922112707718753
30
0
10
103.22098239444193
20
87.833486444824004
30
0
10
103.16099917619286
20
87.75130446523022
30
0
10
103.11747593943528
20
87.691674024258958
30
0
0
SPLINE
5
155
100
AcDbEntity
8
INTERIOR_PROFILES
100
AcDbSpline
70
0
71
3
72
9
73
5
74
0
42
0.000000001
43
0.0000000001
44
0.0000000001
40
0
40
0
40
0
40
0
40
0.064559495995302627
40
0.13666590036490855
40
0.13666590036490855
40
0.13666590036490855
40
0.13666590036490855
10
104.37369866434983
20
88.675568789636003
30
0
10
104.1516257950525
20
88.639004175642214
30
0
10
103.68152007069327
20
88.561600599051047
30
0
10
103.42154989652407
20
88.158901180913432
30
0
10
103.28438682619981
20
87.946432620679246
30
0
0
SPLINE
5
156
100
AcDbEntity
8
INTERIOR_PROFILES
100
AcDbSpline
70
0
71
3
72
9
73
5
74
0
42
0.000000001
43
0.0000000001
44
0.0000000001
40
0
40
0
40
0
40
0
40
0.070973763856463826
40
0.13384973513193443
40
0.13384973513193443
40
0.13384973513193443
40
0.13384973513193443
10
105.4278714782422
20
87.946432620679246
30
0
10
105.29711323484892
20
88.158860659008042
30
0
10
105.05051568536713
20
88.559479635936
30
0
10
104.59001776341105
20
88.638465258904148
30
0
10
104.37369866434983
20
88.675568789636003
30
0
0
SPLINE
5
157
100
AcDbEntity
8
INTERIOR_PROFILES
100
AcDbSpline
70
0
71
3
72
9
73
5
74
0
42
0.000000001
43
0.0000000001
44
0.0000000001
40
0
40
0
40
0
40
0
40
0.02077118544496909
40
0.028507876251875917
40
0.028507876251875917
40
0.028507876251875917
40
0.028507876251875917
10
105.58599738542489
20
87.7092436853994
30
0
10
105.5483821520755
20
87.767381529411324
30
0
10
105.49675628698702
20
87.84717410875318
30
0
10
105.44257548796833
20
87.925245102685722
30
0
10
105.4278714782422
20
87.946432620679246
30
0
0
SPLINE
5
158
100
AcDbEntity
8
INTERIOR_PROFILES
100
AcDbSpline
70
0
71
3
72
9
73
5
74
0
42
0.000000001
43
0.0000000001
44
0.0000000001
40
0
40
0
40
0
40
0
40
0.017316552026999533
40
0.032148582467264861
40
0.032148582467264861
40
0.032148582467264861
40
0.032148582467264861
10
105.7001994377797
20
87.410561234151231
30
0
10
105.68782154086702
20
87.467371194960961
30
0
10
105.66484168673389
20
87.572840211379827
30
0
10
105.6108889524923
20
87.666180380056872
30
0
10
105.58599738542489
20
87.7092436853994
30
0
0
LINE
5
159
100
AcDbEntity
8
INTERIOR_PROFILES
100
AcDbLine
10
105.7001994377797
20
87.410561234151231
30
0
11
105.70434386128366
21
87.385729480027393
31
0
0
LINE
5
160
100
AcDbEntity
8
INTERIOR_PROFILES
100
AcDbLine
10
105.70434386128366
20
87.385729480027393
30
0
11
107.14987674602135
21
87.385729480027408
31
0
0
SPLINE
5
161
100
AcDbEntity
8
INTERIOR_PROFILES
100
AcDbSpline
70
0
71
3
72
9
73
5
74
0
42
0.000000001
43
0.0000000001
44
0.0000000001
40
0
40
0
40
0
40
0
40
0.11828373740281786
40
0.12550598820315395
40
0.12550598820315395
40
0.12550598820315395
40
0.12550598820315395
10
106.4996138787692
20
88.455949515496599
30
0
10
106.74299170390361
20
88.134613874611603
30
0
10
107.00122986175118
20
87.79365789841664
30
0
10
107.14213424446386
20
87.408058051186742
30
0
10
107.14987674602135
20
87.385729480027408
30
0
0
SPLINE
5
162
100
AcDbEntity
8
INTERIOR_PROFILES
100
AcDbSpline
70
0
71
3
72
9
73
5
74
0
42
0.000000001
43
0.0000000001
44
0.0000000001
40
0
40
0
40
0
40
0
40
0.13267190608758989
40
0.25879536784120682
40
0.25879536784120682
40
0.25879536784120682
40
0.25879536784120682
10
104.16286392275742
20
89.422274321709978
30
0
10
104.61639937720591
20
89.386244723937764
30
0
10
105.50108459975434
20
89.315963883904615
30
0
10
106.17243328990514
20
88.737743963992784
30
0
10
106.4996138787692
20
88.455949515496599
30
0
0
SPLINE
5
163
100
AcDbEntity
8
INTERIOR_PROFILES
100
AcDbSpline
70
0
71
3
72
9
73
5
74
0
42
0.000000001
43
0.0000000001
44
0.0000000001
40
0
40
0
40
0
40
0
40
0.11021849963728392
40
0.2213868770643965
40
0.2213868770643965
40
0.2213868770643965
40
0.2213868770643965
10
102.1687201983159
20
88.578936547433244
30
0
10
102.45470082630018
20
88.824908776702927
30
0
10
103.02912670161788
20
89.318973056853594
30
0
10
103.78387208425671
20
89.387742213601186
30
0
10
104.16286392275742
20
89.422274321709978
30
0
0
SPLINE
5
164
100
AcDbEntity
8
INTERIOR_PROFILES
100
AcDbSpline
70
0
71
3
72
9
73
5
74
0
42
0.000000001
43
0.0000000001
44
0.0000000001
40
0.09508419372366203
40
0.09508419372366203
40
0.09508419372366203
40
0.09508419372366203
40
0.12030328818094227
40
0.23363029661384016
40
0.23363029661384016
40
0.23363029661384016
40
0.23363029661384016
10
101.48650282492258
20
87.385729480027379
30
0
10
101.50756253656424
20
87.465934315838695
30
0
10
101.64494346088006
20
87.898230551923007
30
0
10
101.93305371359848
20
88.272661797864757
30
0
10
102.1687201983159
20
88.578936547433244
30
0
0
LINE
5
165
100
AcDbEntity
8
INTERIOR_PROFILES
100
AcDbLine
10
101.48650282492258
20
87.385729480027379
30
0
11
102.99861044204205
21
87.385729480027393
31
0
0
CIRCLE
5
166
100
AcDbEntity
8
INTERIOR_PROFILES
100
AcDbCircle
10
-99.058821710585221
20
182.57146003293855
30
0
40
1.3970000000000127
210
0
220
0
230
-1
0
CIRCLE
5
167
100
AcDbEntity
8
INTERIOR_PROFILES
100
AcDbCircle
10
-99.058821710585192
20
233.27146003293851
30
0
40
1.3969999999999771
210
0
220
0
230
-1
0
CIRCLE
5
168
100
AcDbEntity
8
INTERIOR_PROFILES
100
AcDbCircle
10
-99.058821710584226
20
12.700000000000058
30
0
40
1.3969999999999949
210
0
220
0
230
-1
0
CIRCLE
5
169
100
AcDbEntity
8
INTERIOR_PROFILES
100
AcDbCircle
10
-162.73573001642458
20
79.932730536772908
30
0
40
1.3969999831169932
210
0
220
0
230
-1
0
CIRCLE
5
170
100
AcDbEntity
8
INTERIOR_PROFILES
100
AcDbCircle
10
-99.058821710584297
20
63.400000000000048
30
0
40
1.3970000000000038
210
0
220
0
230
-1
0
CIRCLE
5
171
100
AcDbEntity
8
INTERIOR_PROFILES
100
AcDbCircle
10
-34.987500000000004
20
241.39946003293852
30
0
40
1.3969999831169844
210
0
220
0
230
-1
0
CIRCLE
5
172
100
AcDbEntity
8
INTERIOR_PROFILES
100
AcDbCircle
10
-162.73573001642464
20
166.03872949616519
30
0
40
1.3969999831169844
210
0
220
0
230
-1
0
CIRCLE
5
173
100
AcDbEntity
8
INTERIOR_PROFILES
100
AcDbCircle
10
58.630268127529462
20
123.42954297167765
30
0
40
2.2500000000000142
210
0
220
0
230
-1
0
CIRCLE
5
174
100
AcDbEntity
8
INTERIOR_PROFILES
100
AcDbCircle
10
58.630268127529462
20
105.42954297167761
30
0
40
2.2500000000000142
210
0
220
0
230
-1
0
CIRCLE
5
175
100
AcDbEntity
8
INTERIOR_PROFILES
100
AcDbCircle
10
-62.562500000000014
20
4.5720000000000027
30
0
40
1.3969999999999949
210
0
220
0
230
-1
0
CIRCLE
5
176
100
AcDbEntity
8
INTERIOR_PROFILES
100
AcDbCircle
10
65.344076593292797
20
102.17180276755279
30
0
40
2.2500000000000142
210
0
220
0
230
-1
0
LINE
5
177
100
AcDbEntity
8
BEND
100
AcDbLine
10
-0.42411500824166387
20
76.948230016469267
30
-2.6678659281741389e-12
11
-0.42411500824166387
21
169.02323001646926
31
-2.6678659281741389e-12
0
LINE
5
178
100
AcDbEntity
8
BEND
100
AcDbLine
10
90.680973355292153
20
76.100000000000023
30
-2.7595114003915745e-12
11
90.680973355292153
21
7.1054273576010019e-14
31
-2.5111918833842387e-14
0
LINE
5
179
100
AcDbEntity
8
BEND
100
AcDbLine
10
3.5527136788005009e-14
20
76.524115008234659
30
-2.6754987114685491e-12
11
89.550000000000011
21
76.524115008234659
31
-2.6702251521015796e-12
0
LINE
5
180
100
AcDbEntity
8
BEND
100
AcDbLine
10
90.974115008220195
20
76.948230016469296
30
-2.7274996599837518e-12
11
90.974115008220267
21
169.02323001646926
31
-2.7213618423681601e-12
0
LINE
5
181
100
AcDbEntity
8
BEND
100
AcDbLine
10
89.550000000000011
20
169.44734502470391
30
-2.6735558211754551e-12
11
0
21
169.44734502470391
31
-2.6702251521015796e-12
0
LINE
5
182
100
AcDbEntity
8
BEND
100
AcDbLine
10
90.680973355292593
20
245.97146003293852
30
-3.0632814391044605e-12
11
90.680973355292593
21
169.87146003293856
31
-2.7554493846442155e-12
0
LINE
5
183
100
AcDbEntity
8
BEND_EXTENT
100
AcDbLine
10
-9.2370555648813024e-13
20
76.948230016469267
30
-2.6734170432973769e-12
11
89.550000000000011
21
76.948230016469267
31
-2.6734170432973769e-12
0
LINE
5
184
100
AcDbEntity
8
BEND_EXTENT
100
AcDbLine
10
-9.2370555648813024e-13
20
76.948230016469267
30
-2.6734170432973769e-12
11
-1.8474111129762605e-12
21
169.02323001646926
31
-2.6734170432973769e-12
0
LINE
5
185
100
AcDbEntity
8
BEND_EXTENT
100
AcDbLine
10
89.550000000000011
20
169.02323001646926
30
-2.6734170432973769e-12
11
-1.8474111129762605e-12
21
169.02323001646926
31
-2.6734170432973769e-12
0
LINE
5
186
100
AcDbEntity
8
BEND_EXTENT
100
AcDbLine
10
89.550000000000011
20
76.100000000000051
30
-2.6822988274943782e-12
11
3.5527136788005009e-14
21
76.100000000000051
31
-2.6822988274943782e-12
0
LINE
5
187
100
AcDbEntity
8
BEND_EXTENT
100
AcDbLine
10
89.550000000000011
20
0
30
0
11
89.550000000000011
21
76.100000000000051
31
-2.6822988274943782e-12
0
LINE
5
188
100
AcDbEntity
8
BEND_EXTENT
100
AcDbLine
10
90.549999999999997
20
76.948230016469267
30
-2.6734170432973769e-12
11
90.549999999999997
21
169.02323001646926
31
-2.6734170432973769e-12
0
LINE
5
189
100
AcDbEntity
8
BEND_EXTENT
100
AcDbLine
10
-0.84823001646817975
20
169.02323001646926
30
-2.6645352591003757e-12
11
-0.84823001647067553
21
76.948230016469267
31
-2.6822988274943782e-12
0
LINE
5
190
100
AcDbEntity
8
BEND_EXTENT
100
AcDbLine
10
91.811946710584294
20
3.5527136788005009e-14
30
-2.6645352591003757e-14
11
91.81194671058428
21
76.100000000000065
31
-2.7622348852673895e-12
0
LINE
5
191
100
AcDbEntity
8
BEND_EXTENT
100
AcDbLine
10
91.398230016440607
20
169.02323001646926
30
-2.7711166694643907e-12
11
91.398230016440536
21
76.948230016469267
31
-2.7711166694643907e-12
0
LINE
5
192
100
AcDbEntity
8
BEND_EXTENT
100
AcDbLine
10
0
20
169.8714600329385
30
-2.6822988274943782e-12
11
89.550000000000011
21
169.8714600329385
31
-2.6822988274943782e-12
0
LINE
5
193
100
AcDbEntity
8
BEND_EXTENT
100
AcDbLine
10
89.550000000000011
20
169.8714600329385
30
-2.6822988274943782e-12
11
89.550000000000011
21
245.97146003293852
31
-3.0375701953744283e-12
0
LINE
5
194
100
AcDbEntity
8
BEND_EXTENT
100
AcDbLine
10
91.811946710585204
20
245.97146003293852
30
-3.0642155479654321e-12
11
91.811946710585204
21
169.8714600329385
31
-2.7533531010703882e-12
0
ENDSEC
0
SECTION
2
OBJECTS
0
DICTIONARY
5
C
100
AcDbDictionary
3
ACAD_GROUP
350
D
3
ACAD_MLINESTYLE
350
17
0
DICTIONARY
5
D
100
AcDbDictionary
0
DICTIONARY
5
1A
330
C
100
AcDbDictionary
0
DICTIONARY
5
17
100
AcDbDictionary
0
ENDSEC
0
EOF
