0
SECTION
2
HEADER
9
$INSUNITS
70
4
9
$ACADVER
1
AC1014
9
$HANDSEED
5
FFFF
0
ENDSEC
0
SECTION
2
TABLES
0
TABLE
2
VPORT
5
8
100
AcDbSymbolTable
0
ENDTAB
0
TABLE
2
LTYPE
5
5
100
AcDbSymbolTable
0
LTYPE
5
14
100
AcDbSymbolTableRecord
100
AcDbLinetypeTableRecord
2
BYBLOCK
70
0
0
LTYPE
5
15
100
AcDbSymbolTableRecord
100
AcDbLinetypeTableRecord
2
BYLAYER
70
0
0
ENDTAB
0
TABLE
2
LAYER
5
2
100
AcDbSymbolTable
70
2
0
LAYER
5
50
100
AcDbSymbolTableRecord
100
AcDbLayerTableRecord
2
0
70
0
6
CONTINUOUS
0
ENDTAB
0
TABLE
2
STYLE
5
3
100
AcDbSymbolTable
70
1
0
STYLE
5
11
100
AcDbSymbolTableRecord
100
AcDbTextStyleTableRecord
2
STANDARD
70
0
0
ENDTAB
0
TABLE
2
VIEW
5
6
100
AcDbSymbolTable
70
0
0
ENDTAB
0
TABLE
2
UCS
5
7
100
AcDbSymbolTable
70
0
0
ENDTAB
0
TABLE
2
APPID
5
9
100
AcDbSymbolTable
70
2
0
APPID
5
12
100
AcDbSymbolTableRecord
100
AcDbRegAppTableRecord
2
ACAD
70
0
0
ENDTAB
0
TABLE
2
DIMSTYLE
5
A
100
AcDbSymbolTable
70
1
0
ENDTAB
0
TABLE
2
BLOCK_RECORD
5
1
100
AcDbSymbolTable
70
1
0
BLOCK_RECORD
5
1F
100
AcDbSymbolTableRecord
100
AcDbBlockTableRecord
2
*MODEL_SPACE
0
BLOCK_RECORD
5
1B
100
AcDbSymbolTableRecord
100
AcDbBlockTableRecord
2
*PAPER_SPACE
0
ENDTAB
0
ENDSEC
0
SECTION
2
BLOCKS
0
BLOCK
5
20
100
AcDbEntity
100
AcDbBlockBegin
2
*MODEL_SPACE
0
ENDBLK
5
21
100
AcDbEntity
100
AcDbBlockEnd
0
BLOCK
5
1C
100
AcDbEntity
100
AcDbBlockBegin
2
*PAPER_SPACE
0
ENDBLK
5
1D
100
AcDbEntity
100
AcDbBlockEnd
0
ENDSEC
0
SECTION
2
ENTITIES
0
SPLINE
5
100
100
AcDbEntity
8
OUTER_PROFILES
100
AcDbSpline
70
0
71
3
72
14
73
10
74
0
42
0.000000001
43
0.0000000001
44
0.0000000001
40
0.0073910508111907358
40
0.0073910508111907358
40
0.0073910508111907358
40
0.0073910508111907358
40
0.18857392966562037
40
0.18857392966562037
40
0.18857392966562037
40
1.0846058543606696
40
1.0846058543606696
40
1.0846058543606696
40
1.9079633382381889
40
1.9079633382381889
40
1.9079633382381889
40
1.9079633382381889
10
12.481008794810023
20
11.462930669894593
30
0
10
11.876849953883466
20
11.462930669894593
30
0
10
11.274765907267748
20
11.420425315340836
30
0
10
10.67939227158776
20
11.33626837207574
30
0
10
7.7349982534330675
20
10.92007392629225
30
0
10
4.9558508003456261
20
9.4395305258357922
30
0
10
3.0132764355852575
20
7.2525401830222354
30
0
10
1.2282584053868244
20
5.2429300159110177
30
0
10
0.15118224000857783
20
2.6587437180584366
30
0
10
2.2717244752001875e-12
20
-1.4155343563970746e-13
30
0
0
LINE
5
101
100
AcDbEntity
8
OUTER_PROFILES
100
AcDbLine
10
2.2721035594366348e-12
20
-1.4124999399420026e-13
30
0
11
6.2875429909126268
21
-5.3290705182007514e-12
31
0
0
SPLINE
5
102
100
AcDbEntity
8
OUTER_PROFILES
100
AcDbSpline
70
0
71
3
72
17
73
13
74
0
42
0.000000001
43
0.0000000001
44
0.0000000001
40
-1.4531268891585254
40
-1.4531268891585254
40
-1.4531268891585254
40
-1.4531268891585254
40
-0.60129715137587136
40
-0.60129715137587136
40
-0.60129715137587136
40
0.24765665972452344
40
0.24765665972452344
40
0.24765665972452344
40
1.0951599925044571
40
1.0951599925044571
40
1.0951599925044571
40
1.4531268891585254
40
1.4531268891585254
40
1.4531268891585254
40
1.4531268891585254
10
6.2875429909126268
20
-5.3290705182007514e-12
30
0
10
6.4998536355230048
20
1.7430284583752931
30
0
10
7.5182604830488966
20
3.3785910326207151
30
0
10
9.00952749793273
20
4.3715102644567594
30
0
10
10.495759733672035
20
5.36107722671884
30
0
10
12.426525433749207
20
5.6959102801429209
30
0
10
14.173896532295487
20
5.2671142482624234
30
0
10
15.918282163478167
20
4.8390508349767307
30
0
10
17.450872651060195
20
3.657223205460304
30
0
10
18.274771795756592
20
2.1048032912074532
30
0
10
18.622768798925303
20
1.4490950272809358
30
0
10
18.848471317173011
20
0.73247793584414378
30
0
10
18.937691238956482
20
-5.3290705182007514e-12
30
0
0
LINE
5
103
100
AcDbEntity
8
OUTER_PROFILES
100
AcDbLine
10
18.937691238956479
20
-5.3288730736957808e-12
30
0
11
244.08781627934997
21
-5.3645976549887564e-12
31
0
0
LINE
5
104
100
AcDbEntity
8
OUTER_PROFILES
100
AcDbLine
10
244.08781627934997
20
-5.3645976549887564e-12
30
0
11
244.08781627934997
21
170.39523517756476
31
0
0
LINE
5
105
100
AcDbEntity
8
OUTER_PROFILES
100
AcDbLine
10
244.08781627934997
20
170.39523517756476
30
0
11
-289.71218372064999
21
170.39523517756476
31
0
0
LINE
5
106
100
AcDbEntity
8
OUTER_PROFILES
100
AcDbLine
10
-289.71218372064999
20
170.39523517756476
30
0
11
-289.71218372065005
21
-5.3645976549887564e-12
31
0
0
LINE
5
107
100
AcDbEntity
8
OUTER_PROFILES
100
AcDbLine
10
-289.71218372065005
20
-5.3645976549887564e-12
30
0
11
-8.6604332207664925
21
-4.9737991503207013e-12
31
0
0
SPLINE
5
108
100
AcDbEntity
8
OUTER_PROFILES
100
AcDbSpline
70
0
71
3
72
14
73
10
74
0
42
0.000000001
43
0.0000000001
44
0.0000000001
40
0.027235704473878134
40
0.027235704473878134
40
0.027235704473878134
40
0.027235704473878134
40
1.0787578385642131
40
1.0787578385642131
40
1.0787578385642131
40
2.2675282390796996
40
2.2675282390796996
40
2.2675282390796996
40
3.289774317473392
40
3.289774317473392
40
3.289774317473392
40
3.289774317473392
10
-8.6604332207664534
20
-4.9532600243651359e-12
30
0
10
-8.5463894189969718
20
3.3972882164280986
30
0
10
-7.5488381280101002
20
6.7480016854450025
30
0
10
-5.7928530790019748
20
9.671221015550616
30
0
10
-3.8076708537942796
20
12.975988933584501
30
0
10
-0.84753006682455112
20
15.728266630282439
30
0
10
2.6549374420851279
20
17.511418582106266
30
0
10
5.6667752823709243
20
19.044784561896421
30
0
10
9.0708502441800078
20
19.860900254413917
30
0
10
12.481008794810009
20
19.860900254413917
30
0
0
SPLINE
5
109
100
AcDbEntity
8
OUTER_PROFILES
100
AcDbSpline
70
0
71
3
72
11
73
7
74
0
42
0.000000001
43
0.0000000001
44
0.0000000001
40
0
40
0
40
0
40
0
40
0.40839979643603413
40
0.40839979643603413
40
0.40839979643603413
40
0.6817508631982081
40
0.6817508631982081
40
0.6817508631982081
40
0.6817508631982081
10
12.481008794810016
20
19.860900254413927
30
0
10
13.842341449596798
20
19.860900254413927
30
0
10
15.179334201958925
20
19.197706431077517
30
0
10
15.977361889077446
20
18.134915356188365
30
0
10
16.51149956858475
20
17.423565652781331
30
0
10
16.807338379237642
20
16.542684788168945
30
0
10
16.807338379237784
20
15.661915462154905
30
0
0
SPLINE
5
110
100
AcDbEntity
8
OUTER_PROFILES
100
AcDbSpline
70
0
71
3
72
14
73
10
74
0
42
0.000000001
43
0.0000000001
44
0.0000000001
40
0.6817508631982081
40
0.6817508631982081
40
0.6817508631982081
40
0.6817508631982081
40
0.80567308137179161
40
0.80567308137179161
40
0.80567308137179161
40
1.2115724020921315
40
1.2115724020921315
40
1.2115724020921315
40
1.3631290530111377
40
1.3631290530111377
40
1.3631290530111377
40
1.3631290530111377
10
16.807338379237784
20
15.661915462154905
30
0
10
16.807338379237848
20
15.262623482534156
30
0
10
16.74826982543501
20
14.863319161630733
30
0
10
16.632385370885292
20
14.479939674603049
30
0
10
16.25281323219189
20
13.224204620339616
30
0
10
15.233768325946034
20
12.167190858435632
30
0
10
13.964371748633855
20
11.717477659610749
30
0
10
13.490398316985679
20
11.549561571042243
30
0
10
12.986188632974775
20
11.462930669894591
30
0
10
12.481008794810025
20
11.462930669894591
30
0
0
SPLINE
5
111
100
AcDbEntity
8
INTERIOR_PROFILES
100
AcDbSpline
70
0
71
3
72
8
73
4
74
0
42
0.000000001
43
0.0000000001
44
0.0000000001
40
0.22212785132755067
40
0.22212785132755067
40
0.22212785132755067
40
0.22212785132755067
40
0.22581766086371793
40
0.22581766086371793
40
0.22581766086371793
40
0.22581766086371793
10
-127.57452282932391
20
161.71889388158365
30
0
10
-127.57485721425093
20
161.73202192085401
30
0
10
-127.57501514507175
20
161.74378917650893
30
0
10
-127.57503181034471
20
161.75682951223325
30
0
0
SPLINE
5
112
100
AcDbEntity
8
INTERIOR_PROFILES
100
AcDbSpline
70
0
71
3
72
17
73
13
74
0
42
0.000000001
43
0.0000000001
44
0.0000000001
40
0.22602236204290876
40
0.22602236204290876
40
0.22602236204290876
40
0.22602236204290876
40
0.24585239396160474
40
0.24585239396160474
40
0.24585239396160474
40
0.36645713891928067
40
0.36645713891928067
40
0.36645713891928067
40
0.52044463349032266
40
0.52044463349032266
40
0.52044463349032266
40
0.67807057292475459
40
0.67807057292475459
40
0.67807057292475459
40
0.67807057292475459
10
-124.57503322857683
20
161.75686785527287
30
0
10
-124.57503322857681
20
161.82372100520919
30
0
10
-124.57943498317279
20
161.88668798996417
30
0
10
-124.58866192319606
20
161.95266568991826
30
0
10
-124.64477947019799
20
162.35393703978204
30
0
10
-124.88281090959998
20
162.7303124547513
30
0
10
-125.23089773157406
20
162.96036021618275
30
0
10
-125.67533312777505
20
163.25408396997813
30
0
10
-126.28018640946127
20
163.29278250879582
30
0
10
-126.76349822624418
20
163.05039012318215
30
0
10
-127.25822982358842
20
162.80227044566846
30
0
10
-127.57503322857661
20
162.28495724683665
30
0
10
-127.5750332285768
20
161.75686785527378
30
0
0
SPLINE
5
113
100
AcDbEntity
8
INTERIOR_PROFILES
100
AcDbSpline
70
0
71
3
72
8
73
4
74
0
42
0.000000001
43
0.0000000001
44
0.0000000001
40
0.67828039901325543
40
0.67828039901325543
40
0.67828039901325543
40
0.67828039901325543
40
0.68197020863903623
40
0.68197020863903623
40
0.68197020863903623
40
0.68197020863903623
10
-124.57503465807078
20
161.75682685702901
30
0
10
-124.5750515764672
20
161.74375087938751
30
0
10
-124.57521387198581
20
161.73184018184057
30
0
10
-124.57554362783
20
161.71889388157166
30
0
0
SPLINE
5
114
100
AcDbEntity
8
INTERIOR_PROFILES
100
AcDbSpline
70
0
71
3
72
11
73
7
74
0
42
0.000000001
43
0.0000000001
44
0.0000000001
40
0
40
0
40
0
40
0
40
0.12570232562643294
40
0.12570232562643294
40
0.12570232562643294
40
0.22212667071290115
40
0.22212667071290115
40
0.22212667071290115
40
0.22212667071290115
10
-126.07503322857681
20
160.30092311417704
30
0
10
-125.65602547648872
20
160.30092311417704
30
0
10
-125.20431996849715
20
160.50004718678542
30
0
10
-124.92741347655343
20
160.81939378658194
30
0
10
-124.71500271165468
20
161.0643597137238
30
0
10
-124.58429311978669
20
161.39346588320183
30
0
10
-124.57554362782957
20
161.71889388158817
30
0
0
SPLINE
5
115
100
AcDbEntity
8
INTERIOR_PROFILES
100
AcDbSpline
70
0
71
3
72
14
73
10
74
0
42
0.000000001
43
0.0000000001
44
0.0000000001
40
0.68196626425495299
40
0.68196626425495299
40
0.68196626425495299
40
0.68196626425495299
40
0.71226878422904005
40
0.71226878422904005
40
0.71226878422904005
40
0.8592603218039071
40
0.8592603218039071
40
0.8592603218039071
40
0.90409293496775733
40
0.90409293496775733
40
0.90409293496775733
40
0.90409293496775733
10
-127.57452282932405
20
161.71889388158723
30
0
10
-127.57180970533798
20
161.61798213580053
30
0
10
-127.55855089415967
20
161.51813599272785
30
0
10
-127.53374771654366
20
161.41766492741704
30
0
10
-127.41343240225174
20
160.93029963949874
30
0
10
-127.02735168049158
20
160.52425121579728
30
0
10
-126.53279244453911
20
160.37039037455369
30
0
10
-126.38195122416768
20
160.32346261469525
30
0
10
-126.22447527245632
20
160.30092311417701
30
0
10
-126.07503322857683
20
160.30092311417701
30
0
0
SPLINE
5
116
100
AcDbEntity
8
INTERIOR_PROFILES
100
AcDbSpline
70
0
71
3
72
8
73
4
74
0
42
0.000000001
43
0.0000000001
44
0.0000000001
40
0.22212785132786464
40
0.22212785132786464
40
0.22212785132786464
40
0.22212785132786464
40
0.22581766086371202
40
0.22581766086371202
40
0.22581766086371202
40
0.22581766086371202
10
24.300477170675947
20
161.71889388158689
30
0
10
24.300142785748967
20
161.7320219208562
30
0
10
24.299984854928244
20
161.74378917650981
30
0
10
24.299968189655281
20
161.75682951223325
30
0
0
SPLINE
5
117
100
AcDbEntity
8
INTERIOR_PROFILES
100
AcDbSpline
70
0
71
3
72
17
73
13
74
0
42
0.000000001
43
0.0000000001
44
0.0000000001
40
0.22602236204290799
40
0.22602236204290799
40
0.22602236204290799
40
0.22602236204290799
40
0.24585239395866637
40
0.24585239395866637
40
0.24585239395866637
40
0.36645713891192044
40
0.36645713891192044
40
0.36645713891192044
40
0.52044463348302905
40
0.52044463348302905
40
0.52044463348302905
40
0.67807057292476003
40
0.67807057292476003
40
0.67807057292476003
40
0.67807057292476003
10
27.299966771423172
20
161.75686785527287
30
0
10
27.299966771423193
20
161.82372100519916
30
0
10
27.295565016828533
20
161.8866879899447
30
0
10
27.28633807680804
20
161.95266568988893
30
0
10
27.230220529816812
20
162.35393703973745
30
0
10
26.99218909043616
20
162.73031245470204
30
0
10
26.644102268489675
20
162.96036021614066
30
0
10
26.199666872307425
20
163.2540839699561
30
0
10
25.594813590621687
20
163.29278250880679
30
0
10
25.111501773824504
20
163.0503901232166
30
0
10
24.616770176442955
20
162.80227044571558
30
0
10
24.299966771423346
20
162.28495724686096
30
0
10
24.2999667714232
20
161.75686785527373
30
0
0
SPLINE
5
118
100
AcDbEntity
8
INTERIOR_PROFILES
100
AcDbSpline
70
0
71
3
72
8
73
4
74
0
42
0.000000001
43
0.0000000001
44
0.0000000001
40
0.67828039901325787
40
0.67828039901325787
40
0.67828039901325787
40
0.67828039901325787
40
0.68197020863881619
40
0.68197020863881619
40
0.68197020863881619
40
0.68197020863881619
10
27.299965341929202
20
161.7568268570289
30
0
10
27.299948423532786
20
161.74375087938824
30
0
10
27.299786128014226
20
161.73184018184256
30
0
10
27.29945637217007
20
161.71889388157393
30
0
0
SPLINE
5
119
100
AcDbEntity
8
INTERIOR_PROFILES
100
AcDbSpline
70
0
71
3
72
11
73
7
74
0
42
0.000000001
43
0.0000000001
44
0.0000000001
40
0
40
0
40
0
40
0
40
0.12570232562405373
40
0.12570232562405373
40
0.12570232562405373
40
0.22212667071290185
40
0.22212667071290185
40
0.22212667071290185
40
0.22212667071290185
10
25.799966771423186
20
160.30092311417701
30
0
10
26.218974523503334
20
160.30092311417701
30
0
10
26.670680031488164
20
160.50004718677906
30
0
10
26.947586523430825
20
160.81939378656381
30
0
10
27.159997288338044
20
161.06435971370732
30
0
10
27.290706880213101
20
161.39346588319424
30
0
10
27.299456372170425
20
161.71889388158817
30
0
0
SPLINE
5
120
100
AcDbEntity
8
INTERIOR_PROFILES
100
AcDbSpline
70
0
71
3
72
14
73
10
74
0
42
0.000000001
43
0.0000000001
44
0.0000000001
40
0.68196626425494911
40
0.68196626425494911
40
0.68196626425494911
40
0.68196626425494911
40
0.71226878422539319
40
0.71226878422539319
40
0.71226878422539319
40
0.85926032180166945
40
0.85926032180166945
40
0.85926032180166945
40
0.90409293496775733
40
0.90409293496775733
40
0.90409293496775733
40
0.90409293496775733
10
24.300477170675947
20
161.71889388158729
30
0
10
24.303190294661682
20
161.61798213581289
30
0
10
24.316449105837073
20
161.51813599275241
30
0
10
24.341252283447382
20
161.4176649274533
30
0
10
24.461567597727267
20
160.93029963952864
30
0
10
24.847648319483241
20
160.52425121581348
30
0
10
25.342207555438318
20
160.37039037456071
30
0
10
25.493048775816632
20
160.32346261469758
30
0
10
25.650524727536244
20
160.30092311417701
30
0
10
25.79996677142319
20
160.30092311417701
30
0
0
SPLINE
5
121
100
AcDbEntity
8
INTERIOR_PROFILES
100
AcDbSpline
70
0
71
3
72
8
73
4
74
0
42
0.000000001
43
0.0000000001
44
0.0000000001
40
0.22212785132632512
40
0.22212785132632512
40
0.22212785132632512
40
0.22212785132632512
40
0.22581766086371519
40
0.22581766086371519
40
0.22581766086371519
40
0.22581766086371519
10
-178.19952282932363
20
161.71889388157098
30
0
10
-178.19985721425093
20
161.73202192084571
30
0
10
-178.20001514507169
20
161.74378917650449
30
0
10
-178.20003181034474
20
161.75682951223322
30
0
0
SPLINE
5
122
100
AcDbEntity
8
INTERIOR_PROFILES
100
AcDbSpline
70
0
71
3
72
17
73
13
74
0
42
0.000000001
43
0.0000000001
44
0.0000000001
40
0.2260223620429099
40
0.2260223620429099
40
0.2260223620429099
40
0.2260223620429099
40
0.24585239396300312
40
0.24585239396300312
40
0.24585239396300312
40
0.36645713892334958
40
0.36645713892334958
40
0.36645713892334958
40
0.5204446334941738
40
0.5204446334941738
40
0.5204446334941738
40
0.67807057292475592
40
0.67807057292475592
40
0.67807057292475592
40
0.67807057292475592
10
-175.20003322857684
20
161.7568678552729
30
0
10
-175.20003322857679
20
161.823721005214
30
0
10
-175.20443498317343
20
161.88668798997341
30
0
10
-175.21366192319803
20
161.95266568993219
30
0
10
-175.26977947020529
20
162.35393703980515
30
0
10
-175.50781090961925
20
162.73031245477813
30
0
10
-175.8558977316093
20
162.96036021620606
30
0
10
-176.30033312782018
20
163.25408396999001
30
0
10
-176.90518640950575
20
163.29278250878971
30
0
10
-177.38849822628049
20
163.05039012316396
30
0
10
-177.88322982360489
20
162.80227044564361
30
0
10
-178.20003322857661
20
162.28495724682386
30
0
10
-178.20003322857679
20
161.75686785527375
30
0
0
SPLINE
5
123
100
AcDbEntity
8
INTERIOR_PROFILES
100
AcDbSpline
70
0
71
3
72
8
73
4
74
0
42
0.000000001
43
0.0000000001
44
0.0000000001
40
0.67828039901325343
40
0.67828039901325343
40
0.67828039901325343
40
0.67828039901325343
40
0.68197020864148716
40
0.68197020864148716
40
0.68197020864148716
40
0.68197020864148716
10
-175.20003465807076
20
161.75682685702861
30
0
10
-175.20005157646722
20
161.74375087937906
30
0
10
-175.20021387198602
20
161.73184018182366
30
0
10
-175.20054362783065
20
161.71889388154631
30
0
0
SPLINE
5
124
100
AcDbEntity
8
INTERIOR_PROFILES
100
AcDbSpline
70
0
71
3
72
11
73
7
74
0
42
0.000000001
43
0.0000000001
44
0.0000000001
40
0
40
0
40
0
40
0
40
0.12570232562752123
40
0.12570232562752123
40
0.12570232562752123
40
0.22212667071290507
40
0.22212667071290507
40
0.22212667071290507
40
0.22212667071290507
10
-176.70003322857681
20
160.30092311417701
30
0
10
-176.2810254764851
20
160.30092311417701
30
0
10
-175.82931996849044
20
160.50004718678838
30
0
10
-175.55241347654626
20
160.81939378659027
30
0
10
-175.34000271165138
20
161.06435971373139
30
0
10
-175.20929311978659
20
161.39346588320532
30
0
10
-175.20054362782957
20
161.7188938815882
30
0
0
SPLINE
5
125
100
AcDbEntity
8
INTERIOR_PROFILES
100
AcDbSpline
70
0
71
3
72
14
73
10
74
0
42
0.000000001
43
0.0000000001
44
0.0000000001
40
0.68196626425494344
40
0.68196626425494344
40
0.68196626425494344
40
0.68196626425494344
40
0.71226878423096562
40
0.71226878423096562
40
0.71226878423096562
40
0.85926032180766798
40
0.85926032180766798
40
0.85926032180766798
40
0.90409293496775733
40
0.90409293496775733
40
0.90409293496775733
40
0.90409293496775733
10
-178.19952282932405
20
161.71889388158732
30
0
10
-178.19680970533781
20
161.61798213579405
30
0
10
-178.18355089415797
20
161.51813599271489
30
0
10
-178.15874771653893
20
161.41766492739788
30
0
10
-178.03843240223853
20
160.93029963947436
30
0
10
-177.65235168046334
20
160.52425121577443
30
0
10
-177.15779244450115
20
160.3703903745419
30
0
10
-177.00695122414129
20
160.32346261469132
30
0
10
-176.84947527244375
20
160.30092311417701
30
0
10
-176.70003322857681
20
160.30092311417701
30
0
0
SPLINE
5
126
100
AcDbEntity
8
INTERIOR_PROFILES
100
AcDbSpline
70
0
71
3
72
8
73
4
74
0
42
0.000000001
43
0.0000000001
44
0.0000000001
40
0.67828039901325621
40
0.67828039901325621
40
0.67828039901325621
40
0.67828039901325621
40
0.68197020863850988
40
0.68197020863850988
40
0.68197020863850988
40
0.68197020863850988
10
77.924965341929195
20
161.75682685702878
30
0
10
77.924948423532797
20
161.74375087938941
30
0
10
77.924786128014247
20
161.73184018184457
30
0
10
77.924456372170141
20
161.71889388157709
30
0
0
SPLINE
5
127
100
AcDbEntity
8
INTERIOR_PROFILES
100
AcDbSpline
70
0
71
3
72
11
73
7
74
0
42
0.000000001
43
0.0000000001
44
0.0000000001
40
0
40
0
40
0
40
0
40
0.12570232562367528
40
0.12570232562367528
40
0.12570232562367528
40
0.22212667071290462
40
0.22212667071290462
40
0.22212667071290462
40
0.22212667071290462
10
76.424966771423186
20
160.30092311417701
30
0
10
76.843974523502084
20
160.30092311417701
30
0
10
77.295680031485801
20
160.500047186778
30
0
10
77.572586523428328
20
160.81939378656091
30
0
10
77.784997288336911
20
161.06435971370473
30
0
10
77.915706880213079
20
161.39346588319307
30
0
10
77.924456372170425
20
161.7188938815882
30
0
0
SPLINE
5
128
100
AcDbEntity
8
INTERIOR_PROFILES
100
AcDbSpline
70
0
71
3
72
14
73
10
74
0
42
0.000000001
43
0.0000000001
44
0.0000000001
40
0.68196626425494922
40
0.68196626425494922
40
0.68196626425494922
40
0.68196626425494922
40
0.712268784225216
40
0.712268784225216
40
0.712268784225216
40
0.8592603217968029
40
0.8592603217968029
40
0.8592603217968029
40
0.90409293496775733
40
0.90409293496775733
40
0.90409293496775733
40
0.90409293496775733
10
74.925477170675947
20
161.71889388158729
30
0
10
74.928190294661661
20
161.61798213581349
30
0
10
74.941449105836924
20
161.51813599275357
30
0
10
74.966252283446948
20
161.41766492745506
30
0
10
75.08656759772235
20
160.93029963954592
30
0
10
75.472648319454493
20
160.52425121584065
30
0
10
75.967207555389194
20
160.370390374576
30
0
10
76.118048775782484
20
160.32346261470263
30
0
10
76.275524727520022
20
160.30092311417701
30
0
10
76.4249667714232
20
160.30092311417701
30
0
0
SPLINE
5
129
100
AcDbEntity
8
INTERIOR_PROFILES
100
AcDbSpline
70
0
71
3
72
8
73
4
74
0
42
0.000000001
43
0.0000000001
44
0.0000000001
40
0.22212785132812113
40
0.22212785132812113
40
0.22212785132812113
40
0.22212785132812113
40
0.22581766086371466
40
0.22581766086371466
40
0.22581766086371466
40
0.22581766086371466
10
74.925477170675876
20
161.71889388158957
30
0
10
74.925142785748946
20
161.73202192085793
30
0
10
74.924984854928255
20
161.74378917651066
30
0
10
74.92496818965526
20
161.75682951223342
30
0
0
SPLINE
5
130
100
AcDbEntity
8
INTERIOR_PROFILES
100
AcDbSpline
70
0
71
3
72
17
73
13
74
0
42
0.000000001
43
0.0000000001
44
0.0000000001
40
0.22602236204290829
40
0.22602236204290829
40
0.22602236204290829
40
0.22602236204290829
40
0.24585239395824449
40
0.24585239395824449
40
0.24585239395824449
40
0.3664571389114501
40
0.3664571389114501
40
0.3664571389114501
40
0.52044463348267467
40
0.52044463348267467
40
0.52044463348267467
40
0.67807057292475637
40
0.67807057292475637
40
0.67807057292475637
40
0.67807057292475637
10
77.924966771423172
20
161.75686785527287
30
0
10
77.924966771423186
20
161.82372100519771
30
0
10
77.920565016828732
20
161.88668798994186
30
0
10
77.911338076808633
20
161.9526656898847
30
0
10
77.855220529818666
20
162.35393703973301
30
0
10
77.617189090439098
20
162.73031245469841
30
0
10
77.269102268493725
20
162.96036021613793
30
0
10
76.824666872312378
20
163.25408396995488
30
0
10
76.219813590626146
20
163.29278250880753
30
0
10
75.736501773827854
20
163.05039012321828
30
0
10
75.241770176444447
20
162.8022704457178
30
0
10
74.924966771423357
20
162.28495724686215
30
0
10
74.9249667714232
20
161.75686785527375
30
0
0
SPLINE
5
131
100
AcDbEntity
8
INTERIOR_PROFILES
100
AcDbSpline
70
0
71
3
72
8
73
4
74
0
42
0.000000001
43
0.0000000001
44
0.0000000001
40
0.67828039901325476
40
0.67828039901325476
40
0.67828039901325476
40
0.67828039901325476
40
0.68197020863754065
40
0.68197020863754065
40
0.68197020863754065
40
0.68197020863754065
10
-23.325034658070795
20
161.75682685702924
30
0
10
-23.325051576467214
20
161.74375087939273
30
0
10
-23.325213871985682
20
161.731840181851
30
0
10
-23.32554362782961
20
161.71889388158712
30
0
0
SPLINE
5
132
100
AcDbEntity
8
INTERIOR_PROFILES
100
AcDbSpline
70
0
71
3
72
11
73
7
74
0
42
0.000000001
43
0.0000000001
44
0.0000000001
40
0
40
0
40
0
40
0
40
0.12570232562572506
40
0.12570232562572506
40
0.12570232562572506
40
0.2221266707129034
40
0.2221266707129034
40
0.2221266707129034
40
0.2221266707129034
10
-24.825033228576814
20
160.30092311417701
30
0
10
-24.406025476491088
20
160.30092311417701
30
0
10
-23.954319968501526
20
160.50004718678352
30
0
10
-23.677413476558115
20
160.81939378657654
30
0
10
-23.465002711656822
20
161.06435971371891
30
0
10
-23.33429311978675
20
161.39346588319955
30
0
10
-23.325543627829575
20
161.7188938815882
30
0
0
SPLINE
5
133
100
AcDbEntity
8
INTERIOR_PROFILES
100
AcDbSpline
70
0
71
3
72
14
73
10
74
0
42
0.000000001
43
0.0000000001
44
0.0000000001
40
0.68196626425494344
40
0.68196626425494344
40
0.68196626425494344
40
0.68196626425494344
40
0.71226878422817674
40
0.71226878422817674
40
0.71226878422817674
40
0.85926032180408263
40
0.85926032180408263
40
0.85926032180408263
40
0.90409293496775733
40
0.90409293496775733
40
0.90409293496775733
40
0.90409293496775733
10
-26.324522829324053
20
161.71889388158732
30
0
10
-26.321809705338069
20
161.61798213580352
30
0
10
-26.308550894160451
20
161.51813599273368
30
0
10
-26.283747716545783
20
161.41766492742562
30
0
10
-26.163432402256127
20
160.93029963950346
30
0
10
-25.777351680493467
20
160.52425121579722
30
0
10
-25.282792444537343
20
160.37039037455315
30
0
10
-25.13195122416645
20
160.32346261469507
30
0
10
-24.974475272455727
20
160.30092311417701
30
0
10
-24.825033228576821
20
160.30092311417701
30
0
0
SPLINE
5
134
100
AcDbEntity
8
INTERIOR_PROFILES
100
AcDbSpline
70
0
71
3
72
8
73
4
74
0
42
0.000000001
43
0.0000000001
44
0.0000000001
40
0.22212785132816237
40
0.22212785132816237
40
0.22212785132816237
40
0.22212785132816237
40
0.22581766086372262
40
0.22581766086372262
40
0.22581766086372262
40
0.22581766086372262
10
-26.324522829324124
20
161.71889388158996
30
0
10
-26.324857214251047
20
161.73202192085819
30
0
10
-26.32501514507176
20
161.74378917651086
30
0
10
-26.325031810344726
20
161.75682951223354
30
0
0
SPLINE
5
135
100
AcDbEntity
8
INTERIOR_PROFILES
100
AcDbSpline
70
0
71
3
72
17
73
13
74
0
42
0.000000001
43
0.0000000001
44
0.0000000001
40
0.22602236204291276
40
0.22602236204291276
40
0.22602236204291276
40
0.22602236204291276
40
0.24585239396084119
40
0.24585239396084119
40
0.24585239396084119
40
0.36645713891734194
40
0.36645713891734194
40
0.36645713891734194
40
0.52044463348859626
40
0.52044463348859626
40
0.52044463348859626
40
0.67807057292475181
40
0.67807057292475181
40
0.67807057292475181
40
0.67807057292475181
10
-23.325033228576828
20
161.7568678552729
30
0
10
-23.325033228576807
20
161.82372100520661
30
0
10
-23.329434983172455
20
161.88668798995911
30
0
10
-23.338661923195005
20
161.95266568991062
30
0
10
-23.394779470194138
20
162.35393703977036
30
0
10
-23.632810909590507
20
162.73031245473834
30
0
10
-23.980897731557281
20
162.96036021617167
30
0
10
-24.425333127753891
20
163.25408396997267
30
0
10
-25.030186409441022
20
163.29278250879872
30
0
10
-25.513498226227924
20
163.05039012319031
30
0
10
-26.008229823580969
20
162.80227044567962
30
0
10
-26.32503322857664
20
162.28495724684248
30
0
10
-26.325033228576835
20
161.75686785527381
30
0
0
SPLINE
5
136
100
AcDbEntity
8
INTERIOR_PROFILES
100
AcDbSpline
70
0
71
3
72
8
73
4
74
0
42
0.000000001
43
0.0000000001
44
0.0000000001
40
0.6782803990132541
40
0.6782803990132541
40
0.6782803990132541
40
0.6782803990132541
40
0.68197020863656532
40
0.68197020863656532
40
0.68197020863656532
40
0.68197020863656532
10
-225.82503465807076
20
161.75682685702955
30
0
10
-225.82505157646722
20
161.74375087939609
30
0
10
-225.82521387198554
20
161.73184018185725
30
0
10
-225.82554362782929
20
161.71889388159715
30
0
0
SPLINE
5
137
100
AcDbEntity
8
INTERIOR_PROFILES
100
AcDbSpline
70
0
71
3
72
11
73
7
74
0
42
0.000000001
43
0.0000000001
44
0.0000000001
40
0
40
0
40
0
40
0
40
0.12570232562889383
40
0.12570232562889383
40
0.12570232562889383
40
0.22212667071290557
40
0.22212667071290557
40
0.22212667071290557
40
0.22212667071290557
10
-227.32503322857681
20
160.30092311417701
30
0
10
-226.90602547648052
20
160.30092311417701
30
0
10
-226.45431996848191
20
160.50004718679207
30
0
10
-226.17741347653717
20
160.8193937866007
30
0
10
-225.96500271164717
20
161.06435971374083
30
0
10
-225.83429311978648
20
161.39346588320964
30
0
10
-225.82554362782957
20
161.7188938815882
30
0
0
SPLINE
5
138
100
AcDbEntity
8
INTERIOR_PROFILES
100
AcDbSpline
70
0
71
3
72
14
73
10
74
0
42
0.000000001
43
0.0000000001
44
0.0000000001
40
0.68196626425494622
40
0.68196626425494622
40
0.68196626425494622
40
0.68196626425494622
40
0.71226878423326678
40
0.71226878423326678
40
0.71226878423326678
40
0.85926032180908063
40
0.85926032180908063
40
0.85926032180908063
40
0.90409293496775733
40
0.90409293496775733
40
0.90409293496775733
40
0.90409293496775733
10
-228.82452282932405
20
161.71889388158732
30
0
10
-228.82180970533761
20
161.61798213578635
30
0
10
-228.8085508941559
20
161.51813599269946
30
0
10
-228.78374771653327
20
161.41766492737503
30
0
10
-228.66343240222528
20
160.93029963945551
30
0
10
-228.27735168044751
20
160.52425121576422
30
0
10
-227.78279244448686
20
160.37039037453746
30
0
10
-227.63195122413129
20
160.32346261468984
30
0
10
-227.47447527243907
20
160.30092311417701
30
0
10
-227.32503322857681
20
160.30092311417701
30
0
0
SPLINE
5
139
100
AcDbEntity
8
INTERIOR_PROFILES
100
AcDbSpline
70
0
71
3
72
8
73
4
74
0
42
0.000000001
43
0.0000000001
44
0.0000000001
40
0.22212785132880464
40
0.22212785132880464
40
0.22212785132880464
40
0.22212785132880464
40
0.2258176608637186
40
0.2258176608637186
40
0.2258176608637186
40
0.2258176608637186
10
-228.82452282932428
20
161.71889388159661
30
0
10
-228.82485721425104
20
161.73202192086251
30
0
10
-228.82501514507175
20
161.7437891765133
30
0
10
-228.82503181034474
20
161.75682951223322
30
0
0
SPLINE
5
140
100
AcDbEntity
8
INTERIOR_PROFILES
100
AcDbSpline
70
0
71
3
72
17
73
13
74
0
42
0.000000001
43
0.0000000001
44
0.0000000001
40
0.22602236204291384
40
0.22602236204291384
40
0.22602236204291384
40
0.22602236204291384
40
0.24585239396505262
40
0.24585239396505262
40
0.24585239396505262
40
0.36645713892774873
40
0.36645713892774873
40
0.36645713892774873
40
0.52044463349877623
40
0.52044463349877623
40
0.52044463349877623
40
0.67807057292475614
40
0.67807057292475614
40
0.67807057292475614
40
0.67807057292475614
10
-225.82503322857684
20
161.7568678552729
30
0
10
-225.82503322857679
20
161.82372100522093
30
0
10
-225.82943498317434
20
161.88668798998702
30
0
10
-225.83866192320087
20
161.95266568995265
30
0
10
-225.89477947021527
20
162.35393703983377
30
0
10
-226.13281090964179
20
162.7303124548082
30
0
10
-226.48089773164739
20
162.96036021623121
30
0
10
-226.92533312787006
20
163.25408397000359
30
0
10
-227.53018640955742
20
163.29278250878315
30
0
10
-228.01349822632378
20
163.05039012314225
30
0
10
-228.50822982362459
20
162.80227044561397
30
0
10
-228.82503322857661
20
162.28495724680855
30
0
10
-228.82503322857679
20
161.75686785527378
30
0
0
ELLIPSE
5
141
100
AcDbEntity
8
INTERIOR_PROFILES
100
AcDbEllipse
10
-13.750000204890966
20
120.00000178813934
30
0
11
-1.4161689572260049e-47
21
20.695796135747813
31
0.0
40
0.64022664847155519
41
-1.5707963267948948
42
1.5707963267948948
0
ELLIPSE
5
142
100
AcDbEntity
8
INTERIOR_PROFILES
100
AcDbEllipse
10
-13.750000204890966
20
120.00000178813934
30
0
11
-1.0435248035900803e-47
21
15.250000000000004
31
0.0
40
0.86885247196330384
41
1.5707963267948948
42
4.7123889803846915
0
SPLINE
5
143
100
AcDbEntity
8
INTERIOR_PROFILES
100
AcDbSpline
70
0
71
3
72
8
73
4
74
0
42
0.000000001
43
0.0000000001
44
0.0000000001
40
0.22212785132878765
40
0.22212785132878765
40
0.22212785132878765
40
0.22212785132878765
40
0.22581766086371849
40
0.22581766086371849
40
0.22581766086371849
40
0.22581766086371849
10
176.17547717067572
20
161.71889388159641
30
0
10
176.1751427857489
20
161.73202192086239
30
0
10
176.17498485492825
20
161.7437891765133
30
0
10
176.17496818965526
20
161.75682951223325
30
0
0
SPLINE
5
144
100
AcDbEntity
8
INTERIOR_PROFILES
100
AcDbSpline
70
0
71
3
72
17
73
13
74
0
42
0.000000001
43
0.0000000001
44
0.0000000001
40
0.22602236204291093
40
0.22602236204291093
40
0.22602236204291093
40
0.22602236204291093
40
0.24585239396171787
40
0.24585239396171787
40
0.24585239396171787
40
0.36645713891969117
40
0.36645713891969117
40
0.36645713891969117
40
0.52044463349027537
40
0.52044463349027537
40
0.52044463349027537
40
0.67807057292475392
40
0.67807057292475392
40
0.67807057292475392
40
0.67807057292475392
10
179.17496677142316
20
161.75686785527287
30
0
10
179.17496677142321
20
161.82372100520956
30
0
10
179.17056501682714
20
161.88668798996488
30
0
10
179.16133807680379
20
161.95266568991934
30
0
10
179.10522052980139
20
162.35393703978414
30
0
10
178.86718909039811
20
162.73031245475397
30
0
10
178.51910226842239
20
162.96036021618508
30
0
10
178.07466687222174
20
163.25408396997847
30
0
10
177.4698135905378
20
163.2927825087952
30
0
10
176.98650177375626
20
163.05039012318241
30
0
10
176.49177017641182
20
162.80227044566882
30
0
10
176.17496677142339
20
162.28495724683683
30
0
10
176.17496677142321
20
161.75686785527375
30
0
0
SPLINE
5
145
100
AcDbEntity
8
INTERIOR_PROFILES
100
AcDbSpline
70
0
71
3
72
8
73
4
74
0
42
0.000000001
43
0.0000000001
44
0.0000000001
40
0.67828039901325599
40
0.67828039901325599
40
0.67828039901325599
40
0.67828039901325599
40
0.68197020863657232
40
0.68197020863657232
40
0.68197020863657232
40
0.68197020863657232
10
179.17496534192921
20
161.75682685702958
30
0
10
179.17494842353278
20
161.74375087939609
30
0
10
179.17478612801438
20
161.73184018185708
30
0
10
179.17445637217068
20
161.7188938815971
30
0
0
SPLINE
5
146
100
AcDbEntity
8
INTERIOR_PROFILES
100
AcDbSpline
70
0
71
3
72
11
73
7
74
0
42
0.000000001
43
0.0000000001
44
0.0000000001
40
0
40
0
40
0
40
0
40
0.12570232562639214
40
0.12570232562639214
40
0.12570232562639214
40
0.22212667071290343
40
0.22212667071290343
40
0.22212667071290343
40
0.22212667071290343
10
177.67496677142319
20
160.30092311417701
30
0
10
178.09397452351112
20
160.30092311417701
30
0
10
178.54568003150257
20
160.50004718678534
30
0
10
178.82258652344626
20
160.81939378658163
30
0
10
179.03499728834518
20
161.06435971372352
30
0
10
179.16570688021329
20
161.39346588320166
30
0
10
179.17445637217043
20
161.71889388158817
30
0
0
SPLINE
5
147
100
AcDbEntity
8
INTERIOR_PROFILES
100
AcDbSpline
70
0
71
3
72
14
73
10
74
0
42
0.000000001
43
0.0000000001
44
0.0000000001
40
0.68196626425494922
40
0.68196626425494922
40
0.68196626425494922
40
0.68196626425494922
40
0.71226878422901629
40
0.71226878422901629
40
0.71226878422901629
40
0.85926032180282097
40
0.85926032180282097
40
0.85926032180282097
40
0.90409293496775733
40
0.90409293496775733
40
0.90409293496775733
40
0.90409293496775733
10
176.17547717067598
20
161.71889388158729
30
0
10
176.17819029466204
20
161.61798213580067
30
0
10
176.19144910584029
20
161.51813599272799
30
0
10
176.2162522834563
20
161.41766492741726
30
0
10
176.33656759774723
20
160.93029963950255
30
0
10
176.72264831950213
20
160.5242512158033
30
0
10
177.21720755544996
20
160.3703903745571
30
0
10
177.36804877582472
20
160.32346261469638
30
0
10
177.52552472754007
20
160.30092311417701
30
0
10
177.67496677142319
20
160.30092311417701
30
0
0
SPLINE
5
148
100
AcDbEntity
8
INTERIOR_PROFILES
100
AcDbSpline
70
0
71
3
72
8
73
4
74
0
42
0.000000001
43
0.0000000001
44
0.0000000001
40
0.22212785132755306
40
0.22212785132755306
40
0.22212785132755306
40
0.22212785132755306
40
0.22581766086371707
40
0.22581766086371707
40
0.22581766086371707
40
0.22581766086371707
10
-76.949522829323982
20
161.71889388158371
30
0
10
-76.949857214251011
20
161.73202192085409
30
0
10
-76.950015145071745
20
161.74378917650867
30
0
10
-76.950031810344726
20
161.75682951223348
30
0
0
SPLINE
5
149
100
AcDbEntity
8
INTERIOR_PROFILES
100
AcDbSpline
70
0
71
3
72
17
73
13
74
0
42
0.000000001
43
0.0000000001
44
0.0000000001
40
0.22602236204291301
40
0.22602236204291301
40
0.22602236204291301
40
0.22602236204291301
40
0.24585239396043312
40
0.24585239396043312
40
0.24585239396043312
40
0.36645713891631265
40
0.36645713891631265
40
0.36645713891631265
40
0.52044463348755077
40
0.52044463348755077
40
0.52044463348755077
40
0.67807057292475637
40
0.67807057292475637
40
0.67807057292475637
40
0.67807057292475637
10
-73.950033228576828
20
161.7568678552729
30
0
10
-73.950033228576814
20
161.82372100520521
30
0
10
-73.954434983172277
20
161.88668798995639
30
0
10
-73.963661923194437
20
161.95266568990655
30
0
10
-74.019779470192077
20
162.35393703976413
30
0
10
-74.257810909585459
20
162.73031245473146
30
0
10
-74.605897731548367
20
162.96036021616575
30
0
10
-75.050333127742277
20
163.25408396996954
30
0
10
-75.655186409429206
20
163.29278250880026
30
0
10
-76.138498226218076
20
163.05039012319526
30
0
10
-76.633229823576485
20
162.80227044568642
30
0
10
-76.950033228576643
20
162.28495724684592
30
0
10
-76.9500332285768
20
161.75686785527375
30
0
0
SPLINE
5
150
100
AcDbEntity
8
INTERIOR_PROFILES
100
AcDbSpline
70
0
71
3
72
8
73
4
74
0
42
0.000000001
43
0.0000000001
44
0.0000000001
40
0.6782803990132531
40
0.6782803990132531
40
0.6782803990132531
40
0.6782803990132531
40
0.68197020863724656
40
0.68197020863724656
40
0.68197020863724656
40
0.68197020863724656
10
-73.950034658070805
20
161.75682685702935
30
0
10
-73.950051576467231
20
161.74375087939376
30
0
10
-73.950213871985667
20
161.73184018185304
30
0
10
-73.950543627829546
20
161.71889388159013
30
0
0
SPLINE
5
151
100
AcDbEntity
8
INTERIOR_PROFILES
100
AcDbSpline
70
0
71
3
72
11
73
7
74
0
42
0.000000001
43
0.0000000001
44
0.0000000001
40
0
40
0
40
0
40
0
40
0.1257023256255011
40
0.1257023256255011
40
0.1257023256255011
40
0.22212667071289921
40
0.22212667071289921
40
0.22212667071289921
40
0.22212667071289921
10
-75.450033228576814
20
160.30092311417701
30
0
10
-75.031025476491834
20
160.30092311417701
30
0
10
-74.579319968502901
20
160.50004718678295
30
0
10
-74.302413476559593
20
160.81939378657484
30
0
10
-74.090002711657533
20
161.06435971371738
30
0
10
-73.959293119786778
20
161.39346588319887
30
0
10
-73.950543627829575
20
161.71889388158817
30
0
0
SPLINE
5
152
100
AcDbEntity
8
INTERIOR_PROFILES
100
AcDbSpline
70
0
71
3
72
14
73
10
74
0
42
0.000000001
43
0.0000000001
44
0.0000000001
40
0.68196626425494833
40
0.68196626425494833
40
0.68196626425494833
40
0.68196626425494833
40
0.71226878422765405
40
0.71226878422765405
40
0.71226878422765405
40
0.85926032180385781
40
0.85926032180385781
40
0.85926032180385781
40
0.90409293496775733
40
0.90409293496775733
40
0.90409293496775733
40
0.90409293496775733
10
-76.949522829324053
20
161.71889388158729
30
0
10
-76.946809705338111
20
161.61798213580525
30
0
10
-76.933550894160902
20
161.51813599273714
30
0
10
-76.908747716547069
20
161.41766492743079
30
0
10
-76.788432402259048
20
160.93029963950744
30
0
10
-76.402351680496508
20
160.52425121579901
30
0
10
-75.907792444539595
20
160.37039037455386
30
0
10
-75.75695122416802
20
160.3234626146953
30
0
10
-75.599475272456473
20
160.30092311417701
30
0
10
-75.450033228576814
20
160.30092311417701
30
0
0
SPLINE
5
153
100
AcDbEntity
8
INTERIOR_PROFILES
100
AcDbSpline
70
0
71
3
72
14
73
10
74
0
42
0.000000001
43
0.0000000001
44
0.0000000001
40
0.6328609408552367
40
0.6328609408552367
40
0.6328609408552367
40
0.6328609408552367
40
0.66362066307255629
40
0.66362066307255629
40
0.66362066307255629
40
0.80305270296386677
40
0.80305270296386677
40
0.80305270296386677
40
0.84381458780859331
40
0.84381458780859331
40
0.84381458780859331
40
0.84381458780859331
10
-276.17218222499247
20
42.477650319496334
30
0
10
-276.17218222499156
20
42.374606259340545
30
0
10
-276.18368637412084
20
42.274689360513179
30
0
10
-276.20792348171557
20
42.172591368645854
30
0
10
-276.31778888716781
20
41.709787082758908
30
0
10
-276.68572632710311
20
41.322410165798679
30
0
10
-277.15587168494886
20
41.180258399617458
30
0
10
-277.29331506562187
20
41.138701423702379
30
0
10
-277.43630927551004
20
41.118776827773111
30
0
10
-277.5721822249925
20
41.118776827773111
30
0
0
SPLINE
5
154
100
AcDbEntity
8
INTERIOR_PROFILES
100
AcDbSpline
70
0
71
3
72
11
73
7
74
0
42
0.000000001
43
0.0000000001
44
0.0000000001
40
0
40
0
40
0
40
0
40
0.11924447256955996
40
0.11924447256955996
40
0.11924447256955996
40
0.21095364695687444
40
0.21095364695687444
40
0.21095364695687444
40
0.21095364695687444
10
-277.5721822249925
20
41.118776827773104
30
0
10
-277.96966380022434
20
41.118776827773111
30
0
10
-278.39676623801796
20
41.309864653466647
30
0
10
-278.65591572778868
20
41.617441463234293
30
0
10
-278.85522379832338
20
41.853994275089121
30
0
10
-278.97218222500317
20
42.16993604669198
30
0
10
-278.97218222499242
20
42.477650319530454
30
0
0
SPLINE
5
155
100
AcDbEntity
8
INTERIOR_PROFILES
100
AcDbSpline
70
0
71
3
72
17
73
13
74
0
42
0.000000001
43
0.0000000001
44
0.0000000001
40
0.21095364695687444
40
0.21095364695687444
40
0.21095364695687444
40
0.21095364695687444
40
0.22477231501940431
40
0.22477231501940431
40
0.22477231501940431
40
0.33805751296007408
40
0.33805751296007408
40
0.33805751296007408
40
0.48342673833651939
40
0.48342673833651939
40
0.48342673833651939
40
0.6328609408552367
40
0.6328609408552367
40
0.6328609408552367
40
0.6328609408552367
10
-278.97218222499242
20
42.477650319530454
30
0
10
-278.97218222499083
20
42.52401647016768
30
0
10
-278.96989974090451
20
42.567845470765391
30
0
10
-278.9651504574058
20
42.613660997418606
30
0
10
-278.9262159147429
20
42.989255879803807
30
0
10
-278.71264366381251
20
43.3534642812632
30
0
10
-278.39395973550376
20
43.577754242310462
30
0
10
-277.98501985067941
20
43.865566405680916
30
0
10
-277.41223895946854
20
43.916854246990631
30
0
10
-276.95155226355848
20
43.695679389858668
30
0
10
-276.47798333013372
20
43.468319793581543
30
0
10
-276.1721822249969
20
42.978249994775638
30
0
10
-276.17218222499247
20
42.477650319496334
30
0
0
SPLINE
5
156
100
AcDbEntity
8
INTERIOR_PROFILES
100
AcDbSpline
70
0
71
3
72
17
73
13
74
0
42
0.000000001
43
0.0000000001
44
0.0000000001
40
0.22602236204290835
40
0.22602236204290835
40
0.22602236204290835
40
0.22602236204290835
40
0.24585239396036901
40
0.24585239396036901
40
0.24585239396036901
40
0.36645713891617848
40
0.36645713891617848
40
0.36645713891617848
40
0.52044463348754344
40
0.52044463348754344
40
0.52044463348754344
40
0.67807057292475204
40
0.67807057292475204
40
0.67807057292475204
40
0.67807057292475204
10
128.54996677142316
20
161.75686785527287
30
0
10
128.54996677142319
20
161.82372100520496
30
0
10
128.54556501682777
20
161.88668798995593
30
0
10
128.53633807680566
20
161.95266568990587
30
0
10
128.48022052980824
20
162.35393703976325
30
0
10
128.24218909041522
20
162.73031245473055
30
0
10
127.89410226845278
20
162.96036021616501
30
0
10
127.44966687225886
20
163.25408396996943
30
0
10
126.84481359057129
20
163.29278250880043
30
0
10
126.361501773782
20
163.05039012319526
30
0
10
125.86677017642356
20
162.80227044568642
30
0
10
125.54996677142339
20
162.28495724684589
30
0
10
125.5499667714232
20
161.75686785527378
30
0
0
SPLINE
5
157
100
AcDbEntity
8
INTERIOR_PROFILES
100
AcDbSpline
70
0
71
3
72
8
73
4
74
0
42
0.000000001
43
0.0000000001
44
0.0000000001
40
0.67828039901325698
40
0.67828039901325698
40
0.67828039901325698
40
0.67828039901325698
40
0.68197020863679092
40
0.68197020863679092
40
0.68197020863679092
40
0.68197020863679092
10
128.54996534192924
20
161.75682685702949
30
0
10
128.54994842353281
20
161.74375087939507
30
0
10
128.54978612801443
20
161.73184018185708
30
0
10
128.5494563721706
20
161.71889388159485
30
0
0
SPLINE
5
158
100
AcDbEntity
8
INTERIOR_PROFILES
100
AcDbSpline
70
0
71
3
72
11
73
7
74
0
42
0.000000001
43
0.0000000001
44
0.0000000001
40
0
40
0
40
0
40
0
40
0.12570232562531186
40
0.12570232562531186
40
0.12570232562531186
40
0.22212667071290529
40
0.22212667071290529
40
0.22212667071290529
40
0.22212667071290529
10
127.04996677142319
20
160.30092311417701
30
0
10
127.46897452350753
20
160.30092311417701
30
0
10
127.92068003149592
20
160.50004718678238
30
0
10
128.19758652343916
20
160.81939378657339
30
0
10
128.40999728834194
20
161.0643597137161
30
0
10
128.54070688021321
20
161.39346588319825
30
0
10
128.54945637217043
20
161.7188938815882
30
0
0
SPLINE
5
159
100
AcDbEntity
8
INTERIOR_PROFILES
100
AcDbSpline
70
0
71
3
72
14
73
10
74
0
42
0.000000001
43
0.0000000001
44
0.0000000001
40
0.681966264254944
40
0.681966264254944
40
0.681966264254944
40
0.681966264254944
40
0.71226878422765039
40
0.71226878422765039
40
0.71226878422765039
40
0.8592603218046394
40
0.8592603218046394
40
0.8592603218046394
40
0.90409293496775733
40
0.90409293496775733
40
0.90409293496775733
40
0.90409293496775733
10
125.55047717067598
20
161.71889388158732
30
0
10
125.55319029466192
20
161.61798213580528
30
0
10
125.5664491058391
20
161.5181359927372
30
0
10
125.59125228345295
20
161.41766492743085
30
0
10
125.71156759774155
20
160.93029963950497
30
0
10
126.09764831950797
20
160.52425121579472
30
0
10
126.59220755546829
20
160.37039037455142
30
0
10
126.74304877583749
20
160.32346261469451
30
0
10
126.90052472754614
20
160.30092311417701
30
0
10
127.04996677142319
20
160.30092311417701
30
0
0
SPLINE
5
160
100
AcDbEntity
8
INTERIOR_PROFILES
100
AcDbSpline
70
0
71
3
72
8
73
4
74
0
42
0.000000001
43
0.0000000001
44
0.0000000001
40
0.22212785132753343
40
0.22212785132753343
40
0.22212785132753343
40
0.22212785132753343
40
0.22581766086371996
40
0.22581766086371996
40
0.22581766086371996
40
0.22581766086371996
10
125.55047717067606
20
161.71889388158348
30
0
10
125.55014278574902
20
161.73202192085398
30
0
10
125.54998485492823
20
161.74378917650873
30
0
10
125.54996818965529
20
161.75682951223322
30
0
0
SPLINE
5
161
100
AcDbEntity
8
INTERIOR_PROFILES
100
AcDbSpline
70
0
71
3
72
14
73
10
74
0
42
0.000000001
43
0.0000000001
44
0.0000000001
40
0.63286094085523181
40
0.63286094085523181
40
0.63286094085523181
40
0.63286094085523181
40
0.66362066307472389
40
0.66362066307472389
40
0.66362066307472389
40
0.80305270296624554
40
0.80305270296624554
40
0.80305270296624554
40
0.84381458780859198
40
0.84381458780859198
40
0.84381458780859198
40
0.84381458780859198
10
-276.17218222499241
20
129.37410311779007
30
0
10
-276.1721822249915
20
129.27105905762696
30
0
10
-276.18368637412243
20
129.17114215879243
30
0
10
-276.20792348172068
20
129.06904416691805
30
0
10
-276.31778888718111
20
128.60623988103117
30
0
10
-276.68572632712431
20
128.21886296407703
30
0
10
-277.15587168497296
20
128.07671119790393
30
0
10
-277.29331506563858
20
128.03515422199374
30
0
10
-277.436309275518
20
128.01522962606688
30
0
10
-277.5721822249925
20
128.01522962606688
30
0
0
SPLINE
5
162
100
AcDbEntity
8
INTERIOR_PROFILES
100
AcDbSpline
70
0
71
3
72
11
73
7
74
0
42
0.000000001
43
0.0000000001
44
0.0000000001
40
0
40
0
40
0
40
0
40
0.11924447257258311
40
0.11924447257258311
40
0.11924447257258311
40
0.21095364695687951
40
0.21095364695687951
40
0.21095364695687951
40
0.21095364695687951
10
-277.5721822249925
20
128.01522962606691
30
0
10
-277.96966380023446
20
128.01522962606694
30
0
10
-278.39676623803689
20
128.20631745176891
30
0
10
-278.65591572780835
20
128.51389426155137
30
0
10
-278.85522379833202
20
128.75044707340382
30
0
10
-278.97218222500305
20
129.06638884499478
30
0
10
-278.97218222499237
20
129.37410311782432
30
0
0
SPLINE
5
163
100
AcDbEntity
8
INTERIOR_PROFILES
100
AcDbSpline
70
0
71
3
72
17
73
13
74
0
42
0.000000001
43
0.0000000001
44
0.0000000001
40
0.21095364695687951
40
0.21095364695687951
40
0.21095364695687951
40
0.21095364695687951
40
0.22477231502265027
40
0.22477231502265027
40
0.22477231502265027
40
0.33805751296496966
40
0.33805751296496966
40
0.33805751296496966
40
0.48342673834085581
40
0.48342673834085581
40
0.48342673834085581
40
0.63286094085523181
40
0.63286094085523181
40
0.63286094085523181
40
0.63286094085523181
10
-278.97218222499237
20
129.37410311782432
30
0
10
-278.97218222499072
20
129.42046926847263
30
0
10
-278.96989974090337
20
129.46429826908047
30
0
10
-278.96515045740244
20
129.51011379574462
30
0
10
-278.92621591472948
20
129.88570867813672
30
0
10
-278.71264366378637
20
130.24991707959248
30
0
10
-278.39395973546243
20
130.47420704063325
30
0
10
-277.9850198506262
20
130.76201920399009
30
0
10
-277.41223895941732
20
130.81330704527818
30
0
10
-276.95155226351721
20
130.59213218813269
30
0
10
-276.47798333011474
20
130.36477259184744
30
0
10
-276.17218222499685
20
129.87470279305501
30
0
10
-276.17218222499241
20
129.37410311779007
30
0
0
SPLINE
5
164
100
AcDbEntity
8
INTERIOR_PROFILES
100
AcDbSpline
70
0
71
3
72
14
73
10
74
0
42
0.000000001
43
0.0000000001
44
0.0000000001
40
0.63286094085522493
40
0.63286094085522493
40
0.63286094085522493
40
0.63286094085522493
40
0.66362066307037382
40
0.66362066307037382
40
0.66362066307037382
40
0.80305270296881992
40
0.80305270296881992
40
0.80305270296881992
40
0.84381458780858365
40
0.84381458780858365
40
0.84381458780858365
40
0.84381458780858365
10
234.78781627934993
20
129.37410311776645
30
0
10
234.78781627934899
20
129.47714717791496
30
0
10
234.79932042847668
20
129.57706407673493
30
0
10
234.82355753606797
20
129.67916206859525
30
0
10
234.93342294151776
20
130.14196635450674
30
0
10
235.30136038148211
20
130.52934327148947
30
0
10
235.77150573935654
20
130.67149503766058
30
0
10
235.90894912001414
20
130.71305201356549
30
0
10
236.05194332988395
20
130.73297660948975
30
0
10
236.18781627934987
20
130.73297660948975
30
0
0
SPLINE
5
165
100
AcDbEntity
8
INTERIOR_PROFILES
100
AcDbSpline
70
0
71
3
72
11
73
7
74
0
42
0.000000001
43
0.0000000001
44
0.0000000001
40
0
40
0
40
0
40
0
40
0.11924447256786487
40
0.11924447256786487
40
0.11924447256786487
40
0.21095364695686639
40
0.21095364695686639
40
0.21095364695686639
40
0.21095364695686639
10
236.1878162793499
20
130.73297660948967
30
0
10
236.58529785457617
20
130.73297660948967
30
0
10
237.01240029236504
20
130.54188878380089
30
0
10
237.2715497821352
20
130.2343119740417
30
0
10
237.47085785267598
20
129.99775916218573
30
0
10
237.58781627936065
20
129.68181739057559
30
0
10
237.58781627934997
20
129.37410311773223
30
0
0
SPLINE
5
166
100
AcDbEntity
8
INTERIOR_PROFILES
100
AcDbSpline
70
0
71
3
72
17
73
13
74
0
42
0.000000001
43
0.0000000001
44
0.0000000001
40
0.21095364695686639
40
0.21095364695686639
40
0.21095364695686639
40
0.21095364695686639
40
0.22477231501701511
40
0.22477231501701511
40
0.22477231501701511
40
0.33805751295650877
40
0.33805751295650877
40
0.33805751295650877
40
0.48342673833216399
40
0.48342673833216399
40
0.48342673833216399
40
0.63286094085522493
40
0.63286094085522493
40
0.63286094085522493
40
0.63286094085522493
10
237.58781627934997
20
129.37410311773223
30
0
10
237.58781627934837
20
129.32773696710311
30
0
10
237.58553379526279
20
129.2839079665132
30
0
10
237.58078451176576
20
129.23809243986798
30
0
10
237.54184996911019
20
128.86249755748756
30
0
10
237.32827771818933
20
128.49828915602575
30
0
10
237.00959378989137
20
128.27399919497353
30
0
10
236.60065390507881
20
127.98618703159531
30
0
10
236.02787301387292
20
127.93489919026796
30
0
10
235.56718631795735
20
128.15607404738421
30
0
10
235.09361738451071
20
128.38343364365301
30
0
10
234.78781627935439
20
128.87350344247267
30
0
10
234.78781627934993
20
129.37410311776645
30
0
0
SPLINE
5
167
100
AcDbEntity
8
INTERIOR_PROFILES
100
AcDbSpline
70
0
71
3
72
14
73
10
74
0
42
0.000000001
43
0.0000000001
44
0.0000000001
40
0.6328609408552206
40
0.6328609408552206
40
0.6328609408552206
40
0.6328609408552206
40
0.66362066307149981
40
0.66362066307149981
40
0.66362066307149981
40
0.80305270296240305
40
0.80305270296240305
40
0.80305270296240305
40
0.8438145878085842
40
0.8438145878085842
40
0.8438145878085842
40
0.8438145878085842
10
234.78781627934993
20
42.477650319472687
30
0
10
234.78781627934899
20
42.58069437962498
30
0
10
234.79932042847759
20
42.680611278448765
30
0
10
234.82355753607064
20
42.782709270312715
30
0
10
234.93342294151864
20
43.245513556198674
30
0
10
235.3013603814486
20
43.63289047316119
30
0
10
235.77150573929163
20
43.775042239347115
30
0
10
235.90894911996912
20
43.816599215265171
30
0
10
236.05194332986264
20
43.836523811195924
30
0
10
236.18781627934993
20
43.836523811195924
30
0
0
SPLINE
5
168
100
AcDbEntity
8
INTERIOR_PROFILES
100
AcDbSpline
70
0
71
3
72
11
73
7
74
0
42
0.000000001
43
0.0000000001
44
0.0000000001
40
0
40
0
40
0
40
0
40
0.11924447256845451
40
0.11924447256845451
40
0.11924447256845451
40
0.21095364695214208
40
0.21095364695214208
40
0.21095364695214208
40
0.21095364695214208
10
236.18781627934993
20
43.836523811195875
30
0
10
236.58529785457816
20
43.836523811195875
30
0
10
237.0124002923684
20
43.645435985505898
30
0
10
237.271549782139
20
43.337859175743453
30
0
10
237.47085785266759
20
43.101306363899781
30
0
10
237.58781627934994
20
42.785364592311183
30
0
10
237.58781627934994
20
42.477650319484553
30
0
0
SPLINE
5
169
100
AcDbEntity
8
INTERIOR_PROFILES
100
AcDbSpline
70
0
71
3
72
17
73
13
74
0
42
0.000000001
43
0.0000000001
44
0.0000000001
40
0.21095364695214208
40
0.21095364695214208
40
0.21095364695214208
40
0.21095364695214208
40
0.22477231501828238
40
0.22477231501828238
40
0.22477231501828238
40
0.33805751295888087
40
0.33805751295888087
40
0.33805751295888087
40
0.48342673833441552
40
0.48342673833441552
40
0.48342673833441552
40
0.6328609408552206
40
0.6328609408552206
40
0.6328609408552206
40
0.6328609408552206
10
237.58781627934994
20
42.477650319484553
30
0
10
237.58781627934994
20
42.431284168835177
30
0
10
237.58553379526401
20
42.387455168226758
30
0
10
237.58078451176448
20
42.341639641561613
30
0
10
237.54184996910485
20
41.966044759177016
30
0
10
237.32827771817742
20
41.601836357715314
30
0
10
237.00959378987139
20
41.377546396665757
30
0
10
236.60065390505281
20
41.089734233293989
30
0
10
236.02787301384672
20
41.038446391977317
30
0
10
235.56718631793592
20
41.25962124910081
30
0
10
235.09361738450087
20
41.486980845373822
30
0
10
234.78781627935444
20
41.977050644186427
30
0
10
234.78781627934993
20
42.477650319472687
30
0
0
SPLINE
5
170
100
AcDbEntity
8
INTERIOR_PROFILES
100
AcDbSpline
70
0
71
3
72
17
73
13
74
0
42
0.000000001
43
0.0000000001
44
0.0000000001
40
0.2231605341026488
40
0.2231605341026488
40
0.2231605341026488
40
0.2231605341026488
40
0.24585253700209056
40
0.24585253700209056
40
0.24585253700209056
40
0.36645655437196151
40
0.36645655437196151
40
0.36645655437196151
40
0.52044483287870347
40
0.52044483287870347
40
0.52044483287870347
40
0.68093235170531563
40
0.68093235170531563
40
0.68093235170531563
40
0.68093235170531563
10
31.237741620888144
20
10.13285955567504
30
0
10
31.236231794779165
20
10.056324968925379
30
0
10
31.240536781995104
20
9.9846950751885704
30
0
10
31.251095372130415
20
9.9091951372760576
30
0
10
31.307212427717065
20
9.5079262028511877
30
0
10
31.545242049716631
20
9.1315528967293567
30
0
10
31.893325985253437
20
8.9015058734873556
30
0
10
32.337762639836683
20
8.6077797948941761
30
0
10
32.942619875224025
20
8.5690804477799905
30
0
10
33.425934106283762
20
8.8114740242418428
30
0
10
33.929647132421486
20
9.0640980813655663
30
0
10
34.247805262023711
20
9.5948587944489176
30
0
10
34.237191921958186
20
10.132859555674933
30
0
0
SPLINE
5
171
100
AcDbEntity
8
INTERIOR_PROFILES
100
AcDbSpline
70
0
71
3
72
11
73
7
74
0
42
0.000000001
43
0.0000000001
44
0.0000000001
40
0
40
0
40
0
40
0
40
0.12570218149255999
40
0.12570218149255999
40
0.12570218149255999
40
0.2231605341026488
40
0.2231605341026488
40
0.2231605341026488
40
0.2231605341026488
10
32.737466771423165
20
11.560940299815066
30
0
10
32.318459499781298
20
11.560940299815066
30
0
10
31.866754874482819
20
11.361815638368547
30
0
10
31.589848691023931
20
11.042469561767552
30
0
10
31.375160129958285
20
10.794876861557569
30
0
10
31.244226071201364
20
10.461562789821873
30
0
10
31.237741620888144
20
10.13285955567504
30
0
0
SPLINE
5
172
100
AcDbEntity
8
INTERIOR_PROFILES
100
AcDbSpline
70
0
71
3
72
14
73
10
74
0
42
0.000000001
43
0.0000000001
44
0.0000000001
40
0.68093235170531563
40
0.68093235170531563
40
0.68093235170531563
40
0.68093235170531563
40
0.71226885932729223
40
0.71226885932729223
40
0.71226885932729223
40
0.85926064798714674
40
0.85926064798714674
40
0.85926064798714674
40
0.90409288577588098
40
0.90409288577588098
40
0.90409288577588098
40
0.90409288577588098
10
34.237191921958186
20
10.132859555674933
30
0
10
34.235119580044689
20
10.237908627889718
30
0
10
34.221830200459877
20
10.340299209066188
30
0
10
34.196180462725003
20
10.44419852384169
30
0
10
34.075863901805469
20
10.931564451902975
30
0
10
33.689782344564662
20
11.337613521490457
30
0
10
33.195222116863469
20
11.4914739249212
30
0
10
33.044382114634104
20
11.538401078170828
30
0
10
32.886907564052279
20
11.560940299815051
30
0
10
32.737466771423172
20
11.560940299815051
30
0
0
SPLINE
5
173
100
AcDbEntity
8
INTERIOR_PROFILES
100
AcDbSpline
70
0
71
3
72
17
73
13
74
0
42
0.000000001
43
0.0000000001
44
0.0000000001
40
0.22316053410263442
40
0.22316053410263442
40
0.22316053410263442
40
0.22316053410263442
40
0.24585253700136173
40
0.24585253700136173
40
0.24585253700136173
40
0.36645655437040031
40
0.36645655437040031
40
0.36645655437040031
40
0.5204448328767185
40
0.5204448328767185
40
0.5204448328767185
40
0.68093235170531763
40
0.68093235170531763
40
0.68093235170531763
40
0.68093235170531763
10
204.6752416208881
20
10.132859555675147
30
0
10
204.67373179477917
20
10.056324968927919
30
0
10
204.67803678199485
20
9.9846950751934198
30
0
10
204.68859537212938
20
9.9091951372832927
30
0
10
204.74471242771355
20
9.507926202861249
30
0
10
204.98274204970875
20
9.131552896739862
30
0
10
205.3308259852399
20
8.9015058734962249
30
0
10
205.77526263981775
20
8.6077797948997343
30
0
10
206.38011987520284
20
8.5690804477776616
30
0
10
206.86343410626503
20
8.8114740242324032
30
0
10
207.36714713241295
20
9.064098081352542
30
0
10
207.68530526202386
20
9.5948587944422794
30
0
10
207.67469192195821
20
10.132859555674933
30
0
0
SPLINE
5
174
100
AcDbEntity
8
INTERIOR_PROFILES
100
AcDbSpline
70
0
71
3
72
11
73
7
74
0
42
0.000000001
43
0.0000000001
44
0.0000000001
40
0
40
0
40
0
40
0
40
0.12570218149220963
40
0.12570218149220963
40
0.12570218149220963
40
0.22316053410263442
40
0.22316053410263442
40
0.22316053410263442
40
0.22316053410263442
10
206.17496677142316
20
11.56094029981503
30
0
10
205.75595949978248
20
11.560940299815028
30
0
10
205.304254874485
20
11.361815638369464
30
0
10
205.02734869102625
20
11.04246956177019
30
0
10
204.8126601299594
20
10.794876861559999
30
0
10
204.68172607120138
20
10.461562789823013
30
0
10
204.6752416208881
20
10.132859555675147
30
0
0
SPLINE
5
175
100
AcDbEntity
8
INTERIOR_PROFILES
100
AcDbSpline
70
0
71
3
72
14
73
10
74
0
42
0.000000001
43
0.0000000001
44
0.0000000001
40
0.68093235170531763
40
0.68093235170531763
40
0.68093235170531763
40
0.68093235170531763
40
0.7122688593262998
40
0.7122688593262998
40
0.7122688593262998
40
0.8592606479846896
40
0.8592606479846896
40
0.8592606479846896
40
0.90409288577588098
40
0.90409288577588098
40
0.90409288577588098
40
0.90409288577588098
10
207.67469192195821
20
10.132859555674933
30
0
10
207.6726195800448
20
10.237908627886378
30
0
10
207.65933020046074
20
10.340299209059491
30
0
10
207.63368046272745
20
10.44419852383179
30
0
10
207.51336390181274
20
10.931564451888667
30
0
10
207.12728234458214
20
11.337613521475816
30
0
10
206.63272211688823
20
11.491473924913453
30
0
10
206.48188211465134
20
11.538401078168224
30
0
10
206.32440756406044
20
11.560940299815014
30
0
10
206.17496677142316
20
11.560940299815014
30
0
0
SPLINE
5
176
100
AcDbEntity
8
INTERIOR_PROFILES
100
AcDbSpline
70
0
71
3
72
14
73
10
74
0
42
0.000000001
43
0.0000000001
44
0.0000000001
40
0.68093235170531308
40
0.68093235170531308
40
0.68093235170531308
40
0.68093235170531308
40
0.7122688593244848
40
0.7122688593244848
40
0.7122688593244848
40
0.85926064798129931
40
0.85926064798129931
40
0.85926064798129931
40
0.90409288577588098
40
0.90409288577588098
40
0.90409288577588098
40
0.90409288577588098
10
-197.01280807804181
20
10.132859555674933
30
0
10
-197.01488041995515
20
10.237908627880296
30
0
10
-197.02816979953775
20
10.340299209047327
30
0
10
-197.05381953726814
20
10.444198523813807
30
0
10
-197.17413609817501
20
10.931564451866311
30
0
10
-197.56021765539214
20
11.337613521455175
30
0
10
-198.05477788307752
20
11.491473924902873
30
0
10
-198.20561788532484
20
11.538401078164762
30
0
10
-198.36309243592822
20
11.560940299815085
30
0
10
-198.51253322857684
20
11.560940299815087
30
0
0
SPLINE
5
177
100
AcDbEntity
8
INTERIOR_PROFILES
100
AcDbSpline
70
0
71
3
72
17
73
13
74
0
42
0.000000001
43
0.0000000001
44
0.0000000001
40
0.22316053410264619
40
0.22316053410264619
40
0.22316053410264619
40
0.22316053410264619
40
0.24585253699975551
40
0.24585253699975551
40
0.24585253699975551
40
0.36645655436620678
40
0.36645655436620678
40
0.36645655436620678
40
0.52044483287308851
40
0.52044483287308851
40
0.52044483287308851
40
0.68093235170531308
40
0.68093235170531308
40
0.68093235170531308
40
0.68093235170531308
10
-200.01225837911187
20
10.132859555675076
30
0
10
-200.01376820522069
20
10.05632496893336
30
0
10
-200.00946321800572
20
9.9846950752040442
30
0
10
-199.9989046278728
20
9.9091951372993776
30
0
10
-199.94278757229463
20
9.5079262028863489
30
0
10
-199.70475795031172
20
9.1315528967679764
30
0
10
-199.3566740147964
20
8.9015058735203212
30
0
10
-198.91223736022764
20
8.6077797949113251
30
0
10
-198.30738012484008
20
8.5690804477714391
30
0
10
-197.82406589376907
20
8.8114740242153626
30
0
10
-197.32035286760248
20
9.0640980813290088
30
0
10
-197.00219473797591
20
9.5948587944301913
30
0
10
-197.01280807804181
20
10.132859555674933
30
0
0
SPLINE
5
178
100
AcDbEntity
8
INTERIOR_PROFILES
100
AcDbSpline
70
0
71
3
72
11
73
7
74
0
42
0.000000001
43
0.0000000001
44
0.0000000001
40
0
40
0
40
0
40
0
40
0.1257021814906904
40
0.1257021814906904
40
0.1257021814906904
40
0.22316053410264619
40
0.22316053410264619
40
0.22316053410264619
40
0.22316053410264619
10
-198.51253322857687
20
11.560940299815101
30
0
10
-198.93154050021252
20
11.560940299815105
30
0
10
-199.3832451255056
20
11.361815638373631
30
0
10
-199.66015130896369
20
11.042469561781843
30
0
10
-199.87483987003606
20
10.79487686157057
30
0
10
-200.0057739287985
20
10.461562789827861
30
0
10
-200.01225837911187
20
10.132859555675076
30
0
0
SPLINE
5
179
100
AcDbEntity
8
INTERIOR_PROFILES
100
AcDbSpline
70
0
71
3
72
17
73
13
74
0
42
0.000000001
43
0.0000000001
44
0.0000000001
40
0.22316053410264308
40
0.22316053410264308
40
0.22316053410264308
40
0.22316053410264308
40
0.24585253699958037
40
0.24585253699958037
40
0.24585253699958037
40
0.36645655436534358
40
0.36645655436534358
40
0.36645655436534358
40
0.52044483287216836
40
0.52044483287216836
40
0.52044483287216836
40
0.68093235170531319
40
0.68093235170531319
40
0.68093235170531319
40
0.68093235170531319
10
-142.19975837911187
20
10.132859555675111
30
0
10
-142.20126820522066
20
10.056324968933982
30
0
10
-142.19696321800583
20
9.984695075205229
30
0
10
-142.18640462787309
20
9.9091951373011309
30
0
10
-142.13028757229571
20
9.5079262028903742
30
0
10
-141.89225795031544
20
9.131552896773389
30
0
10
-141.54417401480387
20
8.9015058735252364
30
0
10
-141.0997373602375
20
8.6077797949140376
30
0
10
-140.4948801248504
20
8.569080447770105
30
0
10
-140.01156589377777
20
8.811474024210975
30
0
10
-139.50785286760637
20
9.0640980813229817
30
0
10
-139.18969473797586
20
9.5948587944271342
30
0
10
-139.20030807804181
20
10.132859555674933
30
0
0
SPLINE
5
180
100
AcDbEntity
8
INTERIOR_PROFILES
100
AcDbSpline
70
0
71
3
72
11
73
7
74
0
42
0.000000001
43
0.0000000001
44
0.0000000001
40
0
40
0
40
0
40
0
40
0.12570218149058598
40
0.12570218149058598
40
0.12570218149058598
40
0.22316053410264308
40
0.22316053410264308
40
0.22316053410264308
40
0.22316053410264308
10
-140.70003322857687
20
11.560940299815066
30
0
10
-141.11904050021218
20
11.560940299815066
30
0
10
-141.57074512550497
20
11.361815638373889
30
0
10
-141.84765130896301
20
11.042469561782616
30
0
10
-142.06233987003574
20
10.79487686157128
30
0
10
-142.1932739287985
20
10.461562789828223
30
0
10
-142.19975837911187
20
10.132859555675111
30
0
0
SPLINE
5
181
100
AcDbEntity
8
INTERIOR_PROFILES
100
AcDbSpline
70
0
71
3
72
14
73
10
74
0
42
0.000000001
43
0.0000000001
44
0.0000000001
40
0.68093235170531319
40
0.68093235170531319
40
0.68093235170531319
40
0.68093235170531319
40
0.71226885932402473
40
0.71226885932402473
40
0.71226885932402473
40
0.8592606479829008
40
0.8592606479829008
40
0.8592606479829008
40
0.90409288577588098
40
0.90409288577588098
40
0.90409288577588098
40
0.90409288577588098
10
-139.20030807804181
20
10.132859555674933
30
0
10
-139.20238041995509
20
10.237908627878749
30
0
10
-139.21566979953727
20
10.340299209044218
30
0
10
-139.24131953726697
20
10.444198523809211
30
0
10
-139.36163609817388
20
10.931564451868741
30
0
10
-139.74771765539984
20
11.337613521463547
30
0
10
-140.24227788309366
20
11.491473924907883
30
0
10
-140.39311788533607
20
11.538401078166409
30
0
10
-140.55059243593357
20
11.560940299815064
30
0
10
-140.70003322857684
20
11.560940299815064
30
0
0
SPLINE
5
182
100
AcDbEntity
8
INTERIOR_PROFILES
100
AcDbSpline
70
0
71
3
72
17
73
13
74
0
42
0.000000001
43
0.0000000001
44
0.0000000001
40
0.22316053410264786
40
0.22316053410264786
40
0.22316053410264786
40
0.22316053410264786
40
0.2458525370008659
40
0.2458525370008659
40
0.2458525370008659
40
0.36645655436866775
40
0.36645655436866775
40
0.36645655436866775
40
0.52044483287515264
40
0.52044483287515264
40
0.52044483287515264
40
0.68093235170531374
40
0.68093235170531374
40
0.68093235170531374
40
0.68093235170531374
10
-257.82475837911193
20
10.132859555675076
30
0
10
-257.8262682052208
20
10.056324968929584
30
0
10
-257.82196321800535
20
9.9846950751966936
30
0
10
-257.8114046278713
20
9.9091951372882932
30
0
10
-257.75528757228921
20
9.5079262028705376
30
0
10
-257.51725795029921
20
9.1315528967511899
30
0
10
-257.16917401477508
20
8.9015058735062365
30
0
10
-256.72473736020117
20
8.6077797949047348
30
0
10
-256.11988012481538
20
8.5690804477751232
30
0
10
-255.63656589374966
20
8.8114740242251042
30
0
10
-255.1328528675937
20
9.0640980813424648
30
0
10
-254.81469473797605
20
9.5948587944370889
30
0
10
-254.82530807804181
20
10.132859555674933
30
0
0
SPLINE
5
183
100
AcDbEntity
8
INTERIOR_PROFILES
100
AcDbSpline
70
0
71
3
72
11
73
7
74
0
42
0.000000001
43
0.0000000001
44
0.0000000001
40
0
40
0
40
0
40
0
40
0.12570218149172671
40
0.12570218149172671
40
0.12570218149172671
40
0.22316053410264786
40
0.22316053410264786
40
0.22316053410264786
40
0.22316053410264786
10
-256.32503322857679
20
11.560940299815101
30
0
10
-256.74404050021587
20
11.56094029981511
30
0
10
-257.19574512551202
20
11.361815638370834
30
0
10
-257.47265130897057
20
11.042469561773949
30
0
10
-257.68733987003918
20
10.794876861563395
30
0
10
-257.81827392879865
20
10.461562789824537
30
0
10
-257.82475837911193
20
10.132859555675076
30
0
0
SPLINE
5
184
100
AcDbEntity
8
INTERIOR_PROFILES
100
AcDbSpline
70
0
71
3
72
14
73
10
74
0
42
0.000000001
43
0.0000000001
44
0.0000000001
40
0.68093235170531374
40
0.68093235170531374
40
0.68093235170531374
40
0.68093235170531374
40
0.71226885932551687
40
0.71226885932551687
40
0.71226885932551687
40
0.85926064798187052
40
0.85926064798187052
40
0.85926064798187052
40
0.90409288577588098
40
0.90409288577588098
40
0.90409288577588098
40
0.90409288577588098
10
-254.82530807804181
20
10.132859555674933
30
0
10
-254.8273804199552
20
10.237908627883758
30
0
10
-254.8406697995386
20
10.340299209054283
30
0
10
-254.86631953727061
20
10.444198523824074
30
0
10
-254.9866360981809
20
10.93156445187455
30
0
10
-255.37271765539901
20
11.337613521459467
30
0
10
-255.86727788308332
20
11.491473924904671
30
0
10
-256.01811788532882
20
11.53840107816535
30
0
10
-256.17559243593013
20
11.56094029981508
30
0
10
-256.32503322857679
20
11.560940299815082
30
0
0
SPLINE
5
185
100
AcDbEntity
8
INTERIOR_PROFILES
100
AcDbSpline
70
0
71
3
72
14
73
10
74
0
42
0.000000001
43
0.0000000001
44
0.0000000001
40
0.68093235170531452
40
0.68093235170531452
40
0.68093235170531452
40
0.68093235170531452
40
0.71226885932517781
40
0.71226885932517781
40
0.71226885932517781
40
0.85926064798392365
40
0.85926064798392365
40
0.85926064798392365
40
0.90409288577588098
40
0.90409288577588098
40
0.90409288577588098
40
0.90409288577588098
10
-23.575308078041814
20
10.132859555674933
30
0
10
-23.577380419955173
20
10.237908627882618
30
0
10
-23.590669799538286
20
10.34029920905196
30
0
10
-23.616319537269796
20
10.444198523820658
30
0
10
-23.736636098180767
20
10.931564451879224
30
0
10
-24.122717655409602
20
11.337613521470399
30
0
10
-24.617277883103998
20
11.49147392491108
30
0
10
-24.768117885343269
20
11.538401078167466
30
0
10
-24.925592435936977
20
11.560940299815048
30
0
10
-25.075033228576828
20
11.560940299815048
30
0
0
SPLINE
5
186
100
AcDbEntity
8
INTERIOR_PROFILES
100
AcDbSpline
70
0
71
3
72
17
73
13
74
0
42
0.000000001
43
0.0000000001
44
0.0000000001
40
0.22316053410263292
40
0.22316053410263292
40
0.22316053410263292
40
0.22316053410263292
40
0.24585253700051818
40
0.24585253700051818
40
0.24585253700051818
40
0.36645655436798064
40
0.36645655436798064
40
0.36645655436798064
40
0.52044483287447463
40
0.52044483287447463
40
0.52044483287447463
40
0.68093235170531452
40
0.68093235170531452
40
0.68093235170531452
40
0.68093235170531452
10
-26.574758379111856
20
10.132859555675182
30
0
10
-26.576268205220739
20
10.056324968930825
30
0
10
-26.571963218005482
20
9.9846950751990313
30
0
10
-26.561404627871763
20
9.9091951372917499
30
0
10
-26.505287572290854
20
9.5079262028751845
30
0
10
-26.267257950302824
20
9.1315528967559594
30
0
10
-25.919174014781028
20
8.9015058735101356
30
0
10
-25.474737360208792
20
8.6077797949066817
30
0
10
-24.86988012482318
20
8.5690804477740539
30
0
10
-24.386565893756046
20
8.8114740242218588
30
0
10
-23.882852867596537
20
9.0640980813380025
30
0
10
-23.564694737976019
20
9.594858794434824
30
0
10
-23.575308078041814
20
10.132859555674933
30
0
0
SPLINE
5
187
100
AcDbEntity
8
INTERIOR_PROFILES
100
AcDbSpline
70
0
71
3
72
11
73
7
74
0
42
0.000000001
43
0.0000000001
44
0.0000000001
40
0
40
0
40
0
40
0
40
0.12570218149132625
40
0.12570218149132625
40
0.12570218149132625
40
0.22316053410263292
40
0.22316053410263292
40
0.22316053410263292
40
0.22316053410263292
10
-25.075033228576835
20
11.560940299815066
30
0
10
-25.494040500214595
20
11.560940299815066
30
0
10
-25.945745125509553
20
11.361815638371857
30
0
10
-26.222651308967908
20
11.042469561776951
30
0
10
-26.437339870037935
20
10.794876861566165
30
0
10
-26.568273928798519
20
10.461562789825894
30
0
10
-26.574758379111856
20
10.132859555675182
30
0
0
SPLINE
5
188
100
AcDbEntity
8
INTERIOR_PROFILES
100
AcDbSpline
70
0
71
3
72
11
73
7
74
0
42
0.000000001
43
0.0000000001
44
0.0000000001
40
0
40
0
40
0
40
0
40
0.12570218149342716
40
0.12570218149342716
40
0.12570218149342716
40
0.22316053410264294
40
0.22316053410264294
40
0.22316053410264294
40
0.22316053410264294
10
148.36246677142313
20
11.56094029981503
30
0
10
147.94345949977836
20
11.56094029981503
30
0
10
147.49175487447749
20
11.361815638366222
30
0
10
147.2148486910182
20
11.042469561760926
30
0
10
147.00016012995567
20
10.794876861551534
30
0
10
146.8692260712013
20
10.46156278981911
30
0
10
146.8627416208881
20
10.132859555675076
30
0
0
SPLINE
5
189
100
AcDbEntity
8
INTERIOR_PROFILES
100
AcDbSpline
70
0
71
3
72
14
73
10
74
0
42
0.000000001
43
0.0000000001
44
0.0000000001
40
0.6809323517053183
40
0.6809323517053183
40
0.6809323517053183
40
0.6809323517053183
40
0.71226885932899686
40
0.71226885932899686
40
0.71226885932899686
40
0.85926064798804647
40
0.85926064798804647
40
0.85926064798804647
40
0.90409288577588098
40
0.90409288577588098
40
0.90409288577588098
40
0.90409288577588098
10
149.86219192195821
20
10.132859555674933
30
0
10
149.86011958004462
20
10.237908627895433
30
0
10
149.84683020045838
20
10.340299209077656
30
0
10
149.82118046272083
20
10.444198523858635
30
0
10
149.7008639017958
20
10.931564451916465
30
0
10
149.31478234455372
20
11.337613521497243
30
0
10
148.82022211685441
20
11.491473924924005
30
0
10
148.66938211462781
20
11.538401078171731
30
0
10
148.51190756404924
20
11.560940299815034
30
0
10
148.36246677142313
20
11.560940299815034
30
0
0
SPLINE
5
190
100
AcDbEntity
8
INTERIOR_PROFILES
100
AcDbSpline
70
0
71
3
72
17
73
13
74
0
42
0.000000001
43
0.0000000001
44
0.0000000001
40
0.22316053410264294
40
0.22316053410264294
40
0.22316053410264294
40
0.22316053410264294
40
0.24585253700301074
40
0.24585253700301074
40
0.24585253700301074
40
0.36645655437519858
40
0.36645655437519858
40
0.36645655437519858
40
0.52044483288211274
40
0.52044483288211274
40
0.52044483288211274
40
0.6809323517053183
40
0.6809323517053183
40
0.6809323517053183
40
0.6809323517053183
10
146.8627416208881
20
10.132859555675076
30
0
10
146.86123179477906
20
10.056324968922258
30
0
10
146.86553678199547
20
9.9846950751825005
30
0
10
146.87609537213172
20
9.9091951372668579
30
0
10
146.93221242772213
20
9.5079262028340281
30
0
10
147.1702420497314
20
9.1315528967083797
30
0
10
147.51832598528145
20
8.9015058734687944
30
0
10
147.96276263987355
20
8.6077797948840136
30
0
10
148.56761987526212
20
8.5690804477847564
30
0
10
149.05093410631588
20
8.8114740242579046
30
0
10
149.55464713243606
20
9.0640980813877565
30
0
10
149.87280526202352
20
9.5948587944602757
30
0
10
149.86219192195821
20
10.132859555674933
30
0
0
SPLINE
5
191
100
AcDbEntity
8
INTERIOR_PROFILES
100
AcDbSpline
70
0
71
3
72
11
73
7
74
0
42
0.000000001
43
0.0000000001
44
0.0000000001
40
0
40
0
40
0
40
0
40
0.1257021814915808
40
0.1257021814915808
40
0.1257021814915808
40
0.22316053410264713
40
0.22316053410264713
40
0.22316053410264713
40
0.22316053410264713
10
-82.887533228576871
20
11.560940299815066
30
0
10
-83.306540500215476
20
11.560940299815066
30
0
10
-83.75824512551111
20
11.361815638371217
30
0
10
-84.035151308969574
20
11.042469561775034
30
0
10
-84.249839870038727
20
10.79487686156437
30
0
10
-84.380773928798561
20
10.461562789825024
30
0
10
-84.387258379111856
20
10.132859555675076
30
0
0
SPLINE
5
192
100
AcDbEntity
8
INTERIOR_PROFILES
100
AcDbSpline
70
0
71
3
72
14
73
10
74
0
42
0.000000001
43
0.0000000001
44
0.0000000001
40
0.68093235170531641
40
0.68093235170531641
40
0.68093235170531641
40
0.68093235170531641
40
0.71226885932572226
40
0.71226885932572226
40
0.71226885932572226
40
0.85926064798436952
40
0.85926064798436952
40
0.85926064798436952
40
0.90409288577588098
40
0.90409288577588098
40
0.90409288577588098
40
0.90409288577588098
10
-81.387808078041814
20
10.132859555674969
30
0
10
-81.389880419955205
20
10.237908627884478
30
0
10
-81.403169799538773
20
10.340299209055653
30
0
10
-81.428819537271139
20
10.444198523826095
30
0
10
-81.549136098184007
20
10.931564451884089
30
0
10
-81.935217655413993
20
11.337613521473443
30
0
10
-82.4297778831085
20
11.491473924912492
30
0
10
-82.580617885346399
20
11.538401078167944
30
0
10
-82.738092435938455
20
11.560940299815064
30
0
10
-82.887533228576814
20
11.560940299815064
30
0
0
SPLINE
5
193
100
AcDbEntity
8
INTERIOR_PROFILES
100
AcDbSpline
70
0
71
3
72
17
73
13
74
0
42
0.000000001
43
0.0000000001
44
0.0000000001
40
0.22316053410264713
40
0.22316053410264713
40
0.22316053410264713
40
0.22316053410264713
40
0.24585253700083948
40
0.24585253700083948
40
0.24585253700083948
40
0.3664565543688173
40
0.3664565543688173
40
0.3664565543688173
40
0.52044483287556353
40
0.52044483287556353
40
0.52044483287556353
40
0.68093235170531641
40
0.68093235170531641
40
0.68093235170531641
40
0.68093235170531641
10
-84.387258379111856
20
10.132859555675076
30
0
10
-84.388768205220757
20
10.056324968929673
30
0
10
-84.384463218005351
20
9.9846950751968784
30
0
10
-84.373904627871326
20
9.9091951372885632
30
0
10
-84.317787572289234
20
9.5079262028702054
30
0
10
-84.079757950298728
20
9.131552896750371
30
0
10
-83.731674014773773
20
8.9015058735053589
30
0
10
-83.287237360198688
20
8.6077797949037134
30
0
10
-82.68238012481163
20
8.569080447775292
30
0
10
-82.199065893745797
20
8.8114740242270138
30
0
10
-81.695352867591865
20
9.0640980813451151
30
0
10
-81.377194737976083
20
9.5948587944384816
30
0
10
-81.387808078041814
20
10.132859555674969
30
0
0
SPLINE
5
194
100
AcDbEntity
8
INTERIOR_PROFILES
100
AcDbSpline
70
0
71
3
72
14
73
10
74
0
42
0.000000001
43
0.0000000001
44
0.0000000001
40
0.6809323517053173
40
0.6809323517053173
40
0.6809323517053173
40
0.6809323517053173
40
0.71226885933226836
40
0.71226885933226836
40
0.71226885933226836
40
0.85926064799158519
40
0.85926064799158519
40
0.85926064799158519
40
0.90409288577588098
40
0.90409288577588098
40
0.90409288577588098
40
0.90409288577588098
10
92.0496919219582
20
10.132859555674933
30
0
10
92.047619580044383
20
10.237908627906432
30
0
10
92.034330200455571
20
10.340299209099655
30
0
10
92.008680462712789
20
10.444198523891172
30
0
10
91.888363901775691
20
10.931564451948434
30
0
10
91.502282344522271
20
11.337613521520179
30
0
10
91.007722116818684
20
11.491473924935072
30
0
10
90.856882114602953
20
11.538401078175388
30
0
10
90.699407564037472
20
11.56094029981503
30
0
10
90.549966771423158
20
11.56094029981503
30
0
0
SPLINE
5
195
100
AcDbEntity
8
INTERIOR_PROFILES
100
AcDbSpline
70
0
71
3
72
17
73
13
74
0
42
0.000000001
43
0.0000000001
44
0.0000000001
40
0.22316053410263756
40
0.22316053410263756
40
0.22316053410263756
40
0.22316053410263756
40
0.24585253700594747
40
0.24585253700594747
40
0.24585253700594747
40
0.36645655438195379
40
0.36645655438195379
40
0.36645655438195379
40
0.52044483288865562
40
0.52044483288865562
40
0.52044483288865562
40
0.6809323517053173
40
0.6809323517053173
40
0.6809323517053173
40
0.6809323517053173
10
89.050241620888144
20
10.132859555675147
30
0
10
89.048731794778902
20
10.056324968912303
30
0
10
89.053036781996568
20
9.9846950751630761
30
0
10
89.063595372135808
20
9.9091951372375409
30
0
10
89.119712427736658
20
9.5079262027914542
30
0
10
89.357742049765307
20
9.1315528966626758
30
0
10
89.705825985339956
20
8.9015058734301569
30
0
10
90.150262639948807
20
8.6077797948641042
30
0
10
90.755119875337087
20
8.5690804477948497
30
0
10
91.238434106377483
20
8.8114740242888008
30
0
10
91.742147132463941
20
9.0640980814303838
30
0
10
92.060305262023093
20
9.5948587944820769
30
0
10
92.0496919219582
20
10.132859555674933
30
0
0
SPLINE
5
196
100
AcDbEntity
8
INTERIOR_PROFILES
100
AcDbSpline
70
0
71
3
72
11
73
7
74
0
42
0.000000001
43
0.0000000001
44
0.0000000001
40
0
40
0
40
0
40
0
40
0.12570218149558054
40
0.12570218149558054
40
0.12570218149558054
40
0.22316053410263756
40
0.22316053410263756
40
0.22316053410263756
40
0.22316053410263756
10
90.549966771423215
20
11.56094029981503
30
0
10
90.130959499771279
20
11.56094029981503
30
0
10
89.679254874464164
20
11.361815638360406
30
0
10
89.402348691003965
20
11.042469561744515
30
0
10
89.187660129949151
20
10.794876861536633
30
0
10
89.056726071201211
20
10.461562789812341
30
0
10
89.050241620888144
20
10.132859555675147
30
0
0
LINE
5
197
100
AcDbEntity
8
BEND
100
AcDbLine
10
244.08781627934997
20
85.19761758877948
30
1.0171726172857633e-13
11
-289.71218372064999
21
85.19761758877948
31
1.0171726172857633e-13
0
ENDSEC
0
SECTION
2
OBJECTS
0
DICTIONARY
5
C
100
AcDbDictionary
3
ACAD_GROUP
350
D
3
ACAD_MLINESTYLE
350
17
0
DICTIONARY
5
D
100
AcDbDictionary
0
DICTIONARY
5
1A
330
C
100
AcDbDictionary
0
DICTIONARY
5
17
100
AcDbDictionary
0
ENDSEC
0
EOF
