0
SECTION
2
HEADER
9
$INSUNITS
70
4
9
$ACADVER
1
AC1014
9
$HANDSEED
5
FFFF
0
ENDSEC
0
SECTION
2
TABLES
0
TABLE
2
VPORT
5
8
100
AcDbSymbolTable
0
ENDTAB
0
TABLE
2
LTYPE
5
5
100
AcDbSymbolTable
0
LTYPE
5
14
100
AcDbSymbolTableRecord
100
AcDbLinetypeTableRecord
2
BYBLOCK
70
0
0
LTYPE
5
15
100
AcDbSymbolTableRecord
100
AcDbLinetypeTableRecord
2
BYLAYER
70
0
0
ENDTAB
0
TABLE
2
LAYER
5
2
100
AcDbSymbolTable
70
2
0
LAYER
5
50
100
AcDbSymbolTableRecord
100
AcDbLayerTableRecord
2
0
70
0
6
CONTINUOUS
0
ENDTAB
0
TABLE
2
STYLE
5
3
100
AcDbSymbolTable
70
1
0
STYLE
5
11
100
AcDbSymbolTableRecord
100
AcDbTextStyleTableRecord
2
STANDARD
70
0
0
ENDTAB
0
TABLE
2
VIEW
5
6
100
AcDbSymbolTable
70
0
0
ENDTAB
0
TABLE
2
UCS
5
7
100
AcDbSymbolTable
70
0
0
ENDTAB
0
TABLE
2
APPID
5
9
100
AcDbSymbolTable
70
2
0
APPID
5
12
100
AcDbSymbolTableRecord
100
AcDbRegAppTableRecord
2
ACAD
70
0
0
ENDTAB
0
TABLE
2
DIMSTYLE
5
A
100
AcDbSymbolTable
70
1
0
ENDTAB
0
TABLE
2
BLOCK_RECORD
5
1
100
AcDbSymbolTable
70
1
0
BLOCK_RECORD
5
1F
100
AcDbSymbolTableRecord
100
AcDbBlockTableRecord
2
*MODEL_SPACE
0
BLOCK_RECORD
5
1B
100
AcDbSymbolTableRecord
100
AcDbBlockTableRecord
2
*PAPER_SPACE
0
ENDTAB
0
ENDSEC
0
SECTION
2
BLOCKS
0
BLOCK
5
20
100
AcDbEntity
100
AcDbBlockBegin
2
*MODEL_SPACE
0
ENDBLK
5
21
100
AcDbEntity
100
AcDbBlockEnd
0
BLOCK
5
1C
100
AcDbEntity
100
AcDbBlockBegin
2
*PAPER_SPACE
0
ENDBLK
5
1D
100
AcDbEntity
100
AcDbBlockEnd
0
ENDSEC
0
SECTION
2
ENTITIES
0
LINE
5
100
100
AcDbEntity
8
0
100
AcDbLine
10
47.184520235700944
20
36.030381294451097
30
3.944304526105059e-30
11
47.184520235700944
21
2.5507027787019876
31
2.9582283945787943e-30
0
SPLINE
5
101
100
AcDbEntity
8
0
100
AcDbSpline
70
0
71
3
72
11
73
7
74
0
42
0.000000001
43
0.0000000001
44
0.0000000001
40
0
40
0
40
0
40
0
40
0.32190227663331039
40
0.32190227663331039
40
0.32190227663331039
40
0.47513676575857372
40
0.47513676575857372
40
0.47513676575857372
40
0.47513676575857372
10
44.159076774551735
20
-0.36211720442173739
30
0
10
45.23204577193443
20
-0.37094932610588416
30
0
10
46.281379014061457
20
0.22285911105477882
30
0
10
46.803002872957848
20
1.1286031571553761
30
0
10
47.0513104225953
20
1.5597626619406613
30
0
10
47.184520235700944
20
2.0549666990803903
30
0
10
47.184520235700944
20
2.5507027787019974
30
1.9721522630525295e-30
0
LINE
5
102
100
AcDbEntity
8
0
100
AcDbLine
10
44.159076774551735
20
-0.36211720442173739
30
0
11
0
21
0.0013773051903909206
31
3.0044507132440879e-30
0
LINE
5
103
100
AcDbEntity
8
0
100
AcDbLine
10
0
20
0.0013773051903909206
30
3.0044507132440879e-30
11
3.7890902523504913e-46
21
-1.3322676295501878e-14
31
8.8746851837363828e-30
0
LINE
5
104
100
AcDbEntity
8
0
100
AcDbLine
10
3.7890902523504913e-46
20
-1.3322676295501878e-14
30
8.8746851837363828e-30
11
-25.399997004755335
21
1.9451107391432743e-12
31
2.4164291404776418e-30
0
LINE
5
105
100
AcDbEntity
8
0
100
AcDbLine
10
-25.399997004755335
20
1.9451107391432743e-12
30
2.4164291404776418e-30
11
-25.400000065409039
21
0.0013773050505783146
31
0
0
LINE
5
106
100
AcDbEntity
8
0
100
AcDbLine
10
-25.400000065409039
20
0.0013773050505783146
30
0
11
-69.559076774551698
21
-0.36211720442183459
31
2.0183745817178232e-30
0
SPLINE
5
107
100
AcDbEntity
8
0
100
AcDbSpline
70
0
71
3
72
11
73
7
74
0
42
0.000000001
43
0.0000000001
44
0.0000000001
40
0
40
0
40
0
40
0
40
0.32172067771671531
40
0.32172067771671531
40
0.32172067771671531
40
0.47516281237416425
40
0.47516281237416425
40
0.47516281237416425
40
0.47516281237416425
10
-72.58452023570095
20
2.5507027787018561
30
-1.9721522630525295e-30
10
-72.58452023570095
20
1.5099081651762514
30
0
10
-71.965566512112687
20
0.49692165111516629
30
0
10
-71.029110339685786
20
-0.0024343818669656653
30
0
10
-70.58247496912108
20
-0.24059829535443503
30
0
10
-70.07050290593159
20
-0.36632699784162259
30
0
10
-69.559076774551713
20
-0.36211720442185008
30
0
0
LINE
5
108
100
AcDbEntity
8
0
100
AcDbLine
10
-72.58452023570095
20
2.5507027787018561
30
-1.9721522630525295e-30
11
-72.584520235700893
21
36.030381294451082
31
5.9164567891575885e-30
0
SPLINE
5
109
100
AcDbEntity
8
0
100
AcDbSpline
70
0
71
3
72
11
73
7
74
0
42
0.000000001
43
0.0000000001
44
0.0000000001
40
0
40
0
40
0
40
0
40
0.32190227351428913
40
0.32190227351428913
40
0.32190227351428913
40
0.47513676492430473
40
0.47513676492430473
40
0.47513676492430473
40
0.47513676492430473
10
-69.559076774551698
20
38.943201277574872
30
-1.9721522630525295e-30
10
-70.632045761538066
20
38.952033399173445
30
1.9721522630525295e-30
10
-71.681378992218555
20
38.358224982689421
30
0
10
-72.203002861026874
20
37.452480936714522
30
0
10
-72.451310421490945
20
37.021321421382758
30
0
10
-72.584520235700936
20
36.526117381432144
30
1.9721522630525295e-30
10
-72.584520235700921
20
36.030381294451082
30
0
0
LINE
5
110
100
AcDbEntity
8
0
100
AcDbLine
10
-69.559076774551698
20
38.943201277574872
30
-1.9721522630525295e-30
11
-25.39999999999992
21
38.57970676796262
31
-4.622231866529366e-32
0
LINE
5
111
100
AcDbEntity
8
0
100
AcDbLine
10
-25.39999999999992
20
38.57970676796262
30
-4.622231866529366e-32
11
-25.39999999999992
21
38.581084073153072
31
3.944304526105059e-30
0
LINE
5
112
100
AcDbEntity
8
0
100
AcDbLine
10
-25.39999999999992
20
38.581084073153072
30
3.944304526105059e-30
11
-2.9952445146363971e-06
21
38.581084073153072
31
5.4179925410113509e-31
0
LINE
5
113
100
AcDbEntity
8
0
100
AcDbLine
10
-2.9952445146363971e-06
20
38.581084073153072
30
5.4179925410113509e-31
11
6.5409153648943175e-08
21
38.579706768102419
31
0
0
LINE
5
114
100
AcDbEntity
8
0
100
AcDbLine
10
6.5409153648943175e-08
20
38.579706768102419
30
0
11
44.159076774551735
21
38.943201277574836
31
0
0
SPLINE
5
115
100
AcDbEntity
8
0
100
AcDbSpline
70
0
71
3
72
11
73
7
74
0
42
0.000000001
43
0.0000000001
44
0.0000000001
40
0
40
0
40
0
40
0
40
0.32172068376119545
40
0.32172068376119545
40
0.32172068376119545
40
0.47516281597366739
40
0.47516281597366739
40
0.47516281597366739
40
0.47516281597366739
10
47.184520235700901
20
36.030381294451054
30
0
10
47.184520235700937
20
37.071175927531215
30
0
10
46.565566470329927
20
38.084162456028203
30
0
10
45.629110313666395
20
38.583518468894596
30
-1.9721522630525295e-30
10
45.182474966128076
20
38.821682364518452
30
0
10
44.670502897655105
20
38.947411070926485
30
0
10
44.159076774551728
20
38.943201277574843
30
0
0
SPLINE
5
116
100
AcDbEntity
8
0
100
AcDbSpline
70
0
71
3
72
17
73
13
74
0
42
0.000000001
43
0.0000000001
44
0.0000000001
40
0
40
0
40
0
40
0
40
0.12553269508472836
40
0.12553269508472836
40
0.12553269508472836
40
0.24573261870545834
40
0.24573261870545834
40
0.24573261870545834
40
0.36650946777640536
40
0.36650946777640536
40
0.36650946777640536
40
0.45276769229934621
40
0.45276769229934621
40
0.45276769229934621
40
0.45276769229934621
10
71.52102572584252
20
69.526409418731973
30
1.9721522630525295e-30
10
71.102583408893423
20
69.526409418731973
30
1.9721522630525295e-30
10
70.651454930650118
20
69.725345760511914
30
0
10
70.374832597300212
20
70.043995071288393
30
0
10
70.109961494851504
20
70.349107797429411
30
1.9721522630525295e-30
10
69.979591814956592
20
70.777598559828874
30
-1.9721522630525295e-30
10
70.034043967397025
20
71.177488490344842
30
-1.9721522630525295e-30
10
70.088757474683746
20
71.579297778804246
30
1.9721522630525295e-30
10
70.324836177108708
20
71.957900431954073
30
0
10
70.671622218827082
20
72.190329095168508
30
0
10
70.919295083933818
20
72.356328489682767
30
-1.9721522630525295e-30
10
71.221048428477076
20
72.447613018739432
30
-1.9721522630525295e-30
10
71.521025725842549
20
72.447613018739432
30
-1.9721522630525295e-30
0
SPLINE
5
117
100
AcDbEntity
8
0
100
AcDbSpline
70
0
71
3
72
17
73
13
74
0
42
0.000000001
43
0.0000000001
44
0.0000000001
40
0.45276769229934621
40
0.45276769229934621
40
0.45276769229934621
40
0.45276769229934621
40
0.51980970844869345
40
0.51980970844869345
40
0.51980970844869345
40
0.71267254652369294
40
0.71267254652369294
40
0.71267254652369294
40
0.85947941246769566
40
0.85947941246769566
40
0.85947941246769566
40
0.90553538459869243
40
0.90553538459869243
40
0.90553538459869243
40
0.90553538459869243
10
71.521025725842549
20
72.447613018739432
30
-1.9721522630525295e-30
10
71.754175468091944
20
72.447613018739432
30
-1.9721522630525295e-30
10
71.985031390773202
20
72.394833696448956
30
1.9721522630525295e-30
10
72.196370335979594
20
72.290857364165447
30
1.9721522630525295e-30
10
72.804338758013344
20
71.991743887444287
30
0
10
73.135195506394084
20
71.294097393175065
30
0
10
72.981855712287242
20
70.653979427615226
30
1.9721522630525295e-30
10
72.865133720523488
20
70.166722715558819
30
0
10
72.483758984210098
20
69.757870358572063
30
-1.9721522630525295e-30
10
71.991089853023368
20
69.599845966364427
30
0
10
71.836530625634154
20
69.550270853124786
30
1.9721522630525295e-30
10
71.674545632945836
20
69.526409418731973
30
1.9721522630525295e-30
10
71.52102572584252
20
69.526409418731973
30
1.9721522630525295e-30
0
SPLINE
5
118
100
AcDbEntity
8
0
100
AcDbSpline
70
0
71
3
72
17
73
13
74
0
42
0.000000001
43
0.0000000001
44
0.0000000001
40
0
40
0
40
0
40
0
40
0.12557829344398122
40
0.12557829344398122
40
0.12557829344398122
40
0.24570842989162123
40
0.24570842989162123
40
0.24570842989162123
40
0.36643256432073967
40
0.36643256432073967
40
0.36643256432073967
40
0.45276772150023381
40
0.45276772150023381
40
0.45276772150023381
40
0.45276772150023381
10
-398.47897427415728
20
69.526409418731902
30
0
10
-398.8975685856372
20
69.526409418731831
30
1.9721522630525295e-30
10
-399.34883460170954
20
69.725485152280029
30
-1.9721522630525295e-30
10
-399.62545778126571
20
70.044329668729929
30
1.9721522630525295e-30
10
-399.89007979031925
20
70.349341261229341
30
0
10
-400.02034418813417
20
70.777573735387037
30
-1.9721522630525295e-30
10
-399.96598782873514
20
71.17725483885819
30
1.9721522630525295e-30
10
-399.9113626977462
20
71.578912213860534
30
-1.9721522630525295e-30
10
-399.67550244476081
20
71.957423140798923
30
0
10
-399.32899933895749
20
72.189912280168429
30
1.9721522630525295e-30
10
-399.08119967367782
20
72.356175525582515
30
7.8886090522101181e-30
10
-398.77920795447807
20
72.447613018739361
30
0
10
-398.47897427415745
20
72.447613018739375
30
0
0
SPLINE
5
119
100
AcDbEntity
8
0
100
AcDbSpline
70
0
71
3
72
17
73
13
74
0
42
0.000000001
43
0.0000000001
44
0.0000000001
40
0.45276772150023381
40
0.45276772150023381
40
0.45276772150023381
40
0.45276772150023381
40
0.51978864628425114
40
0.51978864628425114
40
0.51978864628425114
40
0.7126620300419142
40
0.7126620300419142
40
0.7126620300419142
40
0.8594676377275754
40
0.8594676377275754
40
0.8594676377275754
40
0.90553541379957714
40
0.90553541379957714
40
0.90553541379957714
40
0.90553541379957714
10
-398.47897427415745
20
72.447613018739375
30
0
10
-398.24590654643487
20
72.447613018739389
30
1.9721522630525295e-30
10
-398.01511889698429
20
72.39486913223503
30
-3.944304526105059e-30
10
-397.8038291333857
20
72.290955482633692
30
-5.9164567891575885e-30
10
-397.19577766602748
20
71.991911903605114
30
-5.9164567891575885e-30
10
-396.864820844603
20
71.294243086697051
30
0
10
-397.01811913808092
20
70.65408443246217
30
-1.9721522630525295e-30
10
-397.13480215930838
20
70.166827567781112
30
-1.9721522630525295e-30
10
-397.51613826539949
20
69.757947628354188
30
-5.9164567891575885e-30
10
-398.00879130987772
20
69.599884088892949
30
3.944304526105059e-30
10
-398.16338642713515
20
69.550283560303882
30
3.944304526105059e-30
10
-398.3254150205841
20
69.526409418731902
30
-3.944304526105059e-30
10
-398.47897427415745
20
69.526409418731888
30
5.9164567891575885e-30
0
SPLINE
5
120
100
AcDbEntity
8
0
100
AcDbSpline
70
2
71
3
72
23
73
19
74
0
42
0.000000001
43
0.0000000001
44
0.0000000001
40
0.030417170578148869
40
0.030417170578148869
40
0.030417170578148869
40
0.030417170578148869
40
0.20310138964220043
40
0.20310138964220043
40
0.20310138964220043
40
0.36802861708407902
40
0.36802861708407902
40
0.36802861708407902
40
0.54892228793172759
40
0.54892228793172759
40
0.54892228793172759
40
0.70891966167994247
40
0.70891966167994247
40
0.70891966167994247
40
0.88417439467146219
40
0.88417439467146219
40
0.88417439467146219
40
0.89966918768527226
40
0.89966918768527226
40
0.89966918768527226
40
0.89966918768527226
10
-12.693476483585258
20
-10.598487253475565
30
0
10
-12.118141959893144
20
-10.598487253475572
30
-1.9721522630525295e-30
10
-11.556395961216321
20
-10.227496499344156
30
0
10
-11.367672417771701
20
-9.7034922956989629
30
0
10
-11.187426353933157
20
-9.2030264109556921
30
0
10
-11.372493858216215
20
-8.5997450479299911
30
-7.8886090522101181e-30
10
-11.798183175133357
20
-8.2662524671965407
30
0
10
-12.265083058022048
20
-7.9004747962501902
30
1.9721522630525295e-30
10
-12.981692341676606
20
-7.8681824659139075
30
0
10
-13.483778561348334
20
-8.1915740948407478
30
1.9721522630525295e-30
10
-13.927865279066076
20
-8.4776084877412572
30
0
10
-14.173149364274124
20
-9.0288887837710092
30
-1.9721522630525295e-30
10
-14.066953831899127
20
-9.5353820532631985
30
-1.9721522630525295e-30
10
-13.95063148713014
20
-10.09017455158598
30
-1.9721522630525295e-30
10
-13.427975449912035
20
-10.529789427773682
30
0
10
-12.847953201577234
20
-10.590436014580575
30
0
10
-12.796671706761414
20
-10.595797959981573
30
0
10
-12.74510071078231
20
-10.598487253475565
30
0
10
-12.693476483585258
20
-10.598487253475565
30
0
0
SPLINE
5
121
100
AcDbEntity
8
0
100
AcDbSpline
70
2
71
3
72
23
73
19
74
0
42
0.000000001
43
0.0000000001
44
0.0000000001
40
0.030417170578170952
40
0.030417170578170952
40
0.030417170578170952
40
0.030417170578170952
40
0.20310138965221633
40
0.20310138965221633
40
0.20310138965221633
40
0.36802861709407741
40
0.36802861709407741
40
0.36802861709407741
40
0.54892228794656805
40
0.54892228794656805
40
0.54892228794656805
40
0.7089196616962391
40
0.7089196616962391
40
0.7089196616962391
40
0.88417439468220294
40
0.88417439468220294
40
0.88417439468220294
40
0.89966918769434656
40
0.89966918769434656
40
0.89966918769434656
40
0.89966918769434656
10
-259.19471944792383
20
33.552563406328936
30
0
10
-258.61938492419864
20
33.552563406328957
30
0
10
-258.05763892549959
20
33.92355416050458
30
0
10
-257.8689153820817
20
34.447558364184943
30
0
10
-257.68866931827915
20
34.948024248932782
30
0
10
-257.87373682259954
20
35.551305611946155
30
0
10
-258.29942613953
20
35.884798192653442
30
0
10
-258.76632602244581
20
36.25057586358092
30
0
10
-259.48293530611022
20
36.282868193875245
30
0
10
-259.98502152576344
20
35.959476564914347
30
0
10
-260.42910824345699
20
35.673442171988768
30
0
10
-260.67439232862773
20
35.122161875973482
30
0
10
-260.5681967962243
20
34.615668606477414
30
0
10
-260.45187445142898
20
34.060876108173026
30
0
10
-259.92921841421582
20
33.621261232020544
30
0
10
-259.34919616589912
20
33.560614645222188
30
0
10
-259.29791467108879
20
33.555252699822354
30
0
10
-259.24634367511533
20
33.552563406328936
30
0
10
-259.19471944792383
20
33.552563406328936
30
0
0
SPLINE
5
122
100
AcDbEntity
8
0
100
AcDbSpline
70
2
71
3
72
32
73
28
74
0
42
0.000000001
43
0.0000000001
44
0.0000000001
40
0
40
0
40
0
40
0
40
0.18188559850897443
40
0.18188559850897443
40
0.18188559850897443
40
0.33664767353520575
40
0.33664767353520575
40
0.33664767353520575
40
0.49062637028056433
40
0.49062637028056433
40
0.49062637028056433
40
0.67458074114504818
40
0.67458074114504818
40
0.67458074114504818
40
0.86246766934514041
40
0.86246766934514041
40
0.86246766934514041
40
1.0518738344799361
40
1.0518738344799361
40
1.0518738344799361
40
1.240576032358589
40
1.240576032358589
40
1.240576032358589
40
1.4273532703549552
40
1.4273532703549552
40
1.4273532703549552
40
1.5069541085014244
40
1.5069541085014244
40
1.5069541085014244
40
1.5069541085014244
10
-347.24055086167715
20
35.182246943745461
30
0
10
-347.84683619004051
20
35.182246943745461
30
0
10
-348.51816769217987
20
35.440490464203769
30
0
10
-348.96168253718764
20
35.849282991548328
30
0
10
-349.33905863667547
20
36.197114707229431
30
-1.9721522630525295e-30
10
-349.61891526890031
20
36.697246254214384
30
0
10
-349.70691914976783
20
37.212693571176686
30
-3.944304526105059e-30
10
-349.79447757053867
20
37.72553178488824
30
0
10
-349.71164326033397
20
38.252767319556554
30
0
10
-349.46223349419415
20
38.721982536599114
30
0
10
-349.16427009024625
20
39.282541833927432
30
0
10
-348.66121097444852
20
39.703710513963159
30
3.944304526105059e-30
10
-348.04548714570103
20
39.907112393047008
30
-1.9721522630525295e-30
10
-347.41660043722379
20
40.114862576266866
30
-1.9721522630525295e-30
10
-346.73710925260787
20
40.072627187812564
30
-1.9721522630525295e-30
10
-346.14058261647722
20
39.788746308915101
30
3.944304526105059e-30
10
-345.53923251919991
20
39.502569994563935
30
3.944304526105059e-30
10
-345.08588634494339
20
39.000956546522289
30
0
10
-344.87179286752132
20
38.385172217870377
30
0
10
-344.65849511286655
20
37.77167657926141
30
1.9721522630525295e-30
10
-344.7050151820664
20
37.108857850079254
30
1.9721522630525295e-30
10
-345.00197083776141
20
36.529081021494044
30
0
10
-345.29589723502465
20
35.955218523257145
30
0
10
-345.80394385684457
20
35.522276538333983
30
0
10
-346.42854334639509
20
35.313917640525119
30
0
10
-346.69473554094424
20
35.225119117328283
30
0
10
-346.9752147345223
20
35.182246943745461
30
0
10
-347.24055086167715
20
35.182246943745461
30
0
0
LINE
5
123
100
AcDbEntity
8
0
100
AcDbLine
10
-241.29471944792411
20
79.58604757245223
30
-1.9721522630525295e-30
11
-241.29471944792411
21
50.667055157249088
31
-1.9721522630525295e-30
0
SPLINE
5
124
100
AcDbEntity
8
0
100
AcDbSpline
70
0
71
3
72
14
73
10
74
0
42
0.000000001
43
0.0000000001
44
0.0000000001
40
0.90485724962164538
40
0.90485724962164538
40
0.90485724962164538
40
0.90485724962164538
40
1.1031897931262113
40
1.1031897931262113
40
1.1031897931262113
40
1.2661965078124469
40
1.2661965078124469
40
1.2661965078124469
40
1.3570167972677409
40
1.3570167972677409
40
1.3570167972677409
40
1.3570167972677409
10
-244.29471944792411
20
47.754130312218983
30
-1.9721522630525295e-30
10
-243.63361096957559
20
47.754130312218983
30
-1.9721522630525295e-30
10
-242.90464050346887
20
48.002511102153804
30
0
10
-242.38106822314464
20
48.42342351352859
30
0
10
-241.95075156502909
20
48.769365476135881
30
0
10
-241.61905428659094
20
49.235397226479392
30
1.9721522630525295e-30
10
-241.4413057263605
20
49.76715577410333
30
1.9721522630525295e-30
10
-241.34227191832713
20
50.063428631994455
30
0
10
-241.29471944792411
20
50.3732435541691
30
-1.9721522630525295e-30
10
-241.29471944792411
20
50.667055157249017
30
-1.9721522630525295e-30
0
LINE
5
125
100
AcDbEntity
8
0
100
AcDbLine
10
-244.29471944792411
20
47.754130312218983
30
-1.9721522630525295e-30
11
-274.09471944792404
21
47.754130312218699
31
-1.9721522630525295e-30
0
SPLINE
5
126
100
AcDbEntity
8
0
100
AcDbSpline
70
0
71
3
72
14
73
10
74
0
42
0.000000001
43
0.0000000001
44
0.0000000001
40
0.45269767480305639
40
0.45269767480305639
40
0.45269767480305639
40
0.45269767480305639
40
0.65247082749490504
40
0.65247082749490504
40
0.65247082749490504
40
0.81472851258539114
40
0.81472851258539114
40
0.81472851258539114
40
0.9048572224491519
40
0.9048572224491519
40
0.9048572224491519
40
0.9048572224491519
10
-277.09471944792404
20
50.667055157249045
30
0
10
-277.09471944792404
20
50.020771484330098
30
-1.9721522630525295e-30
10
-276.8351214121443
20
49.307824874346089
30
-1.9721522630525295e-30
10
-276.39647382658501
20
48.798440624020429
30
-1.9721522630525295e-30
10
-276.04020001879672
20
48.384713813557134
30
-1.9721522630525295e-30
10
-275.56062519113073
20
48.065164751747432
30
0
10
-275.01493070051629
20
47.894485207400123
30
0
10
-274.71181568694129
20
47.799678436777342
30
0
10
-274.39514848080319
20
47.754130312218983
30
-1.9721522630525295e-30
10
-274.09471944792404
20
47.754130312218983
30
-1.9721522630525295e-30
0
LINE
5
127
100
AcDbEntity
8
0
100
AcDbLine
10
-277.09471944792404
20
50.667055157249045
30
0
11
-277.09471944792404
21
79.58604757245223
31
-1.9721522630525295e-30
0
SPLINE
5
128
100
AcDbEntity
8
0
100
AcDbSpline
70
0
71
3
72
14
73
10
74
0
42
0.000000001
43
0.0000000001
44
0.0000000001
40
0
40
0
40
0
40
0
40
0.19833254349819063
40
0.19833254349819063
40
0.19833254349819063
40
0.36133925817690987
40
0.36133925817690987
40
0.36133925817690987
40
0.45215954764609506
40
0.45215954764609506
40
0.45215954764609506
40
0.45215954764609506
10
-274.09471944792409
20
82.498972417482236
30
0
10
-274.75582792625136
20
82.498972417482236
30
0
10
-275.48479839233323
20
82.250591627565711
30
-3.944304526105059e-30
10
-276.00837067265297
20
81.82967921621325
30
0
10
-276.4386873307588
20
81.483737253629144
30
3.944304526105059e-30
10
-276.77038460919272
20
81.017705503326013
30
0
10
-276.9481331694422
20
80.485946955733823
30
0
10
-277.04716697750592
20
80.189674097801429
30
0
10
-277.09471944792404
20
79.879859175577138
30
1.9721522630525295e-30
10
-277.09471944792404
20
79.586047572452273
30
0
0
LINE
5
129
100
AcDbEntity
8
0
100
AcDbLine
10
-274.09471944792409
20
82.498972417482236
30
0
11
-244.29471944792408
21
82.498972417482321
31
3.944304526105059e-30
0
SPLINE
5
130
100
AcDbEntity
8
0
100
AcDbSpline
70
0
71
3
72
14
73
10
74
0
42
0.000000001
43
0.0000000001
44
0.0000000001
40
-0.45215954764609489
40
-0.45215954764609489
40
-0.45215954764609489
40
-0.45215954764609489
40
-0.25238639495359239
40
-0.25238639495359239
40
-0.25238639495359239
40
-0.090128709862956818
40
-0.090128709862956818
40
-0.090128709862956818
40
0
40
0
40
0
40
0
10
-241.29471944792411
20
79.586047572452244
30
0
10
-241.29471944792414
20
80.232331245373246
30
0
10
-241.55431748370572
20
80.945277855359649
30
-3.944304526105059e-30
10
-241.99296506926746
20
81.454662105685827
30
0
10
-242.34923887705685
20
81.868388916148547
30
0
10
-242.82881370472467
20
82.18793797795766
30
3.944304526105059e-30
10
-243.37450819534001
20
82.358617522303575
30
-3.944304526105059e-30
10
-243.67762320891248
20
82.453424292924652
30
3.944304526105059e-30
10
-243.99429041504757
20
82.49897241748215
30
3.944304526105059e-30
10
-244.29471944792408
20
82.49897241748215
30
3.944304526105059e-30
0
SPLINE
5
131
100
AcDbEntity
8
0
100
AcDbSpline
70
2
71
3
72
26
73
22
74
0
42
0.000000001
43
0.0000000001
44
0.0000000001
40
0
40
0
40
0
40
0
40
0.12570628968320899
40
0.12570628968320899
40
0.12570628968320899
40
0.24584490252250585
40
0.24584490252250585
40
0.24584490252250585
40
0.36648091064726718
40
0.36648091064726718
40
0.36648091064726718
40
0.52043294456875155
40
0.52043294456875155
40
0.52043294456875155
40
0.71227263333587776
40
0.71227263333587776
40
0.71227263333587776
40
0.85924854357390068
40
0.85924854357390068
40
0.85924854357390068
40
0.90411232210300396
40
0.90411232210300396
40
0.90411232210300396
40
0.90411232210300396
10
33.667557577173326
20
-22.758593942574468
30
0
10
33.248536611562642
20
-22.758593942574464
30
-1.9721522630525295e-30
10
32.796801203550004
20
-22.95769107822229
30
1.9721522630525295e-30
10
32.519885239243244
20
-23.277051051139299
30
0
10
32.25523420301657
20
-23.582266201783987
30
0
10
32.125293699631115
20
-24.010499812749146
30
0
10
32.181182652418826
20
-24.410219681597319
30
0
10
32.237302995439599
20
-24.811594461997849
30
0
10
32.475382635857009
20
-25.188081912168364
30
0
10
32.823568474290433
20
-25.41818964760845
30
0
10
33.267912736362213
20
-25.711846197114227
30
0
10
33.872584689894921
20
-25.75056103799913
30
0
10
34.355803132261677
20
-25.508254194673267
30
0
10
34.957941819415701
20
-25.206315543875807
30
0
10
35.283247791632938
20
-24.511524479239842
30
1.9721522630525295e-30
10
35.126326329559554
20
-23.875447724498144
30
0
10
35.006102642415684
20
-23.388124373369834
30
3.944304526105059e-30
10
34.620125160646808
20
-22.982079265265458
30
0
10
34.125636910419253
20
-22.82814844763401
30
0
10
33.974696451486047
20
-22.781161712870215
30
0
10
33.817103505603654
20
-22.758593942574468
30
0
10
33.667557577173326
20
-22.758593942574468
30
0
0
SPLINE
5
132
100
AcDbEntity
8
0
100
AcDbSpline
70
2
71
3
72
26
73
22
74
0
42
0.000000001
43
0.0000000001
44
0.0000000001
40
0
40
0
40
0
40
0
40
0.12570626283658556
40
0.12570626283658556
40
0.12570626283658556
40
0.24584507729632532
40
0.24584507729632532
40
0.24584507729632532
40
0.3664807936390625
40
0.3664807936390625
40
0.3664807936390625
40
0.52043166461800761
40
0.52043166461800761
40
0.52043166461800761
40
0.71227161339941825
40
0.71227161339941825
40
0.71227161339941825
40
0.8592484574733894
40
0.8592484574733894
40
0.8592484574733894
40
0.904111562180829
40
0.904111562180829
40
0.904111562180829
40
0.904111562180829
10
-400.3324424228266
20
126.9326527184934
30
0
10
-399.91342154670463
20
126.9326527184934
30
0
10
-399.46168653723129
20
127.13175041108677
30
-3.944304526105059e-30
10
-399.18477067158585
20
127.45111032889638
30
0
10
-398.92011922898439
20
127.75632600427988
30
0
10
-398.79017805910024
20
128.18456028308051
30
3.944304526105059e-30
10
-398.84606773873168
20
128.58428084199713
30
0
10
-398.90218858168168
20
128.98565467091888
30
3.944304526105059e-30
10
-399.1402689845936
20
129.36214029293291
30
3.944304526105059e-30
10
-399.48845499931429
20
129.5922461728639
30
-3.944304526105059e-30
10
-399.93279720454183
20
129.88589884643949
30
7.8886090522101181e-30
10
-400.53746399066762
20
129.92461442475209
30
0
10
-401.02068160279407
20
129.68231228370126
30
0
10
-401.62282462005118
20
129.38037680238028
30
0
10
-401.94813285134319
20
128.6855880786741
30
0
10
-401.79121153294454
20
128.04950938532281
30
0
10
-401.67098735496353
20
127.56218211316016
30
7.8886090522101181e-30
10
-401.2850054224408
20
127.15613451286444
30
-3.944304526105059e-30
10
-400.7905143153144
20
127.00220511698876
30
-3.944304526105059e-30
10
-400.63957621036536
20
126.95521982043928
30
3.944304526105059e-30
10
-400.48198610518477
20
126.9326527184934
30
0
10
-400.3324424228266
20
126.9326527184934
30
0
0
SPLINE
5
133
100
AcDbEntity
8
0
100
AcDbSpline
70
2
71
3
72
26
73
22
74
0
42
0.000000001
43
0.0000000001
44
0.0000000001
40
0
40
0
40
0
40
0
40
0.12570626283705144
40
0.12570626283705144
40
0.12570626283705144
40
0.24584507729740446
40
0.24584507729740446
40
0.24584507729740446
40
0.36648079364132896
40
0.36648079364132896
40
0.36648079364132896
40
0.52043166461968005
40
0.52043166461968005
40
0.52043166461968005
40
0.71227161340025447
40
0.71227161340025447
40
0.71227161340025447
40
0.85924845747805834
40
0.85924845747805834
40
0.85924845747805834
40
0.904111562180829
40
0.904111562180829
40
0.904111562180829
40
0.904111562180829
10
-342.5199424228266
20
126.9326527184934
30
0
10
-342.10092154670303
20
126.9326527184934
30
0
10
-341.64918653722845
20
127.13175041108798
30
-3.944304526105059e-30
10
-341.37227067158273
20
127.45111032889993
30
0
10
-341.10761922898064
20
127.75632600428611
30
3.944304526105059e-30
10
-340.97767805909831
20
128.18456028308907
30
0
10
-341.03356773873315
20
128.5842808420079
30
0
10
-341.08968858168691
20
128.9856546709338
30
0
10
-341.32776898460526
20
129.3621402929484
30
0
10
-341.6759549993339
20
129.59224617287683
30
0
10
-342.12029720456553
20
129.88589884644514
30
3.944304526105059e-30
10
-342.72496399068842
20
129.92461442474868
30
-7.8886090522101181e-30
10
-343.20818160280987
20
129.68231228369336
30
3.944304526105059e-30
10
-343.81032462006038
20
129.38037680236692
30
3.944304526105059e-30
10
-344.1356328513445
20
128.68558807866248
30
-3.944304526105059e-30
10
-343.97871153294261
20
128.04950938531454
30
0
10
-343.85848735495551
20
127.56218211313961
30
3.944304526105059e-30
10
-343.47250542241102
20
127.15613451283771
30
0
10
-342.97801431526727
20
127.00220511697411
30
0
10
-342.82707621033268
20
126.95521982043444
30
-7.8886090522101181e-30
10
-342.6694861051692
20
126.9326527184934
30
-7.8886090522101181e-30
10
-342.5199424228266
20
126.9326527184934
30
0
0
SPLINE
5
134
100
AcDbEntity
8
0
100
AcDbSpline
70
2
71
3
72
26
73
22
74
0
42
0.000000001
43
0.0000000001
44
0.0000000001
40
0
40
0
40
0
40
0
40
0.12570626283400621
40
0.12570626283400621
40
0.12570626283400621
40
0.24584507729320443
40
0.24584507729320443
40
0.24584507729320443
40
0.36648079363089153
40
0.36648079363089153
40
0.36648079363089153
40
0.52043166460935342
40
0.52043166460935342
40
0.52043166460935342
40
0.71227161339509126
40
0.71227161339509126
40
0.71227161339509126
40
0.85924845747106571
40
0.85924845747106571
40
0.85924845747106571
40
0.904111562180829
40
0.904111562180829
40
0.904111562180829
40
0.904111562180829
10
-284.70744242282666
20
126.93265271849342
30
3.944304526105059e-30
10
-284.28842154671327
20
126.9326527184934
30
0
10
-283.8366865372472
20
127.13175041107981
30
-3.944304526105059e-30
10
-283.55977067160285
20
127.45111032887675
30
3.944304526105059e-30
10
-283.2951192289982
20
127.75632600425303
30
0
10
-283.1651780591053
20
128.18456028305184
30
0
10
-283.2210677387273
20
128.58428084196601
30
3.944304526105059e-30
10
-283.27718858166583
20
128.9856546708703
30
0
10
-283.51526898455398
20
129.36214029287845
30
3.944304526105059e-30
10
-283.86345499924357
20
129.59224617281711
30
-3.944304526105059e-30
10
-284.30779720444866
20
129.88589884641388
30
-3.944304526105059e-30
10
-284.91246399057081
20
129.92461442476429
30
3.944304526105059e-30
10
-285.39568160271256
20
129.68231228374214
30
-3.944304526105059e-30
10
-285.99782462000422
20
129.38037680244912
30
0
10
-286.32313285133699
20
128.68558807873407
30
0
10
-286.16621153295523
20
128.04950938536589
30
3.944304526105059e-30
10
-286.04598735498826
20
127.56218211319464
30
-3.944304526105059e-30
10
-285.66000542246877
20
127.15613451288183
30
0
10
-285.16551431533787
20
127.00220511699609
30
3.944304526105059e-30
10
-285.01457621038173
20
126.95521982044173
30
-3.944304526105059e-30
10
-284.85698610519256
20
126.93265271849342
30
-3.944304526105059e-30
10
-284.70744242282666
20
126.93265271849342
30
3.944304526105059e-30
0
SPLINE
5
135
100
AcDbEntity
8
0
100
AcDbSpline
70
2
71
3
72
26
73
22
74
0
42
0.000000001
43
0.0000000001
44
0.0000000001
40
0
40
0
40
0
40
0
40
0.12570626283431036
40
0.12570626283431036
40
0.12570626283431036
40
0.24584507729361801
40
0.24584507729361801
40
0.24584507729361801
40
0.36648079363168384
40
0.36648079363168384
40
0.36648079363168384
40
0.52043166461026569
40
0.52043166461026569
40
0.52043166461026569
40
0.71227161339554734
40
0.71227161339554734
40
0.71227161339554734
40
0.85924845747209222
40
0.85924845747209222
40
0.85924845747209222
40
0.904111562180829
40
0.904111562180829
40
0.904111562180829
40
0.904111562180829
10
-226.89494242282663
20
126.93265271849342
30
0
10
-226.47592154671224
20
126.93265271849342
30
0
10
-226.02418653724538
20
127.13175041108065
30
-3.944304526105059e-30
10
-225.74727067160086
20
127.45111032887905
30
0
10
-225.48261922899653
20
127.75632600425629
30
-3.944304526105059e-30
10
-225.35267805910465
20
128.18456028305553
30
-3.944304526105059e-30
10
-225.4085677387279
20
128.58428084197013
30
3.944304526105059e-30
10
-225.46468858166779
20
128.98565467087576
30
-3.944304526105059e-30
10
-225.70276898455819
20
129.36214029288396
30
7.8886090522101181e-30
10
-226.05095499925045
20
129.59224617282166
30
3.944304526105059e-30
10
-226.49529720445793
20
129.88589884641647
30
0
10
-227.09996399058076
20
129.92461442476315
30
-3.944304526105059e-30
10
-227.5831816027212
20
129.68231228373784
30
7.8886090522101181e-30
10
-228.1853246200092
20
129.38037680244187
30
3.944304526105059e-30
10
-228.51063285133762
20
128.68558807872776
30
-3.944304526105059e-30
10
-228.35371153295409
20
128.04950938536135
30
0
10
-228.23348735498499
20
127.5621821131884
30
3.944304526105059e-30
10
-227.8475054224613
20
127.15613451287568
30
3.944304526105059e-30
10
-227.3530143153275
20
127.00220511699287
30
-3.944304526105059e-30
10
-227.20207621037451
20
126.95521982044067
30
0
10
-227.04448610518909
20
126.93265271849342
30
0
10
-226.89494242282663
20
126.93265271849342
30
0
0
SPLINE
5
136
100
AcDbEntity
8
0
100
AcDbSpline
70
2
71
3
72
26
73
22
74
0
42
0.000000001
43
0.0000000001
44
0.0000000001
40
0
40
0
40
0
40
0
40
0.12570626283363687
40
0.12570626283363687
40
0.12570626283363687
40
0.24584507729269783
40
0.24584507729269783
40
0.24584507729269783
40
0.36648079362964692
40
0.36648079362964692
40
0.36648079362964692
40
0.52043166460834045
40
0.52043166460834045
40
0.52043166460834045
40
0.71227161339458478
40
0.71227161339458478
40
0.71227161339458478
40
0.85924845747101752
40
0.85924845747101752
40
0.85924845747101752
40
0.904111562180829
40
0.904111562180829
40
0.904111562180829
40
0.904111562180829
10
-169.08244242282663
20
126.9326527184934
30
-3.944304526105059e-30
10
-168.66342154671446
20
126.93265271849343
30
-3.944304526105059e-30
10
-168.21168653724951
20
127.13175041107888
30
0
10
-167.93477067160529
20
127.45111032887395
30
3.944304526105059e-30
10
-167.67011922900039
20
127.756326004249
30
3.944304526105059e-30
10
-167.54017805910618
20
128.18456028304735
30
-7.8886090522101181e-30
10
-167.59606773872662
20
128.58428084196098
30
3.944304526105059e-30
10
-167.65218858166327
20
128.98565467086274
30
-3.944304526105059e-30
10
-167.8902689845479
20
129.36214029287015
30
0
10
-168.23845499923283
20
129.59224617281001
30
0
10
-168.68279720443536
20
129.88589884641056
30
-3.944304526105059e-30
10
-169.28746399055859
20
129.92461442476616
30
0
10
-169.77068160270306
20
129.68231228374694
30
7.8886090522101181e-30
10
-170.37282461999871
20
129.38037680245719
30
0
10
-170.6981328513362
20
128.68558807874098
30
0
10
-170.54121153295648
20
128.04950938537092
30
0
10
-170.42098735499098
20
127.56218211319802
30
0
10
-170.0350054224707
20
127.15613451288269
30
3.944304526105059e-30
10
-169.54051431533833
20
127.00220511699628
30
3.944304526105059e-30
10
-169.38957621038207
20
126.95521982044183
30
-3.944304526105059e-30
10
-169.23198610519268
20
126.9326527184934
30
-3.944304526105059e-30
10
-169.08244242282663
20
126.9326527184934
30
-3.944304526105059e-30
0
SPLINE
5
137
100
AcDbEntity
8
0
100
AcDbSpline
70
2
71
3
72
26
73
22
74
0
42
0.000000001
43
0.0000000001
44
0.0000000001
40
0
40
0
40
0
40
0
40
0.12570626283246247
40
0.12570626283246247
40
0.12570626283246247
40
0.24584507729115576
40
0.24584507729115576
40
0.24584507729115576
40
0.36648079362601754
40
0.36648079362601754
40
0.36648079362601754
40
0.5204316646046897
40
0.5204316646046897
40
0.5204316646046897
40
0.71227161339275935
40
0.71227161339275935
40
0.71227161339275935
40
0.85924845746661382
40
0.85924845746661382
40
0.85924845746661382
40
0.904111562180829
40
0.904111562180829
40
0.904111562180829
40
0.904111562180829
10
-111.26994242282665
20
126.93265271849343
30
3.944304526105059e-30
10
-110.85092154671841
20
126.93265271849343
30
3.944304526105059e-30
10
-110.39918653725675
20
127.13175041107574
30
-3.944304526105059e-30
10
-110.12227067161308
20
127.451110328865
30
3.944304526105059e-30
10
-109.857619229007
20
127.75632600423641
30
0
10
-109.72767805910868
20
128.18456028303345
30
0
10
-109.78356773872446
20
128.58428084194557
30
0
10
-109.83968858165562
20
128.98565467084009
30
-3.944304526105059e-30
10
-110.07776898452981
20
129.36214029284565
30
3.944304526105059e-30
10
-110.42595499920139
20
129.59224617278926
30
-3.944304526105059e-30
10
-110.87029720439452
20
129.88589884639958
30
3.944304526105059e-30
10
-111.47496399051721
20
129.92461442477159
30
3.944304526105059e-30
10
-111.95818160266867
20
129.68231228376419
30
0
10
-112.56032461997887
20
129.38037680248624
30
3.944304526105059e-30
10
-112.88563285133357
20
128.68558807876627
30
0
10
-112.72871153296094
20
128.04950938538909
30
0
10
-112.60848735500416
20
127.5621821132239
30
-3.944304526105059e-30
10
-112.22250542250231
20
127.15613451290898
30
-3.944304526105059e-30
10
-111.72801431538281
20
127.00220511701011
30
3.944304526105059e-30
10
-111.57707621041298
20
126.9552198204464
30
-3.944304526105059e-30
10
-111.41948610520737
20
126.93265271849343
30
3.944304526105059e-30
10
-111.26994242282665
20
126.93265271849343
30
3.944304526105059e-30
0
SPLINE
5
138
100
AcDbEntity
8
0
100
AcDbSpline
70
2
71
3
72
26
73
22
74
0
42
0.000000001
43
0.0000000001
44
0.0000000001
40
0
40
0
40
0
40
0
40
0.12570626283065506
40
0.12570626283065506
40
0.12570626283065506
40
0.24584507728883781
40
0.24584507728883781
40
0.24584507728883781
40
0.36648079361994373
40
0.36648079361994373
40
0.36648079361994373
40
0.52043166459848123
40
0.52043166459848123
40
0.52043166459848123
40
0.71227161338965517
40
0.71227161338965517
40
0.71227161338965517
40
0.85924845746519063
40
0.85924845746519063
40
0.85924845746519063
40
0.904111562180829
40
0.904111562180829
40
0.904111562180829
40
0.904111562180829
10
-53.457442422826638
20
126.93265271849344
30
3.944304526105059e-30
10
-53.038421546724443
20
126.93265271849344
30
-3.944304526105059e-30
10
-52.586686537267909
20
127.1317504110709
30
-3.944304526105059e-30
10
-52.309770671625031
20
127.45111032885123
30
-3.944304526105059e-30
10
-52.045119229017004
20
127.75632600421723
30
3.944304526105059e-30
10
-51.915178059112463
20
128.18456028301239
30
3.944304526105059e-30
10
-51.97106773872121
20
128.58428084192244
30
3.944304526105059e-30
10
-52.02718858164382
20
128.98565467080411
30
7.8886090522101181e-30
10
-52.265268984500253
20
129.36214029280515
30
7.8886090522101181e-30
10
-52.613454999148807
20
129.5922461727545
30
0
10
-53.057797204325972
20
129.88589884638108
30
0
10
-53.662463990447201
20
129.92461442478066
30
0
10
-54.14568160261021
20
129.68231228379352
30
-3.944304526105059e-30
10
-54.747824619945071
20
129.38037680253569
30
0
10
-55.073132851329049
20
128.68558807880933
30
0
10
-54.916211532968553
20
128.04950938541998
30
0
10
-54.795987355021637
20
127.56218211324779
30
3.944304526105059e-30
10
-54.410005422520982
20
127.15613451292013
30
-7.8886090522101181e-30
10
-53.915514315397168
20
127.0022051170146
30
-3.944304526105059e-30
10
-53.76457621042298
20
126.95521982044792
30
-3.944304526105059e-30
10
-53.606986105212115
20
126.93265271849344
30
-3.944304526105059e-30
10
-53.457442422826638
20
126.93265271849344
30
3.944304526105059e-30
0
SPLINE
5
139
100
AcDbEntity
8
0
100
AcDbSpline
70
2
71
3
72
26
73
22
74
0
42
0.000000001
43
0.0000000001
44
0.0000000001
40
0
40
0
40
0
40
0
40
0.12570626283276776
40
0.12570626283276776
40
0.12570626283276776
40
0.24584507729159918
40
0.24584507729159918
40
0.24584507729159918
40
0.36648079362637165
40
0.36648079362637165
40
0.36648079362637165
40
0.52043166460498813
40
0.52043166460498813
40
0.52043166460498813
40
0.71227161339290856
40
0.71227161339290856
40
0.71227161339290856
40
0.85924845747209044
40
0.85924845747209044
40
0.85924845747209044
40
0.904111562180829
40
0.904111562180829
40
0.904111562180829
40
0.904111562180829
10
4.3550575771733993
20
126.93265271849344
30
-3.944304526105059e-30
10
4.7740784532826543
20
126.93265271849344
30
-3.944304526105059e-30
10
5.2258134627451458
20
127.13175041107658
30
-3.944304526105059e-30
10
5.5027293283889414
20
127.45111032886734
30
0
10
5.7673807709948282
20
127.75632600423982
30
3.944304526105059e-30
10
5.8973219408920645
20
128.18456028303726
30
0
10
5.8414322612749361
20
128.58428084195
30
7.8886090522101181e-30
10
5.7853114183425003
20
128.98565467084435
30
0
10
5.5472310154676583
20
129.36214029284858
30
3.944304526105059e-30
10
5.1990450007955893
20
129.59224617279128
30
7.8886090522101181e-30
10
4.7547027956016903
20
129.88589884640058
30
7.8886090522101181e-30
10
4.1500360094791464
20
129.92461442477105
30
3.944304526105059e-30
10
3.6668183973284991
20
129.6823122837628
30
3.944304526105059e-30
10
3.0646753800195725
20
129.38037680248394
30
-7.8886090522101181e-30
10
2.7393671486662523
20
128.6855880787642
30
0
10
2.8962884670394446
20
128.04950938538761
30
0
10
3.016512645001113
20
127.56218211320484
30
-3.944304526105059e-30
10
3.4024945775298354
20
127.1561345128785
30
0
10
3.8969856846724933
20
127.00220511699291
30
0
10
4.0479237896254716
20
126.9552198204407
30
-3.944304526105059e-30
10
4.205513894810923
20
126.93265271849344
30
3.944304526105059e-30
10
4.3550575771733993
20
126.93265271849344
30
-3.944304526105059e-30
0
SPLINE
5
140
100
AcDbEntity
8
0
100
AcDbSpline
70
2
71
3
72
26
73
22
74
0
42
0.000000001
43
0.0000000001
44
0.0000000001
40
0
40
0
40
0
40
0
40
0.11924447257117887
40
0.11924447257117887
40
0.11924447257117887
40
0.22477231502118028
40
0.22477231502118028
40
0.22477231502118028
40
0.33805751296292241
40
0.33805751296292241
40
0.33805751296292241
40
0.4834267383395533
40
0.4834267383395533
40
0.4834267383395533
40
0.66362066307406953
40
0.66362066307406953
40
0.66362066307406953
40
0.8030527029645077
40
0.8030527029645077
40
0.8030527029645077
40
0.84381458780858565
40
0.84381458780858565
40
0.84381458780858565
40
0.84381458780858565
10
-289.71959786208544
20
63.767677873139057
30
-1.9721522630525295e-30
10
-290.11707943732267
20
63.767677873139057
30
-1.9721522630525295e-30
10
-290.54418187512118
20
63.958765698837098
30
1.9721522630525295e-30
10
-290.8033313648923
20
64.266342508612752
30
1.9721522630525295e-30
10
-291.03267102263823
20
64.53853891674315
30
0
10
-291.14883454226629
20
64.912686522487348
30
-1.9721522630525295e-30
10
-291.11256609449703
20
65.262562042802216
30
0
10
-291.0736315518285
20
65.638156925191851
30
-1.9721522630525295e-30
10
-290.86005930089055
20
66.002365326649709
30
1.9721522630525295e-30
10
-290.5413753725727
20
66.226655287693333
30
1.9721522630525295e-30
10
-290.13243548774005
20
66.51446745105676
30
-1.9721522630525295e-30
10
-289.55965459652748
20
66.56575529235306
30
0
10
-289.0989679006226
20
66.344580435210815
30
0
10
-288.52791894859723
20
66.070420856676918
30
1.9721522630525295e-30
10
-288.21335540676552
20
65.419593974605732
30
-1.9721522630525295e-30
10
-288.3553391188122
20
64.821492413996836
30
1.9721522630525295e-30
10
-288.46520452426938
20
64.358688128113059
30
0
10
-288.83314196420503
20
63.971311211159481
30
0
10
-289.30328732204839
20
63.829159444981428
30
1.9721522630525295e-30
10
-289.44073070271935
20
63.787602469067679
30
0
10
-289.58372491260513
20
63.767677873139057
30
-1.9721522630525295e-30
10
-289.71959786208544
20
63.767677873139057
30
-1.9721522630525295e-30
0
SPLINE
5
141
100
AcDbEntity
8
0
100
AcDbSpline
70
2
71
3
72
26
73
22
74
0
42
0.000000001
43
0.0000000001
44
0.0000000001
40
0
40
0
40
0
40
0
40
0.11924447257331416
40
0.11924447257331416
40
0.11924447257331416
40
0.22477231502448963
40
0.22477231502448963
40
0.22477231502448963
40
0.33805751296723691
40
0.33805751296723691
40
0.33805751296723691
40
0.48342673834370165
40
0.48342673834370165
40
0.48342673834370165
40
0.66362066307614354
40
0.66362066307614354
40
0.66362066307614354
40
0.80305270296821263
40
0.80305270296821263
40
0.80305270296821263
40
0.84381458780858543
40
0.84381458780858543
40
0.84381458780858543
40
0.84381458780858543
10
-228.71959786208544
20
63.767677873139057
30
0
10
-229.11707943732981
20
63.767677873139057
30
0
10
-229.54418187513431
20
63.958765698842896
30
-1.9721522630525295e-30
10
-229.80333136490617
20
64.266342508629208
30
0
10
-230.03267102265116
20
64.538538916767209
30
-1.9721522630525295e-30
10
-230.14883454227225
20
64.912686522515358
30
0
10
-230.11256609449356
20
65.262562042835185
30
0
10
-230.07363155181505
20
65.638156925229282
30
0
10
-229.86005930086628
20
66.002365326681939
30
-1.9721522630525295e-30
10
-229.54137537253629
20
66.22665528771897
30
0
10
-229.13243548769213
20
66.514467451071056
30
0
10
-228.55965459647976
20
66.56575529234766
30
1.9721522630525295e-30
10
-228.09896790058318
20
66.344580435191887
30
0
10
-227.52791894857396
20
66.070420856644063
30
0
10
-227.21335540676228
20
65.419593974576827
30
0
10
-227.35533911881706
20
64.821492413976131
30
-1.9721522630525295e-30
10
-227.46520452428311
20
64.358688128087962
30
1.9721522630525295e-30
10
-227.83314196423359
20
63.971311211136808
30
0
10
-228.30328732208588
20
63.829159444970088
30
0
10
-228.44073070274536
20
63.78760246906392
30
0
10
-228.5837249126175
20
63.767677873139057
30
0
10
-228.71959786208544
20
63.767677873139057
30
0
0
SPLINE
5
142
100
AcDbEntity
8
0
100
AcDbSpline
70
2
71
3
72
26
73
22
74
0
42
0.000000001
43
0.0000000001
44
0.0000000001
40
0
40
0
40
0
40
0
40
0.11924447256876855
40
0.11924447256876855
40
0.11924447256876855
40
0.22477231501814809
40
0.22477231501814809
40
0.22477231501814809
40
0.33805751295935182
40
0.33805751295935182
40
0.33805751295935182
40
0.48342673833542926
40
0.48342673833542926
40
0.48342673833542926
40
0.66362066307200784
40
0.66362066307200784
40
0.66362066307200784
40
0.80305270296222975
40
0.80305270296222975
40
0.80305270296222975
40
0.84381458780858642
40
0.84381458780858642
40
0.84381458780858642
40
0.84381458780858642
10
-81.719595671614712
20
17.905661118484105
30
0
10
-82.117077246843905
20
17.905661118484108
30
0
10
-82.544179684635296
20
18.096748944175332
30
0
10
-82.803329174405818
20
18.404325753939109
30
0
10
-83.032668832154485
20
18.676522162062895
30
0
10
-83.148832351790233
20
19.050669767805491
30
0
10
-83.112563904029386
20
19.400545288117165
30
0
10
-83.07362936136991
20
19.776140170503798
30
1.9721522630525295e-30
10
-82.860057110440835
20
20.140348571967394
30
0
10
-82.541373182132162
20
20.36463853301715
30
0
10
-82.132433297310826
20
20.652450696388716
30
0
10
-81.559652406102003
20
20.703738537702403
30
-1.9721522630525295e-30
10
-81.098965710191194
20
20.482563680574685
30
1.9721522630525295e-30
10
-80.527916758149658
20
20.208404102054601
30
0
10
-80.213353216298273
20
19.557577219978814
30
0
10
-80.355336928336598
20
18.959475659362397
30
-1.9721522630525295e-30
10
-80.465202333785925
20
18.496671373478815
30
0
10
-80.833139773714052
20
18.109294456519294
30
0
10
-81.303285131554674
20
17.967142690333443
30
0
10
-81.44072851223271
20
17.925585714415028
30
0
10
-81.583722722126879
20
17.905661118484105
30
0
10
-81.719595671614712
20
17.905661118484105
30
0
0
SPLINE
5
143
100
AcDbEntity
8
0
100
AcDbSpline
70
2
71
3
72
26
73
22
74
0
42
0.000000001
43
0.0000000001
44
0.0000000001
40
0
40
0
40
0
40
0
40
0.11924447256927501
40
0.11924447256927501
40
0.11924447256927501
40
0.22477231501866987
40
0.22477231501866987
40
0.22477231501866987
40
0.33805751295953984
40
0.33805751295953984
40
0.33805751295953984
40
0.48342673833561162
40
0.48342673833561162
40
0.48342673833561162
40
0.66362066307209744
40
0.66362066307209744
40
0.66362066307209744
40
0.80305270296789955
40
0.80305270296789955
40
0.80305270296789955
40
0.84381458780858332
40
0.84381458780858332
40
0.84381458780858332
40
0.84381458780858332
10
56.280406384745504
20
17.905661118484105
30
0
10
55.882924809514527
20
17.905661118484115
30
0
10
55.455822371721773
20
18.096748944176724
30
-1.9721522630525295e-30
10
55.196672881951095
20
18.404325753943031
30
3.944304526105059e-30
10
54.967333224203244
20
18.676522162067947
30
3.944304526105059e-30
10
54.851169704569102
20
19.050669767810334
30
0
10
54.88743815233137
20
19.400545288122331
30
0
10
54.92637269499226
20
19.776140170508146
30
0
10
55.139944945921599
20
20.140348571969618
30
0
10
55.458628874229674
20
20.36463853301828
30
0
10
55.867568759051437
20
20.652450696389266
30
0
10
56.440349650260615
20
20.703738537702069
30
0
10
56.901036346170855
20
20.482563680573836
30
0
10
57.472085298211397
20
20.208404102053244
30
0
10
57.786648840062149
20
19.55757721997773
30
0
10
57.644665128023398
20
18.959475659361487
30
0
10
57.534799722569289
20
18.496671373459282
30
0
10
57.166862282612897
20
18.109294456487774
30
0
10
56.696716924748202
20
17.967142690316109
30
0
10
56.559273544087738
20
17.925585714409284
30
0
10
56.416279334214465
20
17.905661118484105
30
0
10
56.280406384745504
20
17.905661118484105
30
0
0
SPLINE
5
144
100
AcDbEntity
8
0
100
AcDbSpline
70
0
71
3
72
11
73
7
74
0
42
0.000000001
43
0.0000000001
44
0.0000000001
40
-3.1415926535897931
40
-3.1415926535897931
40
-3.1415926535897931
40
-3.1415926535897931
40
-2.2894500605194601
40
-2.2894500605194601
40
-2.2894500605194601
40
-1.6637826824503152
40
-1.6637826824503152
40
-1.6637826824503152
40
-1.6637826824503152
10
-131.39479207931527
20
132.89582870148712
30
3.944304526105059e-30
10
-133.20392403076508
20
132.89582870148712
30
3.944304526105059e-30
10
-134.99769856148976
20
133.68598128230991
30
3.944304526105059e-30
10
-136.18878028137843
20
135.00756687449152
30
3.944304526105059e-30
10
-137.06330642619153
20
135.97791268172895
30
3.944304526105059e-30
10
-137.61305635522612
20
137.21967031450555
30
0
10
-137.73639372337459
20
138.5032668331275
30
3.944304526105059e-30
0
LINE
5
145
100
AcDbEntity
8
0
100
AcDbLine
10
-137.73639372337459
20
138.50326683312747
30
3.9443045261050618e-30
11
-433.71959291489986
21
138.50326683312753
31
-3.944304526105059e-30
0
LINE
5
146
100
AcDbEntity
8
0
100
AcDbLine
10
-433.71959291489986
20
138.50326683312753
30
-3.944304526105059e-30
11
-433.71959291489986
21
-32.862918184654589
31
0
0
LINE
5
147
100
AcDbEntity
8
0
100
AcDbLine
10
-433.71959291489986
20
-32.862918184654589
30
0
11
100.08040708510009
21
-32.862918184654589
31
1.1386317950550899e-29
0
LINE
5
148
100
AcDbEntity
8
0
100
AcDbLine
10
100.08040708510009
20
-32.862918184654589
30
1.1386317950550899e-29
11
100.08040708510016
21
138.50326683312753
31
1.9721522630525295e-30
0
LINE
5
149
100
AcDbEntity
8
0
100
AcDbLine
10
100.08040708510016
20
138.50326683312753
30
1.9721522630525295e-30
11
-125.05319043525591
21
138.5032668331275
31
-3.944304526105059e-30
0
SPLINE
5
150
100
AcDbEntity
8
0
100
AcDbSpline
70
0
71
3
72
11
73
7
74
0
42
0.000000001
43
0.0000000001
44
0.0000000001
40
1.6637826824503152
40
1.6637826824503152
40
1.6637826824503152
40
1.6637826824503152
40
2.5159252755206483
40
2.5159252755206483
40
2.5159252755206483
40
3.1415926535897931
40
3.1415926535897931
40
3.1415926535897931
40
3.1415926535897931
10
-125.05319043525591
20
138.5032668331275
30
3.944304526105059e-30
10
-125.22117270251246
20
136.75504197088497
30
3.944304526105059e-30
10
-126.19836031697207
20
135.09502507302508
30
3.944304526105059e-30
10
-127.66479284942847
20
134.06675528317757
30
3.944304526105059e-30
10
-128.74148940838285
20
133.31177029757379
30
0
10
-130.06647583993288
20
132.89582870148712
30
3.944304526105059e-30
10
-131.39479207931527
20
132.89582870148712
30
3.944304526105059e-30
0
SPLINE
5
151
100
AcDbEntity
8
0
100
AcDbSpline
70
2
71
3
72
26
73
22
74
0
42
0.000000001
43
0.0000000001
44
0.0000000001
40
0
40
0
40
0
40
0
40
0.1192444725704607
40
0.1192444725704607
40
0.1192444725704607
40
0.22477231502042644
40
0.22477231502042644
40
0.22477231502042644
40
0.33805751296215469
40
0.33805751296215469
40
0.33805751296215469
40
0.48342673833815081
40
0.48342673833815081
40
0.48342673833815081
40
0.66362066307336653
40
0.66362066307336653
40
0.66362066307336653
40
0.80305270297343112
40
0.80305270297343112
40
0.80305270297343112
40
0.84381458780858232
40
0.84381458780858232
40
0.84381458780858232
40
0.84381458780858232
10
92.180407085100114
20
96.899183335964864
30
0
10
92.577888660335105
20
96.899183335964835
30
0
10
93.004991098131242
20
96.708095510268947
30
0
10
93.26414058790229
20
96.400518700496761
30
0
10
93.493480245649437
20
96.128322292367869
30
0
10
93.609643765279671
20
95.7541746866236
30
3.944304526105059e-30
10
93.573375317512472
20
95.404299166309244
30
-3.944304526105059e-30
10
93.534440774846217
20
95.028704283920064
30
3.944304526105059e-30
10
93.320868523909994
20
94.664495882460216
30
0
10
93.002184595593917
20
94.440205921415128
30
0
10
92.593244710765234
20
94.152393758051034
30
0
10
92.020463819556099
20
94.101105916750072
30
0
10
91.559777123650647
20
94.322280773886717
30
0
10
90.988728171619783
20
94.596440352415954
30
0
10
90.674164629781572
20
95.2472672344893
30
0
10
90.816148341825254
20
95.845368795100185
30
0
10
90.926013747287314
20
96.308173081015667
30
0
10
91.293951187269329
20
96.695549997993226
30
0
10
91.764096545153407
20
96.837701764149784
30
0
10
91.901539925796683
20
96.879258740045273
30
0
10
92.044534135649599
20
96.899183335964864
30
0
10
92.180407085100114
20
96.899183335964864
30
0
0
SPLINE
5
152
100
AcDbEntity
8
0
100
AcDbSpline
70
2
71
3
72
26
73
22
74
0
42
0.000000001
43
0.0000000001
44
0.0000000001
40
0
40
0
40
0
40
0
40
0.11924447256769122
40
0.11924447256769122
40
0.11924447256769122
40
0.22477231501658823
40
0.22477231501658823
40
0.22477231501658823
40
0.33805751295633285
40
0.33805751295633285
40
0.33805751295633285
40
0.48342673833184624
40
0.48342673833184624
40
0.48342673833184624
40
0.66362066307021594
40
0.66362066307021594
40
0.66362066307021594
40
0.803052702962604
40
0.803052702962604
40
0.803052702962604
40
0.84381458780858565
40
0.84381458780858565
40
0.84381458780858565
40
0.84381458780858565
10
92.1804070851001
20
10.002730537671239
30
0
10
92.577888660325826
20
10.002730537671216
30
0
10
93.004991098114189
20
9.8116427119827616
30
0
10
93.264140587884214
20
9.5040659022245269
30
0
10
93.493480245633464
20
9.2318694941044264
30
3.944304526105059e-30
10
93.609643765272807
20
8.8577218883633417
30
0
10
93.57337531751638
20
8.5078463680537535
30
0
10
93.534440774861963
20
8.1322514856724819
30
0
10
93.320868523941158
20
7.7680430842090313
30
3.944304526105059e-30
10
93.00218459564303
20
7.543753123156077
30
-1.9721522630525295e-30
10
92.593244710831527
20
7.2559409597778215
30
0
10
92.020463819626258
20
7.2046531184492979
30
7.8886090522101181e-30
10
91.55977712371056
20
7.4258279755642729
30
3.944304526105059e-30
10
90.988728171655112
20
7.6999875540723455
30
-1.9721522630525295e-30
10
90.674164629786588
20
8.3508144361520067
30
0
10
90.81614834181778
20
8.9489159967751331
30
0
10
90.926013747262203
20
9.4117202826664954
30
-1.9721522630525295e-30
10
91.29395118719566
20
9.799097199636325
30
0
10
91.764096545043827
20
9.9412489658230374
30
0
10
91.90153992572067
20
9.9828059417406791
30
0
10
92.044534135613475
20
10.002730537671237
30
0
10
92.1804070851001
20
10.002730537671239
30
0
0
SPLINE
5
153
100
AcDbEntity
8
0
100
AcDbSpline
70
2
71
3
72
23
73
19
74
0
42
0.000000001
43
0.0000000001
44
0.0000000001
40
-3.1415926535897931
40
-3.1415926535897931
40
-3.1415926535897931
40
-3.1415926535897931
40
-2.0634438808525903
40
-2.0634438808525903
40
-2.0634438808525903
40
-0.99433046682887438
40
-0.99433046682887438
40
-0.99433046682887438
40
0.1005210682619968
40
0.1005210682619968
40
0.1005210682619968
40
1.17700171987421
40
1.17700171987421
40
1.17700171987421
40
2.2632442104286965
40
2.2632442104286965
40
2.2632442104286965
40
3.1415926535897931
40
3.1415926535897931
40
3.1415926535897931
40
3.1415926535897931
10
-260.34322636461161
20
126.93210989982491
30
3.944304526105059e-30
10
-259.44476905399722
20
126.93210989982491
30
3.944304526105059e-30
10
-258.56545156725883
20
126.42162935818895
30
0
10
-258.14051696407938
20
125.65334505685429
30
3.944304526105059e-30
10
-257.71914349890483
20
124.89149931430858
30
-3.944304526105059e-30
10
-257.76162782425916
20
123.90822930537018
30
3.944304526105059e-30
10
-258.24724082597857
20
123.18329588534702
30
0
10
-258.74454460443513
20
122.44091022509807
30
0
10
-259.68633542194459
20
122.00286624535264
30
-7.8886090522101181e-30
10
-260.59410603501522
20
122.09172633828872
30
3.944304526105059e-30
10
-261.48664485854761
20
122.17909541773038
30
3.944304526105059e-30
10
-262.30767520740113
20
122.77083876813458
30
-3.944304526105059e-30
10
-262.65187571169713
20
123.57482805863359
30
7.8886090522101181e-30
10
-262.99919752605274
20
124.38610815733561
30
0
10
-262.84534220684361
20
125.37862437333267
30
0
10
-262.26744020685874
20
126.0548103856575
30
3.944304526105059e-30
10
-261.80014185828531
20
126.60158234162256
30
7.8886090522101181e-30
10
-261.07518340057919
20
126.93210989982491
30
3.944304526105059e-30
10
-260.34322636461161
20
126.93210989982491
30
3.944304526105059e-30
0
SPLINE
5
154
100
AcDbEntity
8
0
100
AcDbSpline
70
2
71
3
72
26
73
22
74
0
42
0.000000001
43
0.0000000001
44
0.0000000001
40
0
40
0
40
0
40
0
40
0.11924447257005526
40
0.11924447257005526
40
0.11924447257005526
40
0.22477231501959108
40
0.22477231501959108
40
0.22477231501959108
40
0.33805751296031905
40
0.33805751296031905
40
0.33805751296031905
40
0.48342673833610728
40
0.48342673833610728
40
0.48342673833610728
40
0.66362066307235623
40
0.66362066307235623
40
0.66362066307235623
40
0.80305270296444853
40
0.80305270296444853
40
0.80305270296444853
40
0.84381458780860519
40
0.84381458780860519
40
0.84381458780860519
40
0.84381458780860519
10
-421.57959141924232
20
7.2849835542481518
30
0
10
-421.9770729944758
20
7.2849835542481669
30
1.9721522630525295e-30
10
-422.40417543227102
20
7.4760713799431846
30
-1.9721522630525295e-30
10
-422.66332492204174
20
7.7836481897131202
30
0
10
-422.8926645797884
20
8.0558445978398279
30
-1.9721522630525295e-30
10
-423.00882809942016
20
8.4299922035827315
30
-3.944304526105059e-30
10
-422.97255965165539
20
8.779867723895455
30
5.9164567891575885e-30
10
-422.93362510899192
20
9.1554626062810787
30
-5.9164567891575885e-30
10
-422.72005285806097
20
9.5196710077400635
30
0
10
-422.40136892975158
20
9.7439609687869027
30
0
10
-421.99242904492849
20
10.031773132155362
30
-3.944304526105059e-30
10
-421.41964815372097
20
10.083060973465159
30
3.944304526105059e-30
10
-420.95896145781228
20
9.8618861163355778
30
9.8607613152626476e-30
10
-420.38791250577322
20
9.5877265378131469
30
5.9164567891575885e-30
10
-420.0733489639253
20
8.9368996557378075
30
1.9721522630525295e-30
10
-420.21533267596499
20
8.3387980951229306
30
1.9721522630525295e-30
10
-420.325198081417
20
7.8759938092334849
30
3.944304526105059e-30
10
-420.69313552135554
20
7.4886168922707537
30
0
10
-421.16328087920454
20
7.3464651260907452
30
-3.944304526105059e-30
10
-421.30072425987572
20
7.3049081501768356
30
1.9721522630525295e-30
10
-421.44371846976179
20
7.2849835542481465
30
-1.9721522630525295e-30
10
-421.57959141924232
20
7.2849835542481518
30
0
0
SPLINE
5
155
100
AcDbEntity
8
0
100
AcDbSpline
70
2
71
3
72
26
73
22
74
0
42
0.000000001
43
0.0000000001
44
0.0000000001
40
0
40
0
40
0
40
0
40
0.11924447257044359
40
0.11924447257044359
40
0.11924447257044359
40
0.22477231502021999
40
0.22477231502021999
40
0.22477231502021999
40
0.33805751296121667
40
0.33805751296121667
40
0.33805751296121667
40
0.48342673833631367
40
0.48342673833631367
40
0.48342673833631367
40
0.66362066307245371
40
0.66362066307245371
40
0.66362066307245371
40
0.80305270296377107
40
0.80305270296377107
40
0.80305270296377107
40
0.84381458780859364
40
0.84381458780859364
40
0.84381458780859364
40
0.84381458780859364
10
-421.57959141924232
20
94.181436352541795
30
3.944304526105059e-30
10
-421.97707299447711
20
94.181436352541809
30
7.8886090522101181e-30
10
-422.40417543227329
20
94.37252417823774
30
3.944304526105059e-30
10
-422.66332492204424
20
94.680100988009769
30
-3.944304526105059e-30
10
-422.89266457979096
20
94.952297396138064
30
-7.8886090522101181e-30
10
-423.00882809942141
20
95.32644500188168
30
7.8886090522101181e-30
10
-422.97255965165476
20
95.676320522195354
30
7.8886090522101181e-30
10
-422.9336251089893
20
96.051915404582019
30
0
10
-422.72005285805596
20
96.416123806040289
30
3.944304526105059e-30
10
-422.40136892974391
20
96.640413767085903
30
-3.944304526105059e-30
10
-421.99242904492019
20
96.928225930450765
30
-3.944304526105059e-30
10
-421.41964815371648
20
96.979513771757581
30
-3.944304526105059e-30
10
-420.95896145781023
20
96.758338914628354
30
-3.944304526105059e-30
10
-420.38791250577196
20
96.484179336105228
30
3.944304526105059e-30
10
-420.07334896392513
20
95.83335245403029
30
0
10
-420.21533267596516
20
95.235250893415611
30
3.944304526105059e-30
10
-420.325198081417
20
94.772446607528607
30
0
10
-420.69313552135202
20
94.385069690568031
30
3.944304526105059e-30
10
-421.16328087919771
20
94.242917924386447
30
3.944304526105059e-30
10
-421.30072425987095
20
94.201360948471162
30
-3.944304526105059e-30
10
-421.44371846975957
20
94.181436352541795
30
3.944304526105059e-30
10
-421.57959141924232
20
94.181436352541795
30
3.944304526105059e-30
0
SPLINE
5
156
100
AcDbEntity
8
0
100
AcDbSpline
70
2
71
3
72
26
73
22
74
0
42
0.000000001
43
0.0000000001
44
0.0000000001
40
0
40
0
40
0
40
0
40
0.12570626283316144
40
0.12570626283316144
40
0.12570626283316144
40
0.24584507729218019
40
0.24584507729218019
40
0.24584507729218019
40
0.36648079362822389
40
0.36648079362822389
40
0.36648079362822389
40
0.52043166460661738
40
0.52043166460661738
40
0.52043166460661738
40
0.71227161339372325
40
0.71227161339372325
40
0.71227161339372325
40
0.85924845746634837
40
0.85924845746634837
40
0.85924845746634837
40
0.904111562180829
40
0.904111562180829
40
0.904111562180829
40
0.904111562180829
10
62.167557577173383
20
126.93265271849347
30
0
10
62.586578453283934
20
126.93265271849347
30
0
10
63.038313462747553
20
127.1317504110776
30
3.944304526105059e-30
10
63.315229328391538
20
127.45111032887036
30
-3.944304526105059e-30
10
63.579880770997192
20
127.75632600424423
30
3.944304526105059e-30
10
63.709821940893043
20
128.18456028304237
30
-3.944304526105059e-30
10
63.653932261274129
20
128.58428084195583
30
-7.8886090522101181e-30
10
63.597811418339404
20
128.98565467085453
30
0
10
63.359731015459005
20
129.36214029286074
30
-3.944304526105059e-30
10
63.011545000779535
20
129.59224617280194
30
3.944304526105059e-30
10
62.567202795581515
20
129.88589884640578
30
-7.8886090522101181e-30
10
61.962536009460024
20
129.92461442476835
30
3.944304526105059e-30
10
61.479318397313172
20
129.68231228375515
30
3.944304526105059e-30
10
60.877175380010648
20
129.38037680247101
30
-3.944304526105059e-30
10
60.551867148665025
20
128.68558807875314
30
-3.944304526105059e-30
10
60.708788467041444
20
128.04950938537954
30
0
10
60.829012645000731
20
127.56218211321874
30
0
10
61.214994577499368
20
127.15613451290949
30
3.944304526105059e-30
10
61.709485684614535
20
127.00220511701097
30
3.944304526105059e-30
10
61.86042378958517
20
126.9552198204467
30
-3.944304526105059e-30
10
62.018013894791778
20
126.93265271849347
30
0
10
62.167557577173383
20
126.93265271849347
30
0
0
SPLINE
5
157
100
AcDbEntity
8
0
100
AcDbSpline
70
2
71
3
72
26
73
22
74
0
42
0.000000001
43
0.0000000001
44
0.0000000001
40
0
40
0
40
0
40
0
40
0.12570628968943662
40
0.12570628968943662
40
0.12570628968943662
40
0.24584490253081434
40
0.24584490253081434
40
0.24584490253081434
40
0.36648091066766042
40
0.36648091066766042
40
0.36648091066766042
40
0.52043294458900058
40
0.52043294458900058
40
0.52043294458900058
40
0.71227263334600233
40
0.71227263334600233
40
0.71227263334600233
40
0.85924854358353153
40
0.85924854358353153
40
0.85924854358353153
40
0.90411232210300396
40
0.90411232210300396
40
0.90411232210300396
40
0.90411232210300396
10
-16.957442422826627
20
-22.758593942574471
30
0
10
-17.376463388458131
20
-22.758593942574471
30
0
10
-17.828198796488401
20
-22.957691078238987
30
0
10
-18.105114760797917
20
-23.277051051186767
30
0
10
-18.36976579701869
20
-23.582266201851031
30
0
10
-18.499706300382552
20
-24.010499812823667
30
-1.9721522630525295e-30
10
-18.443817347569567
20
-24.41021968168025
30
0
10
-18.387697004518749
20
-24.811594462122475
30
0
10
-18.149617364042442
20
-25.188081912305233
30
0
10
-17.801431525533001
20
-25.418189647725139
30
0
10
-17.357087263409138
20
-25.711846197175472
30
0
10
-16.752415309874813
20
-25.750561037968676
30
0
10
-16.269196867547649
20
-25.508254194577656
30
0
10
-15.66705818047418
20
-25.206315543714652
30
0
10
-15.341752208352371
20
-24.511524479099563
30
-7.8886090522101181e-30
10
-15.498673670465283
20
-23.875447724397429
30
3.944304526105059e-30
10
-15.618897357645382
20
-23.38812437327535
30
0
10
-16.004874839442934
20
-22.982079265201499
30
0
10
-16.499363089677935
20
-22.828148447603752
30
0
10
-16.650303548581519
20
-22.781161712860172
30
0
10
-16.807896494428402
20
-22.758593942574471
30
0
10
-16.957442422826627
20
-22.758593942574471
30
0
0
SPLINE
5
158
100
AcDbEntity
8
0
100
AcDbSpline
70
2
71
3
72
26
73
22
74
0
42
0.000000001
43
0.0000000001
44
0.0000000001
40
0
40
0
40
0
40
0
40
0.12570628968716047
40
0.12570628968716047
40
0.12570628968716047
40
0.24584490252775726
40
0.24584490252775726
40
0.24584490252775726
40
0.36648091066016253
40
0.36648091066016253
40
0.36648091066016253
40
0.5204329445816176
40
0.5204329445816176
40
0.5204329445816176
40
0.71227263334231083
40
0.71227263334231083
40
0.71227263334231083
40
0.85924854358036395
40
0.85924854358036395
40
0.85924854358036395
40
0.90411232210300396
40
0.90411232210300396
40
0.90411232210300396
40
0.90411232210300396
10
-67.582442422826631
20
-22.758593942574468
30
0
10
-68.001463388450517
20
-22.758593942574471
30
1.9721522630525295e-30
10
-68.453198796474325
20
-22.957691078232866
30
1.9721522630525295e-30
10
-68.73011476078284
20
-23.277051051169412
30
1.9721522630525295e-30
10
-68.994765797005726
20
-23.582266201826478
30
0
10
-69.124706300377483
20
-24.010499812796297
30
0
10
-69.068817347573798
20
-24.410219681649743
30
0
10
-69.012697004534033
20
-24.811594462076648
30
0
10
-68.774617364079418
20
-25.188081912254908
30
0
10
-68.42643152559792
20
-25.418189647682237
30
0
10
-67.982087263493028
20
-25.711846197153069
30
0
10
-67.37741530995892
20
-25.750561037979885
30
0
10
-66.894196867617154
20
-25.508254194612533
30
0
10
-66.292058180514346
20
-25.206315543773439
30
0
10
-65.966752208357718
20
-24.511524479150722
30
3.944304526105059e-30
10
-66.123673670456228
20
-23.875447724434157
30
-3.944304526105059e-30
10
-66.243897357623382
20
-23.388124373308653
30
0
10
-66.629874839412167
20
-22.982079265222932
30
0
10
-67.124363089645954
20
-22.828148447613703
30
0
10
-67.275303548559279
20
-22.781161712863472
30
0
10
-67.432896494417847
20
-22.758593942574468
30
0
10
-67.582442422826631
20
-22.758593942574468
30
0
0
SPLINE
5
159
100
AcDbEntity
8
0
100
AcDbSpline
70
2
71
3
72
26
73
22
74
0
42
0.000000001
43
0.0000000001
44
0.0000000001
40
0
40
0
40
0
40
0
40
0.1257062896852213
40
0.1257062896852213
40
0.1257062896852213
40
0.24584490252540786
40
0.24584490252540786
40
0.24584490252540786
40
0.36648091065419741
40
0.36648091065419741
40
0.36648091065419741
40
0.52043294457541056
40
0.52043294457541056
40
0.52043294457541056
40
0.71227263333920732
40
0.71227263333920732
40
0.71227263333920732
40
0.85924854357817004
40
0.85924854357817004
40
0.85924854357817004
40
0.90411232210300396
40
0.90411232210300396
40
0.90411232210300396
40
0.90411232210300396
10
-118.20744242282663
20
-22.758593942574468
30
0
10
-118.62646338844407
20
-22.758593942574464
30
1.9721522630525295e-30
10
-119.07819879646235
20
-22.957691078227676
30
0
10
-119.35511476077002
20
-23.277051051154633
30
0
10
-119.61976579699527
20
-23.582266201806199
30
0
10
-119.7497063003737
20
-24.010499812774636
30
0
10
-119.6938173475771
20
-24.410219681626295
30
0
10
-119.63769700454591
20
-24.811594462040745
30
0
10
-119.39961736410854
20
-25.188081912215065
30
0
10
-119.05143152564958
20
-25.418189647648106
30
0
10
-118.6070872635608
20
-25.711846197134562
30
0
10
-118.00241531002868
20
-25.750561037988788
30
0
10
-117.51919686767562
20
-25.508254194641843
30
0
10
-116.91705818054803
20
-25.206315543822818
30
0
10
-116.59175220836224
20
-24.511524479193724
30
0
10
-116.74867367044861
20
-23.87544772446503
30
-1.9721522630525295e-30
10
-116.86889735760531
20
-23.388124373335103
30
1.9721522630525295e-30
10
-117.25487483938906
20
-22.98207926523833
30
0
10
-117.74936308962381
20
-22.828148447620599
30
0
10
-117.90030354854389
20
-22.781161712865767
30
0
10
-118.05789649441053
20
-22.758593942574468
30
0
10
-118.20744242282663
20
-22.758593942574468
30
0
0
SPLINE
5
160
100
AcDbEntity
8
0
100
AcDbSpline
70
2
71
3
72
26
73
22
74
0
42
0.000000001
43
0.0000000001
44
0.0000000001
40
0
40
0
40
0
40
0
40
0.12570628968532502
40
0.12570628968532502
40
0.12570628968532502
40
0.24584490252536648
40
0.24584490252536648
40
0.24584490252536648
40
0.36648091065412003
40
0.36648091065412003
40
0.36648091065412003
40
0.52043294457522227
40
0.52043294457522227
40
0.52043294457522227
40
0.71227263333911317
40
0.71227263333911317
40
0.71227263333911317
40
0.85924854357510738
40
0.85924854357510738
40
0.85924854357510738
40
0.90411232210300396
40
0.90411232210300396
40
0.90411232210300396
40
0.90411232210300396
10
-168.83244242282666
20
-22.758593942574468
30
0
10
-169.25146338844442
20
-22.758593942574471
30
0
10
-169.70319879646303
20
-22.957691078227995
30
0
10
-169.9801147607707
20
-23.277051051155439
30
1.9721522630525295e-30
10
-170.24476579699541
20
-23.582266201806842
30
0
10
-170.37470630037359
20
-24.010499812774711
30
0
10
-170.31881734757715
20
-24.410219681625875
30
0
10
-170.26269700454608
20
-24.811594462040198
30
0
10
-170.02461736410902
20
-25.188081912214496
30
0
10
-169.67643152565023
20
-25.418189647647658
30
0
10
-169.23208726356194
20
-25.71184619713415
30
0
10
-168.62741531003041
20
-25.750561037988863
30
0
10
-168.14419686767738
20
-25.508254194642717
30
0
10
-167.54205818054913
20
-25.206315543824328
30
0
10
-167.21675220836235
20
-24.511524479195028
30
0
10
-167.37367367044837
20
-23.875447724465953
30
0
10
-167.49389735760229
20
-23.388124373345818
30
-7.8886090522101181e-30
10
-167.8798748393711
20
-22.982079265255383
30
0
10
-168.37436308959292
20
-22.82814844763022
30
0
10
-168.52530354852237
20
-22.781161712868961
30
0
10
-168.68289649440032
20
-22.758593942574468
30
0
10
-168.83244242282666
20
-22.758593942574468
30
0
0
SPLINE
5
161
100
AcDbEntity
8
0
100
AcDbSpline
70
2
71
3
72
26
73
22
74
0
42
0.000000001
43
0.0000000001
44
0.0000000001
40
0
40
0
40
0
40
0
40
0.12570628968474362
40
0.12570628968474362
40
0.12570628968474362
40
0.24584490252470143
40
0.24584490252470143
40
0.24584490252470143
40
0.36648091065246374
40
0.36648091065246374
40
0.36648091065246374
40
0.52043294457358213
40
0.52043294457358213
40
0.52043294457358213
40
0.71227263333829305
40
0.71227263333829305
40
0.71227263333829305
40
0.85924854357397318
40
0.85924854357397318
40
0.85924854357397318
40
0.90411232210300396
40
0.90411232210300396
40
0.90411232210300396
40
0.90411232210300396
10
-219.45744242282666
20
-22.758593942574468
30
0
10
-219.87646338844246
20
-22.758593942574471
30
-1.9721522630525295e-30
10
-220.32819879645945
20
-22.957691078226425
30
0
10
-220.60511476076687
20
-23.277051051150998
30
0
10
-220.8697657969924
20
-23.582266201800866
30
0
10
-220.99970630037257
20
-24.010499812768469
30
0
10
-220.94381734757809
20
-24.410219681619235
30
0
10
-220.88769700454947
20
-24.811594462030143
30
0
10
-220.64961736411715
20
-25.188081912203401
30
0
10
-220.30143152566461
20
-25.418189647638183
30
0
10
-219.85708726358052
20
-25.711846197129191
30
0
10
-219.25241531004906
20
-25.75056103799135
30
0
10
-218.76919686769284
20
-25.508254194650476
30
0
10
-218.16705818055806
20
-25.206315543837391
30
0
10
-217.84175220836357
20
-24.511524479206397
30
3.944304526105059e-30
10
-217.99867367044638
20
-23.87544772447411
30
-3.944304526105059e-30
10
-218.11889735759706
20
-23.388124373354636
30
0
10
-218.50487483936178
20
-22.982079265262531
30
0
10
-218.99936308958146
20
-22.828148447633787
30
0
10
-219.15030354851442
20
-22.781161712870141
30
0
10
-219.30789649439657
20
-22.758593942574468
30
0
10
-219.45744242282666
20
-22.758593942574468
30
0
0
SPLINE
5
162
100
AcDbEntity
8
0
100
AcDbSpline
70
2
71
3
72
26
73
22
74
0
42
0.000000001
43
0.0000000001
44
0.0000000001
40
0
40
0
40
0
40
0
40
0.12570628968498315
40
0.12570628968498315
40
0.12570628968498315
40
0.24584490252503038
40
0.24584490252503038
40
0.24584490252503038
40
0.36648091065294125
40
0.36648091065294125
40
0.36648091065294125
40
0.52043294457419531
40
0.52043294457419531
40
0.52043294457419531
40
0.71227263333859958
40
0.71227263333859958
40
0.71227263333859958
40
0.85924854357348646
40
0.85924854357348646
40
0.85924854357348646
40
0.90411232210300396
40
0.90411232210300396
40
0.90411232210300396
40
0.90411232210300396
10
-270.08244242282666
20
-22.758593942574485
30
-1.9721522630525295e-30
10
-270.50146338844331
20
-22.758593942574485
30
0
10
-270.95319879646092
20
-22.957691078227086
30
0
10
-271.23011476076846
20
-23.277051051152839
30
0
10
-271.49476579699376
20
-23.582266201803481
30
1.9721522630525295e-30
10
-271.62470630037308
20
-24.0104998127714
30
0
10
-271.56881734757764
20
-24.410219681622522
30
0
10
-271.51269700454799
20
-24.81159446203398
30
0
10
-271.27461736411442
20
-25.188081912206858
30
0
10
-270.92643152566046
20
-25.418189647640919
30
0
10
-270.48208726357478
20
-25.711846197130896
30
0
10
-269.87741531004258
20
-25.750561037990657
30
0
10
-269.39419686768707
20
-25.508254194647581
30
0
10
-268.79205818055476
20
-25.206315543832503
30
0
10
-268.46675220836312
20
-24.511524479202194
30
0
10
-268.62367367044715
20
-23.875447724471069
30
7.8886090522101181e-30
10
-268.74389735759826
20
-23.388124373354337
30
-7.8886090522101181e-30
10
-269.12987483936001
20
-22.982079265264925
30
1.9721522630525295e-30
10
-269.62436308957655
20
-22.828148447635328
30
0
10
-269.77530354851103
20
-22.781161712870666
30
0
10
-269.93289649439492
20
-22.758593942574485
30
1.9721522630525295e-30
10
-270.08244242282666
20
-22.758593942574485
30
-1.9721522630525295e-30
0
SPLINE
5
163
100
AcDbEntity
8
0
100
AcDbSpline
70
2
71
3
72
26
73
22
74
0
42
0.000000001
43
0.0000000001
44
0.0000000001
40
0
40
0
40
0
40
0
40
0.1257062896827589
40
0.1257062896827589
40
0.1257062896827589
40
0.24584490252204133
40
0.24584490252204133
40
0.24584490252204133
40
0.366480910645471
40
0.366480910645471
40
0.366480910645471
40
0.52043294456677591
40
0.52043294456677591
40
0.52043294456677591
40
0.71227263333488988
40
0.71227263333488988
40
0.71227263333488988
40
0.8592485435690399
40
0.8592485435690399
40
0.8592485435690399
40
0.90411232210300396
40
0.90411232210300396
40
0.90411232210300396
40
0.90411232210300396
10
-320.7074424228266
20
-22.758593942574482
30
-1.9721522630525295e-30
10
-321.12646338843581
20
-22.758593942574485
30
3.944304526105059e-30
10
-321.57819879644711
20
-22.957691078221096
30
0
10
-321.85511476075368
20
-23.277051051135885
30
1.9721522630525295e-30
10
-322.11976579698108
20
-23.582266201779504
30
0
10
-322.24970630036813
20
-24.010499812744648
30
0
10
-322.19381734758178
20
-24.410219681592686
30
0
10
-322.13769700456305
20
-24.811594461988694
30
-1.9721522630525295e-30
10
-321.89961736415108
20
-25.188081912156811
30
0
10
-321.55143152572515
20
-25.418189647598169
30
0
10
-321.10708726365851
20
-25.711846197108471
30
0
10
-320.50241531012688
20
-25.750561038001806
30
0
10
-320.01919686775688
20
-25.508254194682614
30
0
10
-319.41705818059501
20
-25.206315543891563
30
0
10
-319.09175220836846
20
-24.511524479253616
30
3.944304526105059e-30
10
-319.24867367043805
20
-23.875447724507968
30
-7.8886090522101181e-30
10
-319.36889735757518
20
-23.388124373391975
30
3.944304526105059e-30
10
-319.75487483932181
20
-22.982079265293439
30
0
10
-320.24936308953164
20
-22.828148447649298
30
1.9721522630525295e-30
10
-320.40030354847977
20
-22.781161712875303
30
1.9721522630525295e-30
10
-320.55789649438003
20
-22.758593942574482
30
-1.9721522630525295e-30
10
-320.7074424228266
20
-22.758593942574482
30
-1.9721522630525295e-30
0
SPLINE
5
164
100
AcDbEntity
8
0
100
AcDbSpline
70
2
71
3
72
26
73
22
74
0
42
0.000000001
43
0.0000000001
44
0.0000000001
40
0
40
0
40
0
40
0
40
0.12570628968140402
40
0.12570628968140402
40
0.12570628968140402
40
0.24584490252027755
40
0.24584490252027755
40
0.24584490252027755
40
0.36648091064135058
40
0.36648091064135058
40
0.36648091064135058
40
0.52043294456166145
40
0.52043294456166145
40
0.52043294456166145
40
0.71227263333233271
40
0.71227263333233271
40
0.71227263333233271
40
0.85924854356804725
40
0.85924854356804725
40
0.85924854356804725
40
0.90411232210300396
40
0.90411232210300396
40
0.90411232210300396
40
0.90411232210300396
10
-371.3324424228266
20
-22.758593942574485
30
0
10
-371.75146338843138
20
-22.758593942574493
30
-1.9721522630525295e-30
10
-372.20319879643881
20
-22.957691078217501
30
0
10
-372.48011476074475
20
-23.277051051125564
30
0
10
-372.74476579697352
20
-23.582266201765002
30
0
10
-372.87470630036518
20
-24.010499812728732
30
0
10
-372.81881734758423
20
-24.410219681575086
30
0
10
-372.76269700457169
20
-24.811594461962926
30
0
10
-372.52461736417166
20
-25.188081912128979
30
0
10
-372.17643152576079
20
-25.418189647574586
30
0
10
-371.73208726370768
20
-25.711846197094147
30
0
10
-371.12741531018185
20
-25.750561038007898
30
0
10
-370.64419686780514
20
-25.508254194706772
30
0
10
-370.04205818062292
20
-25.206315543932259
30
0
10
-369.7167522083721
20
-24.511524479289033
30
0
10
-369.87367367043169
20
-23.875447724533402
30
0
10
-369.99389735756091
20
-23.388124373411074
30
1.9721522630525295e-30
10
-370.37987483930749
20
-22.982079265301621
30
0
10
-370.87436308952164
20
-22.828148447652424
30
0
10
-371.02530354847283
20
-22.781161712876347
30
-1.9721522630525295e-30
10
-371.18289649437668
20
-22.758593942574485
30
0
10
-371.3324424228266
20
-22.758593942574485
30
0
0
SPLINE
5
165
100
AcDbEntity
8
0
100
AcDbSpline
70
2
71
3
72
50
73
46
74
0
42
0.000000001
43
0.0000000001
44
0.0000000001
40
0
40
0
40
0
40
0
40
0.33651474372285045
40
0.33651474372285045
40
0.33651474372285045
40
0.67724384097449009
40
0.67724384097449009
40
0.67724384097449009
40
0.95658811221451434
40
0.95658811221451434
40
0.95658811221451434
40
1.1813313798384473
40
1.1813313798384473
40
1.1813313798384473
40
1.48392330279424
40
1.48392330279424
40
1.48392330279424
40
1.7488835977516008
40
1.7488835977516008
40
1.7488835977516008
40
1.9982304471158763
40
1.9982304471158763
40
1.9982304471158763
40
2.2548871162614192
40
2.2548871162614192
40
2.2548871162614192
40
2.50227135377372
40
2.50227135377372
40
2.50227135377372
40
2.7546104362174422
40
2.7546104362174422
40
2.7546104362174422
40
2.9976103756166435
40
2.9976103756166435
40
2.9976103756166435
40
3.2599394658251231
40
3.2599394658251231
40
3.2599394658251231
40
3.529905144524486
40
3.529905144524486
40
3.529905144524486
40
3.9038960179359483
40
3.9038960179359483
40
3.9038960179359483
40
4.0121351453906762
40
4.0121351453906762
40
4.0121351453906762
40
4.0121351453906762
10
-17.276234557195266
20
59.070633606976443
30
1.9721522630525295e-30
10
-18.397950369604807
20
59.070633606976443
30
1.9721522630525295e-30
10
-19.613981431367563
20
59.376105893978618
30
0
10
-20.635373541568249
20
59.958389046050783
30
0
10
-21.669557089660426
20
60.547964440446542
30
1.9721522630525295e-30
10
-22.485779472899004
20
61.355483845134202
30
0
10
-23.073738825680898
20
62.371907557143402
30
1.9721522630525295e-30
10
-23.555773023072369
20
63.205215141944691
30
0
10
-23.843373609485443
20
64.161279233357519
30
-1.9721522630525295e-30
10
-23.909941955990245
20
65.082556157105159
30
0
10
-23.96349876475314
20
65.823759065296045
30
0
10
-23.888157704393134
20
66.566563907237793
30
0
10
-23.670968232478685
20
67.306096462720546
30
0
10
-23.37854665897769
20
68.301795156691597
30
0
10
-22.817834017125328
20
69.240529253187077
30
1.9721522630525295e-30
10
-22.121471113231653
20
69.962798973845651
30
-1.9721522630525295e-30
10
-21.511710883643538
20
70.595244137467631
30
1.9721522630525295e-30
10
-20.746162605938146
20
71.129008004500847
30
0
10
-19.884672765688421
20
71.48828313183779
30
-1.9721522630525295e-30
10
-19.073948360885918
20
71.826387077075424
30
0
10
-18.189226698346769
20
71.99969925806846
30
1.9721522630525295e-30
10
-17.354763564854892
20
72.009348964821399
30
0
10
-16.495837418754316
20
72.019281561121517
30
0
10
-15.588805438075164
20
71.858919294915481
30
0
10
-14.749574545926771
20
71.521760838601722
30
0
10
-13.940663189591953
20
71.19678316350884
30
1.9721522630525295e-30
10
-13.200748816056054
20
70.708279545633104
30
-1.9721522630525295e-30
10
-12.612683105227065
20
70.144042014645635
30
1.9721522630525295e-30
10
-12.012839059464756
20
69.568503401994107
30
-1.9721522630525295e-30
10
-11.496070757190004
20
68.84423966113917
30
0
10
-11.149402445183465
20
68.045423458087711
30
0
10
-10.815564428521895
20
67.276171675713115
30
-1.9721522630525295e-30
10
-10.641924214564874
20
66.440708265057822
30
0
10
-10.627304992065232
20
65.649908215902371
30
-1.9721522630525295e-30
10
-10.611522900319168
20
64.796204885997525
30
1.9721522630525295e-30
10
-10.776887155525818
20
63.897965565760188
30
1.9721522630525295e-30
10
-11.131838571983977
20
63.065402629133217
30
0
10
-11.497122879466888
20
62.208603186616912
30
0
10
-12.051452504807035
20
61.443806706730953
30
0
10
-12.7115498087167
20
60.837663285128642
30
0
10
-13.626000743424756
20
59.997956146244107
30
0
10
-14.889836910048
20
59.371085222518346
30
0
10
-16.172854919911288
20
59.160541566063181
30
0
10
-16.544181494352895
20
59.099606759130701
30
-1.9721522630525295e-30
10
-16.915437465679503
20
59.070633606976443
30
1.9721522630525295e-30
10
-17.276234557195266
20
59.070633606976443
30
1.9721522630525295e-30
0
SPLINE
5
166
100
AcDbEntity
8
0
100
AcDbSpline
70
2
71
3
72
23
73
19
74
0
42
0.000000001
43
0.0000000001
44
0.0000000001
40
0.030417170578158601
40
0.030417170578158601
40
0.030417170578158601
40
0.030417170578158601
40
0.20310138965245922
40
0.20310138965245922
40
0.20310138965245922
40
0.36802861708777468
40
0.36802861708777468
40
0.36802861708777468
40
0.54892228793255604
40
0.54892228793255604
40
0.54892228793255604
40
0.70891966167834131
40
0.70891966167834131
40
0.70891966167834131
40
0.88417439467061898
40
0.88417439467061898
40
0.88417439467061898
40
0.89966918768035209
40
0.89966918768035209
40
0.89966918768035209
40
0.89966918768035209
10
-12.693476483585187
20
46.490467731581298
30
0
10
-12.118141959858729
20
46.490467731581305
30
-1.9721522630525295e-30
10
-11.556395961155538
20
46.861458485760394
30
0
10
-11.367672417740129
20
47.38546268944549
30
1.9721522630525295e-30
10
-11.187426353947355
20
47.88592857417725
30
1.9721522630525295e-30
10
-11.372493858255391
20
48.489209937184285
30
0
10
-11.798183175175687
20
48.822702517893511
30
-1.9721522630525295e-30
10
-12.265083058079021
20
49.188480188822055
30
-1.9721522630525295e-30
10
-12.981692341731151
20
49.220772519132083
30
0
10
-13.483778561388791
20
48.89738089018995
30
-1.9721522630525295e-30
10
-13.927865279094366
20
48.611346497275733
30
0
10
-14.17314936427908
20
48.060066201251217
30
-1.9721522630525295e-30
10
-14.066953831893159
20
47.553572931765316
30
0
10
-13.950631487109938
20
46.998780433438611
30
1.9721522630525295e-30
10
-13.427975449875378
20
46.55916555726327
30
0
10
-12.847953201536697
20
46.498518970472077
30
0
10
-12.796671706734248
20
46.493157025073906
30
0
10
-12.745100710768673
20
46.490467731581298
30
0
10
-12.693476483585187
20
46.490467731581298
30
0
0
SPLINE
5
167
100
AcDbEntity
8
0
100
AcDbSpline
70
2
71
3
72
20
73
16
74
0
42
0.000000001
43
0.0000000001
44
0.0000000001
40
0.03379088392273577
40
0.03379088392273577
40
0.03379088392273577
40
0.03379088392273577
40
0.20732409817102379
40
0.20732409817102379
40
0.20732409817102379
40
0.37580398150130101
40
0.37580398150130101
40
0.37580398150130101
40
0.55641965448533015
40
0.55641965448533015
40
0.55641965448533015
40
0.72235397764757503
40
0.72235397764757503
40
0.72235397764757503
40
0.90284994494233295
40
0.90284994494233295
40
0.90284994494233295
40
0.90284994494233295
10
-259.19471944792383
20
94.063450581086684
30
3.944304526105059e-30
10
-258.61626516103979
20
94.063450581086713
30
0
10
-258.05291280921324
20
94.436047297314502
30
3.944304526105059e-30
10
-257.8659461192326
20
94.966781162504944
30
3.944304526105059e-30
10
-257.68442394636764
20
95.482059923830576
30
3.944304526105059e-30
10
-257.88895347060691
20
96.095827776029736
30
0
10
-258.33508033769624
20
96.42270131298234
30
-3.944304526105059e-30
10
-258.81334220933837
20
96.773119907121725
30
-7.8886090522101181e-30
10
-259.52998631687376
20
96.784123245312372
30
0
10
-260.02039749711668
20
96.446813463378049
30
0
10
-260.470945591423
20
96.136921916113351
30
0
10
-260.69514983462227
20
95.544531743722672
30
0
10
-260.54397285725719
20
95.030209776224254
30
0
10
-260.37952927354161
20
94.470753243932251
30
0
10
-259.79638332246918
20
94.063450581086684
30
3.944304526105059e-30
10
-259.19471944792383
20
94.063450581086684
30
3.944304526105059e-30
0
ENDSEC
0
SECTION
2
OBJECTS
0
DICTIONARY
5
C
100
AcDbDictionary
3
ACAD_GROUP
350
D
3
ACAD_MLINESTYLE
350
17
0
DICTIONARY
5
D
100
AcDbDictionary
0
DICTIONARY
5
1A
330
C
100
AcDbDictionary
0
DICTIONARY
5
17
100
AcDbDictionary
0
ENDSEC
0
EOF
